<svg 
 xmlns="http://www.w3.org/2000/svg"
 xmlns:xlink="http://www.w3.org/1999/xlink"
 width="30px" height="84px">
<path fill-rule="evenodd"  fill="rgb(232, 83, 14)"
 d="M26.036,15.711 C25.942,13.307 25.831,10.906 25.757,8.501 C25.686,6.179 25.666,3.851 25.577,1.532 C25.569,1.306 25.287,1.056 25.027,0.945 C24.870,0.879 24.367,1.008 24.269,1.140 C24.101,1.365 23.967,1.768 24.110,1.907 C24.471,2.262 24.996,2.514 25.455,2.806 C26.835,8.953 28.560,15.034 29.507,21.265 C30.551,28.131 29.692,35.211 28.022,42.300 C27.953,42.597 28.017,42.897 28.019,43.196 L27.893,43.306 L27.954,43.428 C27.722,44.317 27.489,45.204 27.256,46.093 C27.074,46.376 26.811,46.653 26.723,46.943 C22.773,59.991 14.402,71.598 2.588,82.075 C2.061,82.544 1.271,82.844 0.604,83.223 C0.346,82.119 0.542,81.307 0.974,80.553 C2.774,77.403 4.813,74.308 6.459,71.128 C10.413,63.484 14.196,55.806 18.049,48.143 C22.970,37.424 25.728,26.618 26.036,15.711 "/>
</svg>

<svg 
 xmlns="http://www.w3.org/2000/svg"
 xmlns:xlink="http://www.w3.org/1999/xlink"
 width="34px" height="57px">
<path fill-rule="evenodd"  fill="rgb(232, 83, 14)"
 d="M33.632,0.134 C33.503,1.435 33.374,2.737 33.245,4.038 C31.506,10.657 30.236,17.323 27.921,23.882 C23.774,35.631 16.444,46.352 3.924,55.025 C2.988,55.673 1.884,56.174 0.859,56.744 C0.650,56.600 0.441,56.456 0.230,56.314 C2.135,53.569 4.085,50.838 5.938,48.077 C10.715,40.952 15.451,33.816 20.203,26.684 C23.341,20.778 26.551,14.886 29.590,8.960 C31.076,6.065 32.246,3.105 33.559,0.173 L33.632,0.134 Z"/>
</svg>

<svg 
 xmlns="http://www.w3.org/2000/svg"
 xmlns:xlink="http://www.w3.org/1999/xlink"
 width="34px" height="57px">
<path fill-rule="evenodd"  fill="rgb(255, 255, 255)"
 d="M0.368,0.134 C0.497,1.435 0.626,2.737 0.755,4.038 C2.494,10.657 3.764,17.323 6.079,23.882 C10.226,35.631 17.556,46.352 30.076,55.025 C31.012,55.673 32.116,56.174 33.141,56.744 C33.350,56.599 33.559,56.456 33.769,56.314 C31.864,53.569 29.914,50.838 28.062,48.077 C23.285,40.952 18.549,33.816 13.797,26.684 C10.659,20.778 7.449,14.886 4.410,8.960 C2.924,6.065 1.754,3.105 0.441,0.173 L0.368,0.134 Z"/>
</svg>