<svg xmlns="http://www.w3.org/2000/svg" xmlns:xlink="http://www.w3.org/1999/xlink" width="45.031" height="21.937" viewBox="0 0 45.031 21.937">
  <metadata><?xpacket begin="﻿" id="W5M0MpCehiHzreSzNTczkc9d"?>
<x:xmpmeta xmlns:x="adobe:ns:meta/" x:xmptk="Adobe XMP Core 5.6-c142 79.160924, 2017/07/13-01:06:39        ">
   <rdf:RDF xmlns:rdf="http://www.w3.org/1999/02/22-rdf-syntax-ns#">
      <rdf:Description rdf:about=""/>
   </rdf:RDF>
</x:xmpmeta>
                                                                                                    
                                                                                                    
                                                                                                    
                                                                                                    
                                                                                                    
                                                                                                    
                                                                                                    
                                                                                                    
                                                                                                    
                                                                                                    
                                                                                                    
                                                                                                    
                                                                                                    
                                                                                                    
                                                                                                    
                                                                                                    
                                                                                                    
                                                                                                    
                                                                                                    
                                                                                                    
                           
<?xpacket end="w"?></metadata>
<defs>
    <style>
      .cls-1 {
        filter: url(#filter);
      }

      .cls-2 {
        fill: #eb5322;
        fill-rule: evenodd;
      }
    </style>
    <filter id="filter" filterUnits="userSpaceOnUse">
      <feOffset result="offset" dy="2" in="SourceAlpha"/>
      <feGaussianBlur result="blur" stdDeviation="2"/>
      <feFlood result="flood" flood-opacity="0.15"/>
      <feComposite result="composite" operator="in" in2="blur"/>
      <feBlend result="blend" in="SourceGraphic"/>
    </filter>
  </defs>
  <g id="Flêche" class="cls-1">
    <path id="Fill_1" data-name="Fill 1" class="cls-2" d="M347.876,441.335c3.577-1.123,4.342,1.406.457,3.271-4.745,2.276-9.649,4.415-14.588,6.514l0.223-2.165C339,453.474,344,458.071,349.02,462.431c0.54,0.469.283,0.792-.286,0.38-5.009-3.621-10.939-7.413-16.564-11.467L330,449.78l2.473-1.384a84.792,84.792,0,0,1,15.4-7.061" transform="translate(-330 -441.063)"/>
    <path id="Fill_4" data-name="Fill 4" class="cls-2" d="M335.8,452.73a4.315,4.315,0,0,1-2.349-1.208,1.423,1.423,0,0,1-.373-1.481,1.683,1.683,0,0,1,1.188-.937,4.636,4.636,0,0,1,2.427.139,62.978,62.978,0,0,0,9.212,1.792,85.027,85.027,0,0,0,9.5.608,100.531,100.531,0,0,0,19.12-1.738c0.558-.1.654,0.31,0.1,0.451a109.3,109.3,0,0,1-19.146,3.376,81.409,81.409,0,0,1-9.823.2,59.256,59.256,0,0,1-9.86-1.2" transform="translate(-330 -441.063)"/>
  </g>
</svg>
