<svg id="Pattes-2" xmlns="http://www.w3.org/2000/svg" width="116.22" height="539.94" viewBox="0 0 116.22 539.94">
  <metadata><?xpacket begin="﻿" id="W5M0MpCehiHzreSzNTczkc9d"?>
<x:xmpmeta xmlns:x="adobe:ns:meta/" x:xmptk="Adobe XMP Core 5.6-c142 79.160924, 2017/07/13-01:06:39        ">
   <rdf:RDF xmlns:rdf="http://www.w3.org/1999/02/22-rdf-syntax-ns#">
      <rdf:Description rdf:about=""/>
   </rdf:RDF>
</x:xmpmeta>
                                                                                                    
                                                                                                    
                                                                                                    
                                                                                                    
                                                                                                    
                                                                                                    
                                                                                                    
                                                                                                    
                                                                                                    
                                                                                                    
                                                                                                    
                                                                                                    
                                                                                                    
                                                                                                    
                                                                                                    
                                                                                                    
                                                                                                    
                                                                                                    
                                                                                                    
                                                                                                    
                           
<?xpacket end="w"?></metadata>
<defs>
    <style>
      .cls-1 {
        fill: #e8530e;
        fill-rule: evenodd;
      }
    </style>
  </defs>
  <path id="Fill_4_Copy_31" data-name="Fill 4 Copy 31" class="cls-1" d="M1548.05,1345.12c2.74-.67-4.85-13.66-4.99-14.58,0.55,0.44,5.72,5.48,6.78,6.27,3.61,2.71,4.5,1.43,4.63,1.07,0.22-.82-1.45-2.55-8.47-10.72-3.21-3.78-5.04-5.64-6.08-5.41-0.97.23-1.43,2.08-2.17,5.94-1.22,6.33.69,12.83,2.05,14.41,1.38,1.61.13-9.84,0.72-10.98C1540.63,1332.14,1545.46,1345.68,1548.05,1345.12Z" transform="translate(-1509.84 -1321.75)"/>
  <path id="Fill_1_Copy_34" data-name="Fill 1 Copy 34" class="cls-1" d="M1588.41,1348.16c-1.28-1.64-7.46-4.74-14.18-4.75-4.09-.01-6.09.08-6.55,0.99-0.46.98,1,3.12,4.1,7,6.7,8.45,8.07,10.42,8.96,10.35,0.39-.06,1.9-0.69-0.02-4.75-0.56-1.18-4.5-7.22-4.82-7.85,0.91,0.32,12.38,10.24,13.69,7.68,1.16-2.43-11.5-9.75-12.51-10.05C1578.37,1346.41,1589.74,1349.82,1588.41,1348.16Z" transform="translate(-1509.84 -1321.75)"/>
  <path id="Fill_4_Copy_35" data-name="Fill 4 Copy 35" class="cls-1" d="M1573.19,1397.69c2.8,0.3.11-14.51,0.29-15.42,0.38,0.61,3.51,7.12,4.23,8.22,2.47,3.77,3.74,2.88,3.98,2.58,0.5-.69-0.48-2.88-4.28-12.97-1.73-4.65-2.82-7.02-3.87-7.16-0.99-.12-2.05,1.47-4.07,4.84-3.31,5.54-3.75,12.3-3,14.24,0.75,1.99,3.49-9.2,4.43-10.07C1570.65,1382.94,1570.56,1397.32,1573.19,1397.69Z" transform="translate(-1509.84 -1321.75)"/>
  <path id="Fill_1_Copy_36" data-name="Fill 1 Copy 36" class="cls-1" d="M1613.5,1410.01c-0.98-1.84-6.52-5.97-13.14-7.15-4.03-.72-6.02-0.97-6.63-0.15-0.62.87,0.45,3.24,2.83,7.6,5.13,9.48,6.14,11.66,7.02,11.74,0.4,0.02,1.99-.34.81-4.67-0.35-1.26-3.18-7.89-3.38-8.57,0.83,0.47,10.4,12.23,12.14,9.94,1.57-2.19-9.63-11.6-10.57-12.07C1603.91,1406.54,1614.51,1411.87,1613.5,1410.01Z" transform="translate(-1509.84 -1321.75)"/>
  <path id="Fill_4_Copy_37" data-name="Fill 4 Copy 37" class="cls-1" d="M1589.87,1455.82c2.7,0.79,2.62-14.26,2.96-15.13,0.27,0.66,2.22,7.62,2.74,8.83,1.77,4.14,3.18,3.48,3.47,3.23,0.61-.59.03-2.92-1.96-13.51-0.9-4.88-1.56-7.41-2.56-7.73-0.97-.29-2.29,1.09-4.86,4.06-4.22,4.88-5.82,11.46-5.42,13.51,0.38,2.08,5.03-8.46,6.11-9.15C1589.93,1440.86,1587.34,1455.01,1589.87,1455.82Z" transform="translate(-1509.84 -1321.75)"/>
  <path id="Fill_1_Copy_38" data-name="Fill 1 Copy 38" class="cls-1" d="M1624.63,1470.53c-0.64-1.99-5.39-7.01-11.7-9.32-3.84-1.41-5.75-2.01-6.49-1.31-0.77.76-.13,3.28,1.46,7.98,3.4,10.23,4.02,12.55,4.87,12.79,0.39,0.08,2.02,0,1.61-4.46-0.12-1.31-1.76-8.33-1.84-9.03,0.74,0.6,8.12,13.85,10.23,11.9,1.93-1.89-7.47-13.11-8.31-13.73C1615.79,1465.45,1625.31,1472.54,1624.63,1470.53Z" transform="translate(-1509.84 -1321.75)"/>
  <path id="Fill_4_Copy_39" data-name="Fill 4 Copy 39" class="cls-1" d="M1595.25,1516.22c2.52,1.25,5.06-13.59,5.55-14.38,0.14,0.7.86,7.88,1.16,9.17,1.03,4.39,2.53,3.98,2.86,3.78,0.7-.48.53-2.87,0.41-13.65-0.04-4.96-.25-7.56-1.18-8.05-0.9-.45-2.44.68-5.49,3.16-5,4.07-7.73,10.27-7.69,12.35,0.02,2.13,6.42-7.45,7.61-7.94C1597.91,1501.5,1592.9,1514.98,1595.25,1516.22Z" transform="translate(-1509.84 -1321.75)"/>
  <path id="Fill_1_Copy_40" data-name="Fill 1 Copy 40" class="cls-1" d="M1626.06,1540.3c-0.29-2.06-4.09-7.84-9.91-11.21-3.54-2.06-5.31-2.97-6.16-2.41-0.89.61-.7,3.2,0.05,8.11,1.58,10.67,1.78,13.05,2.58,13.44,0.37,0.15,1.99.36,2.36-4.12,0.11-1.3-.29-8.5-0.25-9.21,0.63,0.73,5.6,15.06,8.01,13.5,2.23-1.53-5.08-14.2-5.8-14.96C1618.24,1533.77,1626.38,1542.4,1626.06,1540.3Z" transform="translate(-1509.84 -1321.75)"/>
  <path id="Fill_4_Copy_41" data-name="Fill 4 Copy 41" class="cls-1" d="M1590.35,1578.87c2.27,1.66,7.35-12.51,7.96-13.2,0.02,0.71-.52,7.91-0.45,9.22,0.26,4.51,1.81,4.37,2.16,4.23,0.78-.35,1.03-2.74,2.78-13.37,0.82-4.89,1.07-7.49.23-8.14-0.8-.6-2.52.25-5.94,2.16-5.64,3.14-9.4,8.77-9.72,10.83-0.35,2.1,7.62-6.22,8.87-6.5C1595.53,1564.83,1588.26,1577.24,1590.35,1578.87Z" transform="translate(-1509.84 -1321.75)"/>
  <path id="Fill_4_Copy_42" data-name="Fill 4 Copy 42" class="cls-1" d="M1585.07,1638.67c2.27,1.66,7.35-12.51,7.96-13.2,0.02,0.71-.52,7.91-0.45,9.22,0.25,4.51,1.81,4.37,2.16,4.23,0.78-.35,1.02-2.74,2.77-13.37,0.83-4.89,1.08-7.49.24-8.14-0.8-.6-2.52.25-5.95,2.16-5.63,3.14-9.39,8.77-9.72,10.83-0.35,2.1,7.62-6.22,8.87-6.5C1590.24,1624.63,1582.98,1637.04,1585.07,1638.67Z" transform="translate(-1509.84 -1321.75)"/>
  <path id="Fill_1_Copy_42" data-name="Fill 1 Copy 42" class="cls-1" d="M1620.52,1605.03c-0.11-2.08-3.39-8.17-8.89-12.03-3.35-2.36-5.04-3.43-5.94-2.94-0.94.53-.97,3.13-0.65,8.08,0.64,10.77.63,13.16,1.4,13.62,0.35,0.18,1.95.53,2.71-3.9,0.22-1.29.45-8.49,0.55-9.19,0.56,0.77,4.26,15.48,6.81,14.14,2.35-1.33-3.83-14.59-4.48-15.41C1613.3,1597.84,1620.65,1607.15,1620.52,1605.03Z" transform="translate(-1509.84 -1321.75)"/>
  <path id="Fill_4_Copy_44" data-name="Fill 4 Copy 44" class="cls-1" d="M1569.65,1700.03c1.95,2.04,9.41-11.04,10.13-11.62-0.1.71-1.88,7.7-2.04,9.01-0.54,4.48,1.02,4.61,1.39,4.54,0.83-.21,1.48-2.52,5.05-12.69,1.67-4.67,2.36-7.18,1.65-7.97-0.69-.73-2.52-0.19-6.23,1.1-6.1,2.11-10.78,7-11.45,8.97-0.71,2.01,8.58-4.8,9.86-4.86C1577.18,1687.11,1567.87,1698.07,1569.65,1700.03Z" transform="translate(-1509.84 -1321.75)"/>
  <path id="Fill_1_Copy_44" data-name="Fill 1 Copy 44" class="cls-1" d="M1609.35,1671.44c0.25-2.07-1.92-8.63-6.67-13.39-2.89-2.9-4.36-4.25-5.33-3.92-1.02.35-1.5,2.91-2.05,7.84-1.24,10.72-1.66,13.07-.99,13.65,0.32,0.24,1.83.86,3.35-3.36,0.44-1.24,1.92-8.29,2.14-8.96,0.42,0.86,1.51,15.99,4.25,15.11,2.54-.9-1.23-15.04-1.74-15.96C1603.48,1663.11,1609.11,1673.55,1609.35,1671.44Z" transform="translate(-1509.84 -1321.75)"/>
  <path id="Fill_1_Copy_45" data-name="Fill 1 Copy 45" class="cls-1" d="M1595.14,1730.37c0.25-2.06-1.92-8.62-6.66-13.39-2.89-2.9-4.37-4.24-5.34-3.92-1.02.36-1.5,2.91-2.05,7.85-1.23,10.71-1.66,13.07-.98,13.64,0.32,0.25,1.83.87,3.34-3.36,0.45-1.23,1.93-8.29,2.14-8.96,0.42,0.86,1.51,15.99,4.25,15.11,2.55-.9-1.23-15.03-1.73-15.96C1589.28,1722.04,1594.9,1732.49,1595.14,1730.37Z" transform="translate(-1509.84 -1321.75)"/>
  <path id="Fill_4_Copy_46" data-name="Fill 4 Copy 46" class="cls-1" d="M1552.06,1755.08c1.76,2.2,10.33-10.17,11.1-10.69-0.16.7-2.55,7.51-2.82,8.8-0.92,4.42.61,4.68,0.99,4.64,0.84-.13,1.7-2.38,6.14-12.2,2.07-4.51,2.98-6.95,2.34-7.79-0.62-.79-2.5-0.42-6.31.54-6.25,1.58-11.34,6.05-12.19,7.95-0.88,1.93,8.97-4.04,10.25-3.99C1560.69,1742.87,1550.46,1752.97,1552.06,1755.08Z" transform="translate(-1509.84 -1321.75)"/>
  <path id="Fill_4_Copy_47" data-name="Fill 4 Copy 47" class="cls-1" d="M1532.93,1801.37c1.35,2.47,11.94-8.23,12.8-8.6-0.29.65-3.82,6.95-4.31,8.17-1.68,4.19-.21,4.72.17,4.75,0.85,0.01,2.08-2.05,8.16-10.95,2.82-4.09,4.14-6.33,3.66-7.27-0.48-.89-2.39-0.85-6.31-0.56-6.43.46-12.22,3.98-13.38,5.71-1.21,1.75,9.53-2.43,10.78-2.15C1543.55,1790.84,1531.72,1799.01,1532.93,1801.37Z" transform="translate(-1509.84 -1321.75)"/>
  <path id="Fill_1_Copy_47" data-name="Fill 1 Copy 47" class="cls-1" d="M1576.54,1786.38c0.78-1.93.38-8.83-2.98-14.66-2.04-3.55-3.11-5.23-4.13-5.17-1.08.08-2.21,2.43-4.01,7.05-3.97,10.03-4.99,12.2-4.49,12.93,0.25,0.31,1.55,1.3,4.1-2.39,0.75-1.07,4.01-7.5,4.39-8.1,0.18,0.94-2.68,15.84.19,15.7,2.7-.21,2.71-14.84,2.46-15.86C1573.03,1776.81,1575.76,1788.36,1576.54,1786.38Z" transform="translate(-1509.84 -1321.75)"/>
  <path id="Fill_4_Copy_48" data-name="Fill 4 Copy 48" class="cls-1" d="M1509.93,1857.37c1.35,2.47,11.94-8.23,12.8-8.6-0.29.65-3.82,6.95-4.31,8.17-1.68,4.19-.21,4.72.17,4.75,0.85,0.01,2.08-2.05,8.16-10.95,2.82-4.09,4.14-6.33,3.66-7.27-0.48-.89-2.39-0.85-6.31-0.56-6.43.46-12.22,3.98-13.38,5.71-1.21,1.75,9.53-2.43,10.78-2.15C1520.55,1846.84,1508.72,1855.01,1509.93,1857.37Z" transform="translate(-1509.84 -1321.75)"/>
  <path id="Fill_1_Copy_49" data-name="Fill 1 Copy 49" class="cls-1" d="M1553.54,1842.38c0.78-1.93.38-8.83-2.98-14.66-2.04-3.55-3.11-5.23-4.13-5.17-1.08.08-2.21,2.43-4.01,7.05-3.97,10.03-4.99,12.2-4.49,12.93,0.25,0.31,1.55,1.3,4.1-2.39,0.75-1.07,4.01-7.5,4.39-8.1,0.18,0.94-2.68,15.84.19,15.7,2.7-.21,2.71-14.84,2.46-15.86C1550.03,1832.81,1552.76,1844.36,1553.54,1842.38Z" transform="translate(-1509.84 -1321.75)"/>
</svg>
