<svg id="Pattes-2" xmlns="http://www.w3.org/2000/svg" width="93.22" height="483.93" viewBox="0 0 93.22 483.93">
  <metadata><?xpacket begin="﻿" id="W5M0MpCehiHzreSzNTczkc9d"?>
<x:xmpmeta xmlns:x="adobe:ns:meta/" x:xmptk="Adobe XMP Core 5.6-c142 79.160924, 2017/07/13-01:06:39        ">
   <rdf:RDF xmlns:rdf="http://www.w3.org/1999/02/22-rdf-syntax-ns#">
      <rdf:Description rdf:about=""/>
   </rdf:RDF>
</x:xmpmeta>
                                                                                                    
                                                                                                    
                                                                                                    
                                                                                                    
                                                                                                    
                                                                                                    
                                                                                                    
                                                                                                    
                                                                                                    
                                                                                                    
                                                                                                    
                                                                                                    
                                                                                                    
                                                                                                    
                                                                                                    
                                                                                                    
                                                                                                    
                                                                                                    
                                                                                                    
                                                                                                    
                           
<?xpacket end="w"?></metadata>
<defs>
    <style>
      .cls-1 {
        fill: #e8530e;
        fill-rule: evenodd;
      }
    </style>
  </defs>
  <path id="Fill_4_Copy_31" data-name="Fill 4 Copy 31" class="cls-1" d="M1548.38,1389.51c2.74-.67-4.86-13.67-4.99-14.58,0.55,0.44,5.72,5.48,6.78,6.27,3.61,2.7,4.5,1.42,4.62,1.06,0.23-.81-1.44-2.54-8.46-10.72-3.22-3.77-5.04-5.63-6.08-5.41-0.98.23-1.43,2.09-2.17,5.95-1.22,6.33.68,12.83,2.05,14.4,1.38,1.62.13-9.83,0.72-10.97C1540.96,1376.52,1545.79,1390.07,1548.38,1389.51Z" transform="translate(-1533.16 -1366.13)"/>
  <path id="Fill_1_Copy_34" data-name="Fill 1 Copy 34" class="cls-1" d="M1588.74,1392.55c-1.28-1.64-7.46-4.74-14.18-4.76-4.1-.01-6.09.09-6.55,1-0.47.97,1,3.12,4.1,7,6.7,8.45,8.07,10.41,8.96,10.35,0.39-.06,1.9-0.69-0.02-4.75-0.56-1.18-4.5-7.22-4.82-7.85,0.9,0.31,12.38,10.24,13.69,7.68,1.16-2.43-11.5-9.76-12.51-10.05C1578.7,1390.8,1590.07,1394.21,1588.74,1392.55Z" transform="translate(-1533.16 -1366.13)"/>
  <path id="Fill_4_Copy_35" data-name="Fill 4 Copy 35" class="cls-1" d="M1573.52,1442.07c2.8,0.31.11-14.5,0.29-15.41,0.37,0.61,3.51,7.11,4.23,8.22,2.47,3.77,3.74,2.87,3.98,2.58,0.5-.69-0.48-2.88-4.28-12.97-1.74-4.65-2.82-7.02-3.87-7.16-0.99-.12-2.06,1.47-4.07,4.84-3.31,5.54-3.75,12.29-3,14.24,0.74,1.99,3.49-9.2,4.43-10.07C1570.98,1427.33,1570.89,1441.71,1573.52,1442.07Z" transform="translate(-1533.16 -1366.13)"/>
  <path id="Fill_1_Copy_36" data-name="Fill 1 Copy 36" class="cls-1" d="M1613.82,1454.4c-0.97-1.84-6.52-5.97-13.14-7.15-4.03-.72-6.01-0.98-6.62-0.15-0.63.87,0.45,3.24,2.83,7.6,5.13,9.48,6.13,11.66,7.02,11.74,0.4,0.02,1.99-.34.81-4.67-0.35-1.27-3.18-7.89-3.39-8.57,0.84,0.47,10.41,12.23,12.15,9.94,1.57-2.2-9.63-11.61-10.57-12.07C1604.24,1450.93,1614.84,1456.26,1613.82,1454.4Z" transform="translate(-1533.16 -1366.13)"/>
  <path id="Fill_4_Copy_37" data-name="Fill 4 Copy 37" class="cls-1" d="M1590.19,1500.21c2.71,0.79,2.63-14.26,2.97-15.13,0.26,0.66,2.22,7.61,2.74,8.83,1.77,4.14,3.18,3.48,3.47,3.23,0.61-.59.03-2.92-1.97-13.52-0.89-4.88-1.55-7.4-2.56-7.72-0.96-.29-2.28,1.09-4.85,4.06-4.22,4.88-5.82,11.46-5.43,13.5,0.39,2.09,5.03-8.45,6.12-9.14C1590.26,1485.25,1587.67,1499.4,1590.19,1500.21Z" transform="translate(-1533.16 -1366.13)"/>
  <path id="Fill_1_Copy_38" data-name="Fill 1 Copy 38" class="cls-1" d="M1624.96,1514.91c-0.65-1.98-5.39-7.01-11.7-9.32-3.85-1.4-5.75-2-6.5-1.3-0.77.76-.12,3.28,1.46,7.98,3.41,10.23,4.03,12.55,4.88,12.79,0.39,0.08,2.02,0,1.61-4.47-0.12-1.3-1.76-8.32-1.85-9.02,0.75,0.6,8.13,13.85,10.24,11.89,1.93-1.89-7.47-13.1-8.32-13.72C1616.12,1509.84,1625.64,1516.93,1624.96,1514.91Z" transform="translate(-1533.16 -1366.13)"/>
  <path id="Fill_4_Copy_39" data-name="Fill 4 Copy 39" class="cls-1" d="M1595.57,1560.61c2.53,1.25,5.07-13.59,5.55-14.38,0.15,0.69.86,7.88,1.16,9.16,1.03,4.39,2.54,3.99,2.87,3.79,0.7-.48.53-2.87,0.4-13.65-0.03-4.96-.24-7.56-1.18-8.05-0.89-.45-2.43.68-5.48,3.16-5,4.07-7.73,10.27-7.69,12.35,0.02,2.12,6.42-7.45,7.61-7.94C1598.23,1545.89,1593.23,1559.37,1595.57,1560.61Z" transform="translate(-1533.16 -1366.13)"/>
  <path id="Fill_1_Copy_40" data-name="Fill 1 Copy 40" class="cls-1" d="M1626.39,1584.69c-0.29-2.07-4.09-7.84-9.91-11.21-3.54-2.06-5.31-2.98-6.17-2.41-0.89.61-.69,3.2,0.06,8.11,1.58,10.67,1.78,13.05,2.58,13.44,0.37,0.15,1.99.35,2.36-4.12,0.11-1.31-.29-8.5-0.25-9.21,0.62,0.72,5.59,15.06,8.01,13.5,2.23-1.53-5.08-14.2-5.8-14.97C1618.57,1578.15,1626.7,1586.79,1626.39,1584.69Z" transform="translate(-1533.16 -1366.13)"/>
  <path id="Fill_4_Copy_41" data-name="Fill 4 Copy 41" class="cls-1" d="M1590.68,1623.25c2.27,1.67,7.35-12.5,7.96-13.2,0.02,0.71-.52,7.92-0.45,9.23,0.25,4.51,1.81,4.37,2.16,4.23,0.78-.35,1.02-2.74,2.77-13.37,0.83-4.9,1.08-7.49.24-8.14-0.8-.6-2.52.25-5.95,2.16-5.63,3.14-9.39,8.77-9.72,10.83-0.35,2.1,7.62-6.23,8.87-6.5C1595.85,1609.22,1588.59,1621.63,1590.68,1623.25Z" transform="translate(-1533.16 -1366.13)"/>
  <path id="Fill_4_Copy_42" data-name="Fill 4 Copy 42" class="cls-1" d="M1585.4,1683.06c2.27,1.66,7.34-12.51,7.96-13.21,0.02,0.72-.52,7.92-0.45,9.23,0.25,4.51,1.8,4.37,2.16,4.23,0.77-.35,1.02-2.74,2.77-13.37,0.83-4.9,1.08-7.49.24-8.14-0.8-.6-2.52.25-5.95,2.16-5.63,3.14-9.39,8.77-9.72,10.83-0.35,2.1,7.62-6.22,8.87-6.5C1590.57,1669.02,1583.3,1681.43,1585.4,1683.06Z" transform="translate(-1533.16 -1366.13)"/>
  <path id="Fill_1_Copy_42" data-name="Fill 1 Copy 42" class="cls-1" d="M1620.84,1649.42c-0.11-2.08-3.38-8.17-8.89-12.03-3.34-2.36-5.03-3.43-5.93-2.94-0.94.53-.97,3.13-0.65,8.08,0.64,10.77.63,13.16,1.4,13.61,0.35,0.19,1.95.53,2.7-3.89,0.23-1.29.46-8.49,0.56-9.2,0.56,0.78,4.26,15.49,6.81,14.15,2.35-1.33-3.83-14.59-4.48-15.42C1613.62,1642.23,1620.98,1651.54,1620.84,1649.42Z" transform="translate(-1533.16 -1366.13)"/>
  <path id="Fill_4_Copy_44" data-name="Fill 4 Copy 44" class="cls-1" d="M1569.98,1744.42c1.95,2.04,9.41-11.04,10.13-11.62-0.1.7-1.89,7.7-2.04,9.01-0.54,4.48,1.02,4.61,1.39,4.54,0.82-.21,1.48-2.52,5.05-12.69,1.67-4.67,2.36-7.19,1.65-7.97-0.69-.73-2.52-0.19-6.23,1.09-6.1,2.12-10.78,7.01-11.46,8.98-0.7,2.01,8.59-4.81,9.87-4.86C1577.51,1731.5,1568.2,1742.45,1569.98,1744.42Z" transform="translate(-1533.16 -1366.13)"/>
  <path id="Fill_1_Copy_44" data-name="Fill 1 Copy 44" class="cls-1" d="M1609.67,1715.83c0.26-2.07-1.91-8.63-6.66-13.39-2.89-2.9-4.36-4.25-5.34-3.93-1.01.36-1.49,2.92-2.04,7.85-1.24,10.71-1.66,13.07-.99,13.65,0.32,0.24,1.83.86,3.35-3.36,0.44-1.24,1.92-8.29,2.14-8.96,0.42,0.86,1.51,15.99,4.25,15.1,2.54-.9-1.24-15.03-1.74-15.95C1603.81,1707.5,1609.44,1717.94,1609.67,1715.83Z" transform="translate(-1533.16 -1366.13)"/>
  <path id="Fill_1_Copy_45" data-name="Fill 1 Copy 45" class="cls-1" d="M1595.47,1774.76c0.25-2.07-1.92-8.63-6.67-13.39-2.88-2.9-4.36-4.25-5.33-3.92-1.02.35-1.5,2.91-2.05,7.84-1.23,10.72-1.66,13.08-.98,13.65,0.32,0.24,1.83.86,3.34-3.36,0.44-1.24,1.92-8.29,2.14-8.96,0.42,0.86,1.51,15.99,4.25,15.11,2.55-.9-1.23-15.03-1.73-15.96C1589.61,1766.43,1595.23,1776.87,1595.47,1774.76Z" transform="translate(-1533.16 -1366.13)"/>
  <path id="Fill_4_Copy_46" data-name="Fill 4 Copy 46" class="cls-1" d="M1552.38,1799.47c1.77,2.2,10.34-10.17,11.11-10.69-0.16.69-2.55,7.51-2.82,8.8-0.92,4.42.61,4.68,0.99,4.64,0.84-.14,1.7-2.38,6.14-12.2,2.07-4.51,2.98-6.95,2.34-7.79-0.62-.79-2.5-0.42-6.31.54-6.25,1.57-11.34,6.04-12.19,7.95-0.88,1.93,8.97-4.04,10.25-3.99C1561.02,1787.26,1550.79,1797.36,1552.38,1799.47Z" transform="translate(-1533.16 -1366.13)"/>
  <path id="Fill_4_Copy_47" data-name="Fill 4 Copy 47" class="cls-1" d="M1533.26,1845.76c1.35,2.47,11.94-8.23,12.79-8.6-0.28.65-3.81,6.95-4.3,8.17-1.68,4.19-.21,4.72.17,4.75,0.85,0,2.08-2.05,8.16-10.95,2.82-4.09,4.14-6.34,3.65-7.28-0.47-.88-2.38-0.84-6.3-0.55-6.43.46-12.22,3.98-13.38,5.71-1.21,1.75,9.53-2.43,10.78-2.15C1543.88,1835.22,1532.05,1843.4,1533.26,1845.76Z" transform="translate(-1533.16 -1366.13)"/>
  <path id="Fill_1_Copy_47" data-name="Fill 1 Copy 47" class="cls-1" d="M1576.86,1830.77c0.78-1.93.38-8.83-2.97-14.66-2.04-3.55-3.11-5.23-4.14-5.17-1.07.08-2.2,2.43-4.01,7.05-3.96,10.03-4.98,12.19-4.48,12.93,0.25,0.31,1.55,1.3,4.1-2.39,0.75-1.08,4-7.5,4.39-8.1,0.18,0.94-2.68,15.84.19,15.7,2.69-.21,2.7-14.84,2.46-15.86C1573.36,1821.2,1576.09,1832.75,1576.86,1830.77Z" transform="translate(-1533.16 -1366.13)"/>
</svg>
