<svg id="Pattes" xmlns="http://www.w3.org/2000/svg" width="955.03" height="143.938" viewBox="0 0 955.03 143.938">
  <metadata><?xpacket begin="﻿" id="W5M0MpCehiHzreSzNTczkc9d"?>
<x:xmpmeta xmlns:x="adobe:ns:meta/" x:xmptk="Adobe XMP Core 5.6-c142 79.160924, 2017/07/13-01:06:39        ">
   <rdf:RDF xmlns:rdf="http://www.w3.org/1999/02/22-rdf-syntax-ns#">
      <rdf:Description rdf:about=""/>
   </rdf:RDF>
</x:xmpmeta>
                                                                                                    
                                                                                                    
                                                                                                    
                                                                                                    
                                                                                                    
                                                                                                    
                                                                                                    
                                                                                                    
                                                                                                    
                                                                                                    
                                                                                                    
                                                                                                    
                                                                                                    
                                                                                                    
                                                                                                    
                                                                                                    
                                                                                                    
                                                                                                    
                                                                                                    
                                                                                                    
                           
<?xpacket end="w"?></metadata>
<defs>
    <style>
      .cls-1 {
        fill: #e8530e;
        fill-rule: evenodd;
      }
    </style>
  </defs>
  <path id="Fill_4_Copy_22" data-name="Fill 4 Copy 22" class="cls-1" d="M622.558,751.958c2.036-1.948-11.038-9.407-11.618-10.134,0.7,0.1,7.7,1.888,9.01,2.044,4.479,0.535,4.61-1.018,4.539-1.392-0.211-.824-2.519-1.482-12.689-5.053-4.675-1.663-7.187-2.357-7.97-1.646-0.731.688-.2,2.523,1.093,6.233,2.112,6.1,7.007,10.774,8.978,11.451,2,0.709-4.808-8.584-4.863-9.864C609.636,744.423,620.593,753.736,622.558,751.958Z" transform="translate(-603.5 -656.25)"/>
  <path id="Fill_1_Copy_23" data-name="Fill 1 Copy 23" class="cls-1" d="M652.711,725.111c-2.069-.254-8.628,1.918-13.391,6.666-2.9,2.888-4.248,4.363-3.925,5.334,0.358,1.017,2.914,1.5,7.848,2.048,10.713,1.236,13.071,1.659,13.649.984,0.24-.318.86-1.829-3.365-3.343-1.235-.443-8.287-1.924-8.96-2.143,0.86-.418,15.99-1.51,15.109-4.248-0.9-2.545-15.032,1.232-15.954,1.735C644.377,730.973,654.823,725.348,652.711,725.111Z" transform="translate(-603.5 -656.25)"/>
  <path id="Fill_4_Copy_24" data-name="Fill 4 Copy 24" class="cls-1" d="M684.175,761.184c1.859-2.119-11.815-8.41-12.457-9.083,0.71,0.042,7.837,1.209,9.155,1.251,4.508,0.143,4.5-1.416,4.4-1.783-0.281-.8-2.638-1.256-13.08-3.927-4.8-1.25-7.366-1.722-8.083-.945-0.669.748,0.025,2.53,1.631,6.113,2.635,5.888,7.92,10.123,9.943,10.626,2.057,0.532-5.539-8.133-5.705-9.4C670.646,754.8,682.373,763.126,684.175,761.184Z" transform="translate(-603.5 -656.25)"/>
  <path id="Fill_1_Copy_24" data-name="Fill 1 Copy 24" class="cls-1" d="M708.024,727.688c-2.084-.072-8.429,2.663-12.76,7.808-2.639,3.13-3.851,4.717-3.445,5.656,0.445,0.982,3.034,1.239,8,1.356,10.779,0.3,13.165.514,13.682-.209,0.212-.338.7-1.9-3.643-3.037-1.269-.334-8.423-1.194-9.113-1.353,0.82-.492,15.8-2.9,14.681-5.549-1.118-2.457-14.867,2.537-15.742,3.118C700.231,734.255,710.148,727.741,708.024,727.688Z" transform="translate(-603.5 -656.25)"/>
  <path id="Fill_4_Copy_25" data-name="Fill 4 Copy 25" class="cls-1" d="M748.723,762.359c1.667-2.273-12.5-7.348-13.2-7.963,0.712-.02,7.913.522,9.229,0.448,4.5-.25,4.363-1.8,4.228-2.159-0.351-.774-2.738-1.022-13.373-2.773-4.893-.826-7.488-1.072-8.135-0.236-0.6.8,0.246,2.519,2.158,5.948,3.138,5.636,8.772,9.394,10.831,9.718,2.1,0.351-6.226-7.619-6.5-8.87C734.689,757.182,747.1,764.451,748.723,762.359Z" transform="translate(-603.5 -656.25)"/>
  <path id="Fill_1_Copy_26" data-name="Fill 1 Copy 26" class="cls-1" d="M783.3,730.328c-2.082.109-8.165,3.387-12.031,8.89-2.356,3.347-3.425,5.034-2.938,5.935,0.528,0.939,3.129.969,8.084,0.653,10.764-.643,13.16-0.636,13.611-1.4,0.182-.355.53-1.95-3.893-2.708-1.293-.222-8.5-0.455-9.2-0.553,0.774-.562,15.484-4.264,14.141-6.808-1.328-2.35-14.589,3.823-15.41,4.479C776.111,737.548,785.423,730.2,783.3,730.328Z" transform="translate(-603.5 -656.25)"/>
  <path id="Fill_4_Copy_28" data-name="Fill 4 Copy 28" class="cls-1" d="M825.723,762.359c1.667-2.273-12.5-7.348-13.2-7.963,0.712-.02,7.913.522,9.229,0.448,4.5-.25,4.363-1.8,4.228-2.159-0.351-.774-2.738-1.022-13.373-2.773-4.893-.826-7.488-1.072-8.135-0.236-0.6.8,0.246,2.519,2.158,5.948,3.138,5.636,8.772,9.394,10.831,9.718,2.1,0.351-6.226-7.619-6.5-8.87C811.689,757.182,824.1,764.451,825.723,762.359Z" transform="translate(-603.5 -656.25)"/>
  <path id="Fill_1_Copy_28" data-name="Fill 1 Copy 28" class="cls-1" d="M857.3,729.328c-2.081.109-8.164,3.387-12.03,8.89-2.356,3.348-3.425,5.034-2.939,5.935,0.529,0.939,3.13.969,8.085,0.653,10.764-.643,13.16-0.636,13.611-1.4,0.182-.355.53-1.95-3.893-2.708-1.294-.221-8.5-0.455-9.2-0.553,0.775-.562,15.485-4.264,14.142-6.808-1.328-2.35-14.589,3.824-15.41,4.479C850.111,736.548,859.423,729.2,857.3,729.328Z" transform="translate(-603.5 -656.25)"/>
  <path id="Fill_4_Copy_30" data-name="Fill 4 Copy 30" class="cls-1" d="M904.2,760.489c1.463-2.409-13.1-6.23-13.845-6.782,0.707-.081,7.928-0.17,9.233-0.357,4.465-.643,4.189-2.176,4.023-2.52-0.416-.741-2.816-0.779-13.564-1.6-4.946-.4-7.552-0.416-8.124.474-0.528.853,0.464,2.487,2.668,5.737,3.618,5.341,9.558,8.593,11.637,8.737,2.118,0.167-6.867-7.047-7.251-8.269C889.765,756.556,902.758,762.715,904.2,760.489Z" transform="translate(-603.5 -656.25)"/>
  <path id="Fill_1_Copy_30" data-name="Fill 1 Copy 30" class="cls-1" d="M936.551,727.031c-2.064.29-7.839,4.086-11.21,9.905-2.055,3.54-2.974,5.314-2.41,6.168,0.608,0.89,3.2.694,8.11-.053,10.667-1.579,13.055-1.781,13.438-2.582,0.15-.37.358-1.99-4.115-2.358-1.307-.109-8.5.287-9.209,0.25,0.722-.627,15.054-5.6,13.494-8.014-1.528-2.226-14.2,5.08-14.961,5.8C930.017,734.851,938.652,726.714,936.551,727.031Z" transform="translate(-603.5 -656.25)"/>
  <path id="Fill_4_Copy_32" data-name="Fill 4 Copy 32" class="cls-1" d="M982.091,755.814c1.022-2.627-13.979-3.862-14.813-4.275,0.682-.2,7.778-1.544,9.031-1.956,4.285-1.407,3.748-2.87,3.524-3.18-0.538-.657-2.908-0.278-13.635.784-4.94.468-7.509,0.9-7.919,1.876-0.372.932,0.89,2.37,3.624,5.187,4.491,4.632,10.9,6.8,12.978,6.584,2.115-.2-7.986-5.748-8.577-6.884C967.2,754.446,981.061,758.255,982.091,755.814Z" transform="translate(-603.5 -656.25)"/>
  <path id="Fill_1_Copy_33" data-name="Fill 1 Copy 33" class="cls-1" d="M1002.97,716.782c-1.92.814-6.516,5.975-8.267,12.468-1.069,3.952-1.5,5.9-.731,6.582,0.818,0.7,3.273-.159,7.818-2.15,9.9-4.286,12.15-5.1,12.31-5.973,0.05-.395-0.17-2.014-4.58-1.212-1.29.234-8.14,2.478-8.83,2.625,0.53-.793,13.09-9.3,10.96-11.234-2.05-1.754-12.4,8.583-12.951,9.48C998.681,726.026,1004.92,715.931,1002.97,716.782Z" transform="translate(-603.5 -656.25)"/>
  <path id="Fill_4_Copy_34" data-name="Fill 4 Copy 34" class="cls-1" d="M1050.47,742.872c0.55-2.764-14.44-1.376-15.33-1.638,0.64-.318,7.39-2.871,8.55-3.494,3.98-2.13,3.2-3.477,2.92-3.744-0.64-.553-2.91.232-13.29,3.139-4.78,1.319-7.24,2.192-7.47,3.224-0.21.982,1.29,2.179,4.47,4.478,5.23,3.782,11.92,4.807,13.92,4.231,2.05-.568-8.86-4.274-9.64-5.291C1035.56,744.111,1049.88,745.455,1050.47,742.872Z" transform="translate(-603.5 -656.25)"/>
  <path id="Fill_1_Copy_35" data-name="Fill 1 Copy 35" class="cls-1" d="M1065.16,699.76c-1.84.979-5.97,6.521-7.15,13.141-0.72,4.03-.97,6.011-0.15,6.621,0.88,0.628,3.25-.444,7.6-2.824,9.49-5.132,11.66-6.138,11.75-7.023,0.01-.4-0.35-1.991-4.68-0.808-1.26.345-7.89,3.178-8.56,3.385,0.46-.837,12.23-10.409,9.93-12.146-2.19-1.569-11.6,9.63-12.07,10.571C1061.7,709.343,1067.03,698.743,1065.16,699.76Z" transform="translate(-603.5 -656.25)"/>
  <path id="Fill_4_Copy_36" data-name="Fill 4 Copy 36" class="cls-1" d="M1119.53,723.884c0.31-2.8-14.5-.113-15.41-0.3,0.6-.373,7.11-3.5,8.22-4.226,3.77-2.469,2.87-3.743,2.58-3.984-0.69-.5-2.89.484-12.97,4.285-4.65,1.732-7.02,2.815-7.16,3.863-0.12,1,1.47,2.058,4.84,4.072,5.53,3.312,12.29,3.749,14.24,3,1.99-.744-9.2-3.485-10.07-4.43C1104.79,726.417,1119.17,726.508,1119.53,723.884Z" transform="translate(-603.5 -656.25)"/>
  <path id="Fill_1_Copy_37" data-name="Fill 1 Copy 37" class="cls-1" d="M1131.16,679.76c-1.84.979-5.97,6.521-7.15,13.141-0.72,4.03-.97,6.011-0.15,6.621,0.88,0.628,3.25-.444,7.6-2.824,9.49-5.132,11.66-6.138,11.75-7.023,0.01-.4-0.35-1.991-4.68-0.808-1.26.345-7.89,3.178-8.56,3.385,0.46-.837,12.23-10.409,9.93-12.146-2.19-1.569-11.6,9.63-12.07,10.571C1127.7,689.343,1133.03,678.743,1131.16,679.76Z" transform="translate(-603.5 -656.25)"/>
  <path id="Fill_4_Copy_38" data-name="Fill 4 Copy 38" class="cls-1" d="M1187.32,701.851c0.79-2.706-14.26-2.629-15.13-2.968,0.67-.261,7.62-2.216,8.83-2.735,4.15-1.776,3.48-3.186,3.23-3.475-0.59-.607-2.92-0.023-13.51,1.969-4.88.9-7.4,1.552-7.73,2.56-0.29.961,1.1,2.283,4.07,4.851,4.87,4.223,11.45,5.827,13.5,5.428,2.09-.387-8.46-5.03-9.15-6.111C1172.37,701.787,1186.51,704.373,1187.32,701.851Z" transform="translate(-603.5 -656.25)"/>
  <path id="Fill_1_Copy_39" data-name="Fill 1 Copy 39" class="cls-1" d="M1204.77,661.874c-1.98.644-7.01,5.385-9.32,11.7-1.41,3.843-2.01,5.75-1.3,6.493,0.75,0.771,3.27.127,7.98-1.461,10.23-3.407,12.54-4.02,12.78-4.876,0.08-.39.01-2.022-4.46-1.608-1.31.12-8.32,1.759-9.03,1.845,0.61-.743,13.86-8.126,11.9-10.235-1.89-1.927-13.1,7.469-13.73,8.314C1199.69,670.709,1206.78,661.2,1204.77,661.874Z" transform="translate(-603.5 -656.25)"/>
  <path id="Fill_4_Copy_41" data-name="Fill 4 Copy 41" class="cls-1" d="M1252.38,690.66c1.46-2.409-13.1-6.23-13.85-6.782,0.71-.082,7.93-0.17,9.24-0.358,4.46-.642,4.19-2.176,4.02-2.519-0.42-.741-2.82-0.779-13.56-1.6-4.95-.4-7.56-0.416-8.13.474-0.53.853,0.47,2.487,2.67,5.737,3.62,5.341,9.56,8.593,11.64,8.737,2.11,0.167-6.87-7.047-7.25-8.269C1237.95,686.726,1250.94,692.886,1252.38,690.66Z" transform="translate(-603.5 -656.25)"/>
  <path id="Fill_1_Copy_41" data-name="Fill 1 Copy 41" class="cls-1" d="M1279.33,656.266c-2.06.29-7.83,4.086-11.21,9.9-2.05,3.541-2.97,5.314-2.41,6.169,0.61,0.89,3.21.693,8.11-.054,10.67-1.579,13.06-1.78,13.44-2.582,0.15-.369.36-1.989-4.11-2.358-1.31-.108-8.5.287-9.21,0.25,0.72-.627,15.05-5.6,13.49-8.014-1.53-2.226-14.2,5.08-14.96,5.8C1272.8,664.085,1281.44,655.948,1279.33,656.266Z" transform="translate(-603.5 -656.25)"/>
  <path id="Fill_4_Copy_43" data-name="Fill 4 Copy 43" class="cls-1" d="M1316.36,697.355c1.86-2.119-11.82-8.41-12.46-9.083,0.71,0.042,7.84,1.209,9.16,1.251,4.5,0.143,4.5-1.416,4.4-1.783-0.29-.8-2.64-1.256-13.09-3.928-4.8-1.249-7.36-1.721-8.08-.944-0.67.748,0.03,2.53,1.63,6.113,2.64,5.888,7.92,10.123,9.95,10.626,2.05,0.532-5.54-8.133-5.71-9.4C1302.83,690.975,1314.56,699.3,1316.36,697.355Z" transform="translate(-603.5 -656.25)"/>
  <path id="Fill_1_Copy_43" data-name="Fill 1 Copy 43" class="cls-1" d="M1353.49,669.345c-2.06-.254-8.62,1.918-13.39,6.666-2.9,2.888-4.24,4.364-3.92,5.335,0.36,1.017,2.91,1.5,7.85,2.047,10.71,1.236,13.07,1.659,13.65.984,0.24-.318.86-1.829-3.37-3.343-1.23-.443-8.29-1.923-8.96-2.142,0.86-.419,15.99-1.51,15.11-4.248-0.9-2.546-15.03,1.231-15.95,1.734C1345.16,675.207,1355.61,669.583,1353.49,669.345Z" transform="translate(-603.5 -656.25)"/>
  <path id="Fill_4_Copy_45" data-name="Fill 4 Copy 45" class="cls-1" d="M1382.06,716.847c2.2-1.764-10.18-10.334-10.69-11.109,0.69,0.165,7.51,2.552,8.8,2.822,4.41,0.923,4.68-.612,4.64-0.992-0.14-.838-2.38-1.695-12.2-6.139-4.51-2.064-6.96-2.974-7.8-2.334-0.79.621-.41,2.5,0.55,6.3,1.57,6.256,6.04,11.344,7.94,12.191,1.94,0.88-4.04-8.972-3.98-10.251C1369.84,708.214,1379.95,718.446,1382.06,716.847Z" transform="translate(-603.5 -656.25)"/>
  <path id="Fill_1_Copy_46" data-name="Fill 1 Copy 46" class="cls-1" d="M1421.3,697.947c-1.93-.78-8.83-0.38-14.66,2.973-3.55,2.039-5.23,3.116-5.17,4.137,0.08,1.075,2.43,2.2,7.05,4.009,10.03,3.966,12.2,4.985,12.93,4.483,0.31-.245,1.3-1.544-2.38-4.1-1.08-.748-7.51-4-8.11-4.388,0.94-.182,15.84,2.68,15.7-0.193-0.21-2.692-14.84-2.7-15.86-2.454C1411.73,701.452,1423.28,698.723,1421.3,697.947Z" transform="translate(-603.5 -656.25)"/>
  <path id="Fill_4_Copy_47" data-name="Fill 4 Copy 47" class="cls-1" d="M1441.52,747.09c2.47-1.355-8.23-11.944-8.6-12.8,0.65,0.283,6.95,3.816,8.17,4.307,4.19,1.676,4.72.21,4.75-.171,0.01-.85-2.05-2.083-10.95-8.164-4.09-2.817-6.33-4.137-7.27-3.653-0.89.475-.84,2.387-0.56,6.3,0.46,6.434,3.98,12.221,5.71,13.385,1.75,1.2-2.42-9.536-2.15-10.787C1430.99,736.467,1439.16,748.3,1441.52,747.09Z" transform="translate(-603.5 -656.25)"/>
  <path id="Fill_1_Copy_48" data-name="Fill 1 Copy 48" class="cls-1" d="M1480.75,728.361c-2-.609-8.83.391-14.35,4.239-3.36,2.341-4.94,3.56-4.79,4.573,0.18,1.063,2.61,1.981,7.37,3.379,10.34,3.077,12.59,3.9,13.27,3.338,0.3-.271,1.17-1.651-2.73-3.876-1.14-.651-7.83-3.333-8.45-3.665,0.92-.263,16.01,1.289,15.62-1.56-0.45-2.663-15.02-1.4-16.02-1.062C1471.52,732.687,1482.79,728.962,1480.75,728.361Z" transform="translate(-603.5 -656.25)"/>
  <path id="Fill_4_Copy_49" data-name="Fill 4 Copy 49" class="cls-1" d="M1505.32,774.5c2.34-1.565-9.24-11.182-9.69-12,0.68,0.225,7.26,3.2,8.52,3.578,4.32,1.3,4.72-.2,4.71-0.584-0.06-.847-2.22-1.9-11.61-7.179-4.32-2.449-6.67-3.569-7.57-3-0.84.55-.63,2.451,0,6.327,1.02,6.37,5.03,11.828,6.85,12.837,1.85,1.046-3.25-9.289-3.08-10.559C1493.9,764.838,1503.07,775.911,1505.32,774.5Z" transform="translate(-603.5 -656.25)"/>
  <path id="Fill_4_Copy_50" data-name="Fill 4 Copy 50" class="cls-1" d="M1530.52,800.09c2.47-1.355-8.23-11.944-8.6-12.8,0.65,0.283,6.95,3.817,8.17,4.307,4.19,1.676,4.72.21,4.75-.171,0.01-.85-2.05-2.083-10.95-8.164-4.09-2.817-6.33-4.137-7.27-3.653-0.89.475-.84,2.387-0.56,6.3,0.46,6.434,3.98,12.221,5.71,13.385,1.75,1.2-2.42-9.536-2.15-10.787C1519.99,789.467,1528.16,801.3,1530.52,800.09Z" transform="translate(-603.5 -656.25)"/>
  <path id="Fill_1_Copy_50" data-name="Fill 1 Copy 50" class="cls-1" d="M1553.8,775.579c-1.85-.946-8.76-1.148-14.86,1.684-3.71,1.721-5.48,2.648-5.51,3.671-0.01,1.077,2.22,2.405,6.67,4.608,9.65,4.825,11.72,6.029,12.49,5.592,0.34-.216,1.44-1.424-2.02-4.292-1.01-.838-7.13-4.641-7.68-5.077,0.95-.1,15.54,4.05,15.65,1.175,0.02-2.7-14.55-3.983-15.59-3.826C1543.97,778.237,1555.71,776.525,1553.8,775.579Z" transform="translate(-603.5 -656.25)"/>
</svg>
