<svg id="Bulles" xmlns="http://www.w3.org/2000/svg" width="303.531" height="241.03" viewBox="0 0 303.531 241.03">
  <metadata><?xpacket begin="﻿" id="W5M0MpCehiHzreSzNTczkc9d"?>
<x:xmpmeta xmlns:x="adobe:ns:meta/" x:xmptk="Adobe XMP Core 5.6-c142 79.160924, 2017/07/13-01:06:39        ">
   <rdf:RDF xmlns:rdf="http://www.w3.org/1999/02/22-rdf-syntax-ns#">
      <rdf:Description rdf:about=""/>
   </rdf:RDF>
</x:xmpmeta>
                                                                                                    
                                                                                                    
                                                                                                    
                                                                                                    
                                                                                                    
                                                                                                    
                                                                                                    
                                                                                                    
                                                                                                    
                                                                                                    
                                                                                                    
                                                                                                    
                                                                                                    
                                                                                                    
                                                                                                    
                                                                                                    
                                                                                                    
                                                                                                    
                                                                                                    
                                                                                                    
                           
<?xpacket end="w"?></metadata>
<defs>
    <style>
      .cls-1 {
        fill: #006090;
        fill-rule: evenodd;
      }
    </style>
  </defs>
  <path id="Bulle" class="cls-1" d="M688.341,1671.21s-4.392,1.03-11.7,2.81c-5.453,1.09-10.757,3.53-17.94,3.47-4.316.01-8.653,0.12-13,.28-26.429.97-53.326,4.1-79.338,0.65q-6.5-.87-12.944-2.27c-45.512-5.32-79.05-39.45-89.683-78.86a103.043,103.043,0,0,1-2.678-13.29c-0.623-40.63,3.356-89.43,42.315-116.68a114.693,114.693,0,0,1,11.007-6.44,146.469,146.469,0,0,1,36.553-12.7c4.263-.91,8.571-1.66,12.9-2.28,12.721-1.87,25.923-3.62,39.191-4.54q6.636-.465,13.283-0.66c46.928-8.34,92,14.83,114.537,52.37,2.187,2.84,4.261,5.76,6.171,8.73,21.656,37.91,12.378,84.26-.08,123.68a108.573,108.573,0,0,1-6.74,11.69c-9.981,15.01-23.918,27.45-41.854,34.04" transform="translate(-461 -1438.97)"/>
  <path id="Fill_4" data-name="Fill 4" class="cls-1" d="M748.848,1605.42c-0.068-1.66-.148-3.31-0.2-4.97-0.052-1.6-.07-3.2-0.134-4.8a0.605,0.605,0,0,0-.377-0.41,0.725,0.725,0,0,0-.516.14,0.506,0.506,0,0,0-.107.52,5.849,5.849,0,0,0,.919.63c0.952,4.23,2.139,8.42,2.8,12.72a38.562,38.562,0,0,1-.977,14.48,2.624,2.624,0,0,0,0,.62l-0.086.08,0.042,0.08q-0.236.915-.472,1.83a2.981,2.981,0,0,0-.362.59c-2.672,8.98-8.363,16.96-16.406,24.15a7.48,7.48,0,0,1-1.351.79,2.391,2.391,0,0,1,.248-1.84c1.223-2.16,2.608-4.29,3.726-6.48,2.684-5.26,5.252-10.54,7.867-15.81a57.385,57.385,0,0,0,5.393-22.32" transform="translate(-461 -1438.97)"/>
  <path id="Fill_6" data-name="Fill 6" class="cls-1" d="M764.518,1614.5c-0.1.91-.194,1.83-0.291,2.74-1.27,4.66-2.2,9.36-3.886,13.97a44.274,44.274,0,0,1-17.305,21.98c-0.673.46-1.466,0.82-2.2,1.22l-0.449-.3c1.375-1.93,2.782-3.86,4.119-5.81q5.172-7.53,10.3-15.09c2.269-4.16,4.59-8.32,6.788-12.49,1.076-2.04,1.924-4.13,2.876-6.19Z" transform="translate(-461 -1438.97)"/>
</svg>
