<svg id="Bulle" xmlns="http://www.w3.org/2000/svg" width="320" height="413.125" viewBox="0 0 320 413.125">
  <defs>
    <style>
      .cls-1 {
        fill-opacity: 0;
      }

      .cls-1, .cls-2 {
        fill-rule: evenodd;
      }

      .cls-2 {
        fill: #fefefd;
      }
    </style>
  </defs>
  <path id="Clip_2" data-name="Clip 2" class="cls-1" d="M-41,65.179l391.827-27.4L377.8,423.519l-391.827,27.4Z" transform="translate(0 -37.781)"/>
  <g id="Mask_by_Clip_2" data-name="Mask by Clip 2">
    <path id="Fill_1" data-name="Fill 1" class="cls-2" d="M10.508,220.512a78.107,78.107,0,0,1,1.085-23.5c1.391-6.559,3.612-12.852,7.713-18.383-1.039,3.407-2.133,6.8-3.109,10.223-4.36,15.315-3.925,30.8-1.279,46.273,1.352,7.914,3.286,15.74,4.957,23.6-1.322-3.481-2.6-7-3.731-10.563a130.462,130.462,0,0,1-5.636-27.652M25.727,253.6c-4.128-10.17-7.075-20.615-7.362-31.571-0.2-7.763.871-15.331,5.031-22.287-6.275,21.446-1.157,41.852,6.124,62.115-1.271-2.749-2.656-5.458-3.793-8.257M3.316,194.194c-0.591,8.5-.834,17.028-1.23,25.543q0.282,3.932.564,7.864,0.047,0.435.092,0.871l0.612,3.439a0.231,0.231,0,0,1,.043.307q1.348,5.415,2.7,10.827l0.129,0.661,0.689,2.22,0,0.021L7.666,248.4l0.013,0.033L8.291,249.9,8.4,250.47l2.745,6.644,0.1,0.344,0.474,1.046-0.037-.035,0.24,0.44,0.274,0.633,0.484,1.176a0.131,0.131,0,0,1,.092.2l0.523,0.892c2.747,4.915,5.131,10.051,8.306,14.7,9.637,14.125,21.555,26.227,36.566,35.4a103.809,103.809,0,0,0,19.741,9.547,6.189,6.189,0,0,1,.948.533l2.067,0.733q0.273,0.061.546,0.126c0.155,0.076.311,0.154,0.466,0.232l-0.029-.038,6.713,1.969,7.5,1.639q10.573,1.94,21.147,3.884l29.347,2.03,2.648,0.036q12.811-.329,25.626-0.655c14.946-.355,29.9-0.523,44.834-1.144,4.3-.179,8.565-1.512,12.808-2.486a53.458,53.458,0,0,1-.629,12.261,7.556,7.556,0,0,1-.47,2.192,5.966,5.966,0,0,1-.378,1.988c-1.382,4.65-2.833,9.282-4.29,13.911-0.337,1.071-.785,2.11-1.308,3.5,1.2-.314,1.965-0.457,2.688-0.714a47.234,47.234,0,0,0,14.514-8.35c8.115-6.785,19.1-18.853,21.227-35.067,4.755-3.439,9.673-6.7,14.215-10.375,3.449-2.792,6.421-6.116,9.606-9.2,0.16-.247.313-0.5,0.483-0.739q6.151-8.69,12.309-17.376c2.978-4.2,4.082-9.113,5.86-13.771,1.19-4.175,2.372-8.353,3.575-12.525,0.379-1.313.811-2.611,1.219-3.916l1.623-6.372q1.267-5.9,2.533-11.788,0.372-1.835.746-3.667a0.168,0.168,0,0,1,.061-0.255q0.414-2.989.829-5.98,0.841-5.984,1.687-11.964,0.238-12.827.476-25.653c-0.09-.587-0.215-1.171-0.263-1.761a117.34,117.34,0,0,0-6.705-31.354c-1.121-3.016-2.4-5.98-3.6-8.968,0,0-.03-0.125-0.029-0.123q-3.317-5.54-6.634-11.082l0.008,0.007-0.556-.7c-1.951-2.987-3.895-5.978-5.857-8.959a122.581,122.581,0,0,0-38.4-37.212,119.484,119.484,0,0,0-77.959-17.127c-5.276.641-10.638,0.629-15.954,1.01-8.324.6-16.66,1.119-24.958,1.964-8.734.89-17.427,2.127-26.14,3.2a11.63,11.63,0,0,1-1.316.017l-4.166.716-0.109.01L94.246,76.736c-4.156,1.257-8.4,2.312-12.449,3.818-6.09,2.262-12.049,4.841-18.064,7.283-0.4.16-.8,0.3-1.2,0.446l-2.722,1.38L57.219,91.1l-3.452,2.051-0.421.272-0.363.269c-1.618.918-3.291,1.762-4.836,2.78a24.15,24.15,0,0,0-2.667,2.343l-0.032.01-0.357.319-8.909,8.031c-3.106,3.791-6.246,7.558-9.3,11.386-1.239,1.554-2.289,3.245-3.425,4.872l-7.893,15.206,0,0.013Q13.6,143.8,11.631,148.93c-1.142,4.262-2.355,8.507-3.412,12.788a190.479,190.479,0,0,0-4.9,32.476" transform="translate(0 -37.781)"/>
  </g>
</svg>
