<svg id="Bulles" xmlns="http://www.w3.org/2000/svg" width="505.69" height="331.157" viewBox="0 0 505.69 331.157">
  <metadata><?xpacket begin="﻿" id="W5M0MpCehiHzreSzNTczkc9d"?>
<x:xmpmeta xmlns:x="adobe:ns:meta/" x:xmptk="Adobe XMP Core 5.6-c142 79.160924, 2017/07/13-01:06:39        ">
   <rdf:RDF xmlns:rdf="http://www.w3.org/1999/02/22-rdf-syntax-ns#">
      <rdf:Description rdf:about=""/>
   </rdf:RDF>
</x:xmpmeta>
                                                                                                    
                                                                                                    
                                                                                                    
                                                                                                    
                                                                                                    
                                                                                                    
                                                                                                    
                                                                                                    
                                                                                                    
                                                                                                    
                                                                                                    
                                                                                                    
                                                                                                    
                                                                                                    
                                                                                                    
                                                                                                    
                                                                                                    
                                                                                                    
                                                                                                    
                                                                                                    
                           
<?xpacket end="w"?></metadata>
<defs>
    <style>
      .cls-1 {
        fill: #fff;
      }

      .cls-1, .cls-2, .cls-3 {
        fill-rule: evenodd;
      }

      .cls-2 {
        fill: #fefefd;
      }

      .cls-3 {
        fill: #eb5322;
      }
    </style>
  </defs>
  <path id="Bulle" class="cls-1" d="M1314.43,498.1s-6.04,1.409-16.09,3.856c-7.5,1.5-14.8,4.858-24.68,4.763-5.94.023-11.9,0.166-17.88,0.387-36.36,1.343-73.35,5.635-109.13.895q-8.955-1.187-17.81-3.118c-62.6-7.314-108.73-54.211-123.36-108.359a142.824,142.824,0,0,1-3.68-18.27c-0.86-55.834,4.62-122.893,58.2-160.333a158.378,158.378,0,0,1,15.14-8.86,201.9,201.9,0,0,1,50.28-17.444q8.8-1.876,17.75-3.135c17.5-2.564,35.66-4.969,53.91-6.239q9.12-.637,18.27-0.91c64.55-11.462,126.54,20.386,157.54,71.963,3.01,3.913,5.86,7.917,8.49,12,29.79,52.093,17.03,115.791-.11,169.957a148.607,148.607,0,0,1-9.27,16.065c-13.73,20.631-32.9,37.729-57.57,46.783" transform="translate(-913 -179.031)"/>
  <path id="Fill_4" data-name="Fill 4" class="cls-2" d="M1400.46,408.381c-0.09-2.315-.2-4.627-0.28-6.943-0.07-2.236-.09-4.478-0.18-6.71a0.841,0.841,0,0,0-.53-0.566,0.955,0.955,0,0,0-.72.186,0.722,0.722,0,0,0-.15.738,7.587,7.587,0,0,0,1.29.868c1.33,5.921,2.99,11.779,3.9,17.78,1.01,6.612.2,13.428-1.38,20.251a3.118,3.118,0,0,0,0,.863l-0.12.106,0.05,0.117-0.66,2.565a4.362,4.362,0,0,0-.51.817c-3.76,12.557-11.75,23.719-23.03,33.788a11.138,11.138,0,0,1-1.9,1.1,3.368,3.368,0,0,1,.35-2.571c1.72-3.029,3.67-6.006,5.24-9.066,3.77-7.352,7.37-14.739,11.05-22.112a80.027,80.027,0,0,0,7.58-31.213" transform="translate(-913 -179.031)"/>
  <path id="Fill_6_Copy" data-name="Fill 6 Copy" class="cls-3" d="M1039.97,397.32c0.12,1.254.24,2.51,0.37,3.765,1.65,6.38,2.85,12.809,5.05,19.131a59.361,59.361,0,0,0,22.89,29.99c0.9,0.624,1.95,1.1,2.93,1.652,0.2-.14.4-0.278,0.6-0.416-1.81-2.644-3.67-5.274-5.44-7.934-4.56-6.862-9.07-13.736-13.6-20.606-2.99-5.69-6.05-11.367-8.95-17.077-1.41-2.789-2.53-5.642-3.78-8.467Z" transform="translate(-913 -179.031)"/>
  <path id="Fill_4_Copy" data-name="Fill 4 Copy" class="cls-3" d="M1028.61,385.7c0.09-2.314.2-4.626,0.28-6.943,0.07-2.235.09-4.477,0.18-6.71a0.843,0.843,0,0,1,.53-0.566,0.96,0.96,0,0,1,.72.187,0.721,0.721,0,0,1,.15.738,7.646,7.646,0,0,1-1.29.868c-1.33,5.921-2.99,11.778-3.9,17.78-1.01,6.612-.2,13.428,1.38,20.251a3.111,3.111,0,0,1,0,.862l0.13,0.106-0.06.118,0.66,2.564a4.369,4.369,0,0,1,.51.818c3.76,12.557,11.75,23.719,23.03,33.787a11.141,11.141,0,0,0,1.9,1.1,3.368,3.368,0,0,0-.35-2.571c-1.72-3.029-3.67-6.006-5.23-9.066-3.77-7.353-7.38-14.739-11.06-22.112a80.036,80.036,0,0,1-7.58-31.214" transform="translate(-913 -179.031)"/>
  <path id="Fill_6" data-name="Fill 6" class="cls-2" d="M1418.68,420l-0.36,3.766c-1.65,6.38-2.85,12.808-5.05,19.13a59.438,59.438,0,0,1-22.9,29.99c-0.89.624-1.95,1.1-2.93,1.652l-0.6-.416c1.82-2.644,3.68-5.274,5.44-7.934q6.84-10.293,13.61-20.6c2.99-5.691,6.05-11.368,8.94-17.078,1.42-2.789,2.53-5.642,3.78-8.467Z" transform="translate(-913 -179.031)"/>
  <path id="Path_2" data-name="Path 2" class="cls-1" d="M1014.71,321C985.923,378.55,913.284,361.912,913,361.767c42.258,42.361,95.96,27.35,95.96,27.35S1015.76,331.615,1014.71,321Z" transform="translate(-913 -179.031)"/>
</svg>
