<svg id="Bulle" xmlns="http://www.w3.org/2000/svg" width="351.59" height="232" viewBox="0 0 351.59 232">
  <metadata><?xpacket begin="﻿" id="W5M0MpCehiHzreSzNTczkc9d"?>
<x:xmpmeta xmlns:x="adobe:ns:meta/" x:xmptk="Adobe XMP Core 5.6-c142 79.160924, 2017/07/13-01:06:39        ">
   <rdf:RDF xmlns:rdf="http://www.w3.org/1999/02/22-rdf-syntax-ns#">
      <rdf:Description rdf:about=""/>
   </rdf:RDF>
</x:xmpmeta>
                                                                                                    
                                                                                                    
                                                                                                    
                                                                                                    
                                                                                                    
                                                                                                    
                                                                                                    
                                                                                                    
                                                                                                    
                                                                                                    
                                                                                                    
                                                                                                    
                                                                                                    
                                                                                                    
                                                                                                    
                                                                                                    
                                                                                                    
                                                                                                    
                                                                                                    
                                                                                                    
                           
<?xpacket end="w"?></metadata>
<defs>
    <style>
      .cls-1 {
        fill: #fcc300;
        fill-rule: evenodd;
      }
    </style>
  </defs>
  <path id="Bulle-2" data-name="Bulle" class="cls-1" d="M1044.95,1666.54s-5.06.99-13.48,2.7c-6.28,1.06-12.39,3.41-20.67,3.34-4.97.02-9.97,0.12-14.981,0.27-30.452.94-61.444,3.95-91.417,0.63-5-.56-9.962-1.28-14.915-2.19-52.441-5.12-91.085-37.97-103.337-75.91a85.4,85.4,0,0,1-3.086-12.8c-0.717-39.11,3.868-86.09,48.758-112.31a139.086,139.086,0,0,1,12.683-6.21,192.149,192.149,0,0,1,42.117-12.22c4.913-.88,9.877-1.6,14.867-2.2,14.658-1.79,29.87-3.48,45.158-4.37q7.645-.45,15.306-0.64c54.077-8.03,106.007,14.29,131.977,50.42,2.52,2.74,4.91,5.54,7.11,8.4,24.95,36.5,14.26,81.12-.09,119.06a102.623,102.623,0,0,1-7.77,11.26,97.632,97.632,0,0,1-48.23,32.77" transform="translate(-783 -1443)"/>
  <path id="Fill_4" data-name="Fill 4" class="cls-1" d="M1117.66,1602.27c0.01-1.57.01-3.15,0.03-4.73,0.03-1.52.09-3.05,0.1-4.57a0.554,0.554,0,0,0-.41-0.37,0.971,0.971,0,0,0-.6.16,0.478,0.478,0,0,0-.16.51,6.644,6.644,0,0,0,1.03.54c0.88,3.99,2.02,7.93,2.55,11.99,0.59,4.48-.33,9.16-1.89,13.88a2.339,2.339,0,0,0-.03.59l-0.11.08,0.05,0.07c-0.22.6-.43,1.19-0.64,1.78a2.6,2.6,0,0,0-.45.58c-3.56,8.71-10.55,16.62-20.2,23.92a11.966,11.966,0,0,1-1.6.82,2.014,2.014,0,0,1,.38-1.77c1.52-2.13,3.23-4.23,4.64-6.38,3.37-5.16,6.62-10.34,9.91-15.51,4.24-7.21,6.78-14.41,7.4-21.59" transform="translate(-783 -1443)"/>
  <path id="Fill_6" data-name="Fill 6" class="cls-1" d="M1134.58,1611l-0.42,2.7c-1.58,4.6-2.79,9.23-4.82,13.81-3.65,8.2-9.8,15.79-20.03,22.12-0.77.47-1.66,0.85-2.5,1.27-0.16-.09-0.32-0.18-0.48-0.28,1.59-1.94,3.23-3.88,4.78-5.83,4.02-5.04,8-10.09,12-15.13,2.67-4.16,5.4-8.3,7.99-12.47,1.27-2.04,2.29-4.11,3.42-6.16Z" transform="translate(-783 -1443)"/>
</svg>
