<svg id="Bulles" xmlns="http://www.w3.org/2000/svg" width="303.62" height="243.25" viewBox="0 0 303.62 243.25">
  <metadata><?xpacket begin="﻿" id="W5M0MpCehiHzreSzNTczkc9d"?>
<x:xmpmeta xmlns:x="adobe:ns:meta/" x:xmptk="Adobe XMP Core 5.6-c142 79.160924, 2017/07/13-01:06:39        ">
   <rdf:RDF xmlns:rdf="http://www.w3.org/1999/02/22-rdf-syntax-ns#">
      <rdf:Description rdf:about=""/>
   </rdf:RDF>
</x:xmpmeta>
                                                                                                    
                                                                                                    
                                                                                                    
                                                                                                    
                                                                                                    
                                                                                                    
                                                                                                    
                                                                                                    
                                                                                                    
                                                                                                    
                                                                                                    
                                                                                                    
                                                                                                    
                                                                                                    
                                                                                                    
                                                                                                    
                                                                                                    
                                                                                                    
                                                                                                    
                                                                                                    
                           
<?xpacket end="w"?></metadata>
<defs>
    <style>
      .cls-1 {
        fill: #882973;
        fill-rule: evenodd;
      }
    </style>
  </defs>
  <path id="Bulle" class="cls-1" d="M1236.43,1442.08s4.51-.65,12.02-1.8c5.59-.63,11.14-2.62,18.37-1.92,4.34,0.36,8.72.64,13.11,0.86,26.69,1.34,54.03.56,79.91,6.33q6.465,1.44,12.83,3.43c45.34,9.38,76.09,46.75,83.31,87.43a102.892,102.892,0,0,1,1.52,13.65c-2.95,41.03-11.27,89.9-52.88,113.95a114.91,114.91,0,0,1-11.65,5.53,147.88,147.88,0,0,1-37.91,9.59c-4.37.54-8.78,0.92-13.19,1.16-12.97.76-26.41,1.37-39.85,1.13q-6.72-.12-13.43-0.5c-47.97,4.28-91.29-23.07-110.66-62.91-1.95-3.06-3.78-6.18-5.44-9.35-18.45-40.14-5.03-86.07,10.99-124.73a110.614,110.614,0,0,1,7.82-11.2c11.37-14.26,26.5-25.59,45.13-30.65" transform="translate(-1153.88 -1438.22)"/>
  <path id="Fill_4" data-name="Fill 4" class="cls-1" d="M1168.71,1503.09c-0.08,1.66-.14,3.31-0.23,4.97-0.09,1.6-.21,3.2-0.29,4.79a0.588,0.588,0,0,0,.34.44,0.665,0.665,0,0,0,.53-0.09,0.523,0.523,0,0,0,.15-0.51,5.462,5.462,0,0,0-.86-0.7c-0.58-4.31-1.4-8.59-1.68-12.92a38.514,38.514,0,0,1,2.24-14.34,2.556,2.556,0,0,0,.05-0.62l0.09-.07-0.03-.08c0.21-.6.42-1.19,0.63-1.79a2.908,2.908,0,0,0,.41-0.55c3.45-8.71,9.81-16.17,18.45-22.64a8.745,8.745,0,0,1,1.41-.66,2.418,2.418,0,0,1-.4,1.81c-1.41,2.05-2.98,4.05-4.28,6.13-3.13,5-6.15,10.04-9.22,15.07a57.434,57.434,0,0,0-7.31,21.76" transform="translate(-1153.88 -1438.22)"/>
  <path id="Fill_6" data-name="Fill 6" class="cls-1" d="M1153.89,1492.68c0.17-.9.35-1.81,0.53-2.71,1.67-4.53,3.01-9.12,5.09-13.58a44.329,44.329,0,0,1,19.15-20.39c0.71-.39,1.53-0.68,2.3-1.02,0.14,0.12.28,0.23,0.42,0.34-1.54,1.81-3.11,3.61-4.61,5.43q-5.8,7.065-11.57,14.14c-2.63,3.95-5.3,7.88-7.85,11.85-1.25,1.94-2.28,3.94-3.41,5.92Z" transform="translate(-1153.88 -1438.22)"/>
</svg>
