<svg id="Pret-à_Cuir" data-name="Pret-à Cuir" xmlns="http://www.w3.org/2000/svg" width="68.094" height="59.37" viewBox="0 0 68.094 59.37">
  <metadata><?xpacket begin="﻿" id="W5M0MpCehiHzreSzNTczkc9d"?>
<x:xmpmeta xmlns:x="adobe:ns:meta/" x:xmptk="Adobe XMP Core 5.6-c142 79.160924, 2017/07/13-01:06:39        ">
   <rdf:RDF xmlns:rdf="http://www.w3.org/1999/02/22-rdf-syntax-ns#">
      <rdf:Description rdf:about=""/>
   </rdf:RDF>
</x:xmpmeta>
                                                                                                    
                                                                                                    
                                                                                                    
                                                                                                    
                                                                                                    
                                                                                                    
                                                                                                    
                                                                                                    
                                                                                                    
                                                                                                    
                                                                                                    
                                                                                                    
                                                                                                    
                                                                                                    
                                                                                                    
                                                                                                    
                                                                                                    
                                                                                                    
                                                                                                    
                                                                                                    
                           
<?xpacket end="w"?></metadata>
<defs>
    <style>
      .cls-1 {
        fill: #fefefe;
      }

      .cls-1, .cls-2, .cls-3 {
        fill-rule: evenodd;
      }

      .cls-2 {
        fill-opacity: 0;
      }

      .cls-3 {
        fill: #030000;
      }
    </style>
  </defs>
  <path id="Fill_1" data-name="Fill 1" class="cls-1" d="M103.817,1637.97a0.171,0.171,0,0,1,.159.09,0.206,0.206,0,0,1-.009.21,2.414,2.414,0,0,1-1.88.73c-0.949,0-2.407-.42-3.9-2.48a0.449,0.449,0,0,1-.165-0.43l0.038-.08,0.111-.01a3.1,3.1,0,0,1,.943.52c0.992,0.65,2.65,1.74,3.737,1.74a0.977,0.977,0,0,0,.525-0.13,1.19,1.19,0,0,1,.446-0.16" transform="translate(-65 -1610.63)"/>
  <path id="Fill_3" data-name="Fill 3" class="cls-1" d="M102.845,1635.66c-2.352,1.47-4.675-2.29-8.377-2.94a0.143,0.143,0,0,1,.016.02c-5.616.1-9.025,5.05-12.912,2.15s0.662-5.89.662-5.89c1.785,5.57,9.871.08,12.221,3.7,1.832-2.57,8.1.66,8.768-2.58,0,0,1.98,4.07-.377,5.54" transform="translate(-65 -1610.63)"/>
  <g>
    <path id="Clip_6" data-name="Clip 6" class="cls-2" d="M65,1633.8H97.21V1670H65v-36.2Z" transform="translate(-65 -1610.63)"/>
    <g id="Mask_by_Clip_6" data-name="Mask by Clip 6">
      <path id="Fill_5" data-name="Fill 5" class="cls-1" d="M73.448,1652.65a0.061,0.061,0,0,0,0,.08l0.148,0.18a11.188,11.188,0,0,0,4.346,3.03,6.861,6.861,0,0,0,2.362.43,6.315,6.315,0,0,0,1.874-.28l0.15-.05a0.052,0.052,0,0,0,.046-0.06,0.07,0.07,0,0,0-.058-0.06H82.15a13.372,13.372,0,0,1-4.122-.65,16.923,16.923,0,0,1-4.314-2.49l-0.184-.14a0.082,0.082,0,0,0-.082.01m2.4-1.6a0.058,0.058,0,0,0-.006.08l0.146,0.17a11.346,11.346,0,0,0,4.352,3.05,7.352,7.352,0,0,0,2.364.42,6.619,6.619,0,0,0,1.87-.28l0.156-.05a0.067,0.067,0,0,0,.04-0.07,0.069,0.069,0,0,0-.058-0.05l-0.16-.01a13.172,13.172,0,0,1-4.126-.64,17.121,17.121,0,0,1-4.312-2.49l-0.182-.14a0.085,0.085,0,0,0-.084.01m1.964-.5a0.065,0.065,0,0,0-.08.03,0.064,0.064,0,0,0,.01.08l0.17,0.13a11.633,11.633,0,0,0,2.9,1.54,8.689,8.689,0,0,0,2.894.53,6.52,6.52,0,0,0,3.256-.85l0.14-.08a0.053,0.053,0,0,0,.026-0.07,0.057,0.057,0,0,0-.07-0.04l-0.162.03a17.077,17.077,0,0,1-3.02.35,11.367,11.367,0,0,1-3.92-.77c-0.584-.2-1.22-0.46-1.944-0.78l-0.2-.1m2.176-.79a0.058,0.058,0,0,0-.072.04,0.068,0.068,0,0,0,.036.08l0.22,0.08a10.249,10.249,0,0,0,1.5.45,10.921,10.921,0,0,0,2.376.27,6.967,6.967,0,0,0,5.138-1.98l0.114-.11a0.076,0.076,0,0,0,.01-0.08,0.071,0.071,0,0,0-.086-0.02l-0.144.07a11.4,11.4,0,0,1-5.618,1.51,22.239,22.239,0,0,1-3.254-.28l-0.22-.03m-7.708-15.96s9.732,9.41,17.76,4.18c3.308-2.15,6.616-1.17,7.168.57a17.855,17.855,0,0,0-3.226-.29,3.775,3.775,0,0,0-.812.11,2.173,2.173,0,0,0-.8.32,3.059,3.059,0,0,0-1.016,1.29,13.184,13.184,0,0,0-.786,2.91,27.082,27.082,0,0,0-.276,2.86c-0.086,1.86-.036,3.6.034,5.08,0.078,1.45.448,2.66,0.532,3.52a19.71,19.71,0,0,1-6.05,4.11l1.8,9.43a23.621,23.621,0,0,1,5.26-.56c4.748-.03,4.974,1.66,4.974,1.66a41.438,41.438,0,0,0-4.348-.63c2.828,0.69,2.416,1.36,2.416,1.36l-9.72-1.28-1.21-8.79-0.256-.84a7.373,7.373,0,0,1-3.014.21,11.021,11.021,0,0,1-1.518-.33l0.156,0.09-0.8,1.73-1.724,7.11h0l-0.074.31-7.9,2.07s-0.842-.97,1.334-1.44c1.636-.35,1.068-0.26,1.84-0.42-3.282.34-6.99,0.81-6.99,0.81s-0.828-1.54,5.75-1.98a15.931,15.931,0,0,1,4.464.39l2.938-9a15.107,15.107,0,0,1-7.44-6.18c-3.868-6.65,1.536-18.38,1.536-18.38" transform="translate(-65 -1610.63)"/>
    </g>
  </g>
  <path id="Fill_8" data-name="Fill 8" class="cls-1" d="M84.324,1638.48a1.74,1.74,0,0,1,.354-0.04,0.311,0.311,0,0,1,.286.11L85,1638.61l-0.036.09a1.755,1.755,0,0,1-1.189.3c-0.928,0-3.243-.34-4.679-3.52a0.48,0.48,0,0,1-.074-0.41l0.038-.06,0.087-.01a2.412,2.412,0,0,1,.905.75c1.108,1.07,2.986,2.91,4.272,2.73" transform="translate(-65 -1610.63)"/>
  <g>
    <path id="Clip_11" data-name="Clip 11" class="cls-2" d="M84.878,1610.64h17.436v20.32H84.878v-20.32Z" transform="translate(-65 -1610.63)"/>
    <g id="Mask_by_Clip_11" data-name="Mask by Clip 11">
      <path id="Fill_10" data-name="Fill 10" class="cls-1" d="M98.387,1620.34a15.031,15.031,0,0,0-.6-6.31,0.062,0.062,0,0,0-.078-0.03l-0.048.02a0.06,0.06,0,0,0-.04.08c0.608,2.03-.148,12.53-0.178,12.98a0.055,0.055,0,0,0,.054.06l0.048,0.01h0.012a0.061,0.061,0,0,0,.062-0.05c0.006-.02.454-2.53,0.764-6.76m-1.744-.04a14,14,0,0,0-.708-6.67l-0.1-.18a0.064,0.064,0,0,0-.08-0.03,0.058,0.058,0,0,0-.036.07l0.052,0.2c0.508,2.16-.434,13.55-0.442,13.66l-0.018.24a0.066,0.066,0,0,0,.05.07h0a0.059,0.059,0,0,0,.062-0.05l0.072-.23a37.48,37.48,0,0,0,1.142-7.08m-2.594,7.38a50.7,50.7,0,0,0,.426-7.21,15.743,15.743,0,0,0-1.036-5.76,10.142,10.142,0,0,0-1.042-2.07,0.044,0.044,0,0,0-.042-0.03,0.1,0.1,0,0,0-.054.01l-0.04.03a0.072,0.072,0,0,0-.014.09c0.87,1.29,1.264,5.28,1.442,8.4,0.186,3.22.18,6.2,0.18,6.54a0.063,0.063,0,0,0,.058.06h0.056a0.076,0.076,0,0,0,.066-0.06m-5.75-17.04c3,0.05,7.554-.01,11.568.14s2.314,3.44.37,4.15l-0.6,15.87a10.341,10.341,0,0,0-5.434-1.04,19.73,19.73,0,0,0-6.442,1.2s-0.222-6.72-.2-9.6-0.416-7.37-2.01-7.4-0.252-3.37,2.746-3.32" transform="translate(-65 -1610.63)"/>
    </g>
  </g>
  <path id="Fill_13" data-name="Fill 13" class="cls-1" d="M93.272,1642.09a0.784,0.784,0,0,0,.747-0.7,0.822,0.822,0,0,0-.633-0.94,0.771,0.771,0,0,0-.867.69,0.812,0.812,0,0,0,.635.94,0.462,0.462,0,0,0,.118.01m-0.462,3.22a0.781,0.781,0,0,0,.743-0.7,0.828,0.828,0,0,0-.635-0.95,0.779,0.779,0,0,0-.863.69,0.821,0.821,0,0,0,.635.95c0.04,0,.08.01,0.12,0.01m-0.226,3.37a0.775,0.775,0,0,0,.732-0.69,0.815,0.815,0,0,0-.625-0.93,0.765,0.765,0,0,0-.847.68,0.8,0.8,0,0,0,.625.93,0.462,0.462,0,0,0,.116.01m-0.158,3.03a0.737,0.737,0,0,0,.713-0.71,0.771,0.771,0,0,0-.652-0.86,0.736,0.736,0,0,0-.783.71,0.769,0.769,0,0,0,.654.86h0.068m0.656-12.45a2.617,2.617,0,0,1,1.233-.26,9.3,9.3,0,0,1,2.552.44,19.585,19.585,0,0,1-3.732,13.51A24.508,24.508,0,0,1,91.4,1655a22.511,22.511,0,0,1-.357-3.37c-0.049-1.58-.078-3.43.023-5.4,0.057-.99.137-2,0.291-3.02a8.941,8.941,0,0,1,.846-2.93,2.594,2.594,0,0,1,.878-1.02" transform="translate(-65 -1610.63)"/>
  <path id="Fill_15" data-name="Fill 15" class="cls-1" d="M97,1651.4a1.192,1.192,0,0,1,1.376-1.37c1.478,0.24,14.439,2.22,14.439,2.22l1.033,1.8L115,1655l-10.017-2.12L97,1651.4" transform="translate(-65 -1610.63)"/>
  <path id="Fill_17" data-name="Fill 17" class="cls-3" d="M109.969,1654.03a12.837,12.837,0,0,0-1.639-1.89,2.968,2.968,0,0,0-3.628-.12,3.707,3.707,0,0,1-1.306-.28,5.6,5.6,0,0,0-1.407.05c-1.391.18-1.236-.64-2.666-0.78-1-.1-1.042.94-1.246,1.41-0.231.54,0.014,1.18,1.325,1.28a1.182,1.182,0,0,0,1.323-.58c-0.107.57,0.281,1.33,1.665,1.34a1.059,1.059,0,0,0,1.228-.53c0.336,0.73.7,1.2,2.1,0.92a1.193,1.193,0,0,0,.842-1.28,1.946,1.946,0,0,0,1.994,1.43c1.137,0.05,1.574-.39,1.417-0.97" transform="translate(-65 -1610.63)"/>
  <path id="Fill_19" data-name="Fill 19" class="cls-1" d="M109.968,1654.03a13.31,13.31,0,0,0-1.641-1.89,2.965,2.965,0,0,0-3.627-.12,3.7,3.7,0,0,1-1.305-.28,5.626,5.626,0,0,0-1.41.05c-1.389.17-1.233-.64-2.664-0.78-1-.1-1.044.94-1.244,1.41-0.229.54,0.012,1.18,1.323,1.28a1.187,1.187,0,0,0,1.325-.58c-0.109.57,0.279,1.33,1.661,1.34a1.063,1.063,0,0,0,1.232-.53c0.338,0.74.694,1.2,2.1,0.92a1.187,1.187,0,0,0,.843-1.28,1.947,1.947,0,0,0,1.993,1.43c1.135,0.05,1.578-.39,1.418-0.97" transform="translate(-65 -1610.63)"/>
  <g>
    <path id="Clip_22" data-name="Clip 22" class="cls-2" d="M110.707,1651.29h22.371v7.39H110.707v-7.39Z" transform="translate(-65 -1610.63)"/>
    <g id="Mask_by_Clip_22" data-name="Mask by Clip 22">
      <path id="Fill_21" data-name="Fill 21" class="cls-1" d="M122.961,1657.49a8.907,8.907,0,0,0,7.546-1.46c-1.812,1.11-3.934.9-7.546,1.46h0Zm5.742-2.3c-1.44.84-3.3,0.78-6.366,1.32a8.556,8.556,0,0,0,6.366-1.32h0Zm4.376-1.64s-2.49,5.17-4.226,5.13c-3.692-.09-13.834-1.19-15.518-1.55s-2.628-5.84-2.628-5.84Z" transform="translate(-65 -1610.63)"/>
    </g>
  </g>
  <path id="Fill_24" data-name="Fill 24" class="cls-1" d="M119.945,1640.89a0.586,0.586,0,0,0-.22-0.71,0.472,0.472,0,0,0-.669-0.07,0.57,0.57,0,0,0,.219.7,0.467,0.467,0,0,0,.67.08" transform="translate(-65 -1610.63)"/>
  <path id="Fill_26" data-name="Fill 26" class="cls-1" d="M120.816,1644.69a0.433,0.433,0,0,0-.188-0.55,0.454,0.454,0,0,0-.582-0.06,0.446,0.446,0,0,0,.19.56,0.436,0.436,0,0,0,.58.05" transform="translate(-65 -1610.63)"/>
  <path id="Fill_28" data-name="Fill 28" class="cls-1" d="M123.575,1642.54a0.344,0.344,0,0,0-.012-0.48,0.335,0.335,0,0,0-.468.1,0.324,0.324,0,0,0,.01.47,0.345,0.345,0,0,0,.47-0.09" transform="translate(-65 -1610.63)"/>
  <path id="Fill_30" data-name="Fill 30" class="cls-1" d="M118.573,1642.54a0.345,0.345,0,0,0-.012-0.48,0.375,0.375,0,0,0-.456.58,0.356,0.356,0,0,0,.468-0.1" transform="translate(-65 -1610.63)"/>
  <path id="Fill_32" data-name="Fill 32" class="cls-1" d="M121.572,1649.53a0.329,0.329,0,0,0-.012-0.47,0.345,0.345,0,0,0-.47.09,0.34,0.34,0,0,0,.016.48,0.325,0.325,0,0,0,.466-0.1" transform="translate(-65 -1610.63)"/>
  <path id="Fill_34" data-name="Fill 34" class="cls-1" d="M120.865,1652.5a0.459,0.459,0,0,0-.852-0.27,0.42,0.42,0,0,0,.316.48,0.414,0.414,0,0,0,.536-0.21" transform="translate(-65 -1610.63)"/>
  <path id="Fill_36" data-name="Fill 36" class="cls-1" d="M122.435,1653.25a0.209,0.209,0,0,0-.162-0.24,0.2,0.2,0,0,0-.266.11,0.2,0.2,0,0,0,.16.23,0.206,0.206,0,0,0,.268-0.1" transform="translate(-65 -1610.63)"/>
  <path id="Fill_38" data-name="Fill 38" class="cls-1" d="M119.619,1655.52a0.39,0.39,0,0,0-.166-0.51,0.4,0.4,0,0,0-.426.32,0.392,0.392,0,0,0,.166.51,0.385,0.385,0,0,0,.426-0.32" transform="translate(-65 -1610.63)"/>
  <path id="Fill_40" data-name="Fill 40" class="cls-1" d="M109,1635.3s0.08,2.31,4.931,3.66c1.991,0.56,3.228,1.55,4.448.73,1.171-.79.354-1.29-1.31-1.86s-2.049-1.65-1.258-1.77a4.791,4.791,0,0,1,3.3,2.15,0.963,0.963,0,0,0,1.889-.34c-0.086-1.2-2.212-4.48-4.832-4.83A11.509,11.509,0,0,0,109,1635.3" transform="translate(-65 -1610.63)"/>
  <path id="Fill_42" data-name="Fill 42" class="cls-1" d="M115,1633.21a8.337,8.337,0,0,1,1.183-.18,8.964,8.964,0,0,1,4.614,1.16c1.187,0.8,1.454,1.47.983,2.41s-1.761-.07-1.761-0.07Z" transform="translate(-65 -1610.63)"/>
  <path id="Fill_44" data-name="Fill 44" class="cls-1" d="M115,1635a7.04,7.04,0,0,1,.622-0.82,7.771,7.771,0,0,1,3.45-2.09c1.15-.24,1.681,0,1.9.86,0.222,0.84-1.112,1.01-1.112,1.01Z" transform="translate(-65 -1610.63)"/>
  <path id="Fill_46" data-name="Fill 46" class="cls-1" d="M114.129,1649.95a11.811,11.811,0,0,0,2.144,0,0.956,0.956,0,0,0,.711-1.24,0.8,0.8,0,0,0-1.1-.68c-0.9.16-2.316,1-1.752,1.92" transform="translate(-65 -1610.63)"/>
  <path id="Fill_48" data-name="Fill 48" class="cls-1" d="M125,1652.93a15.627,15.627,0,0,0-.555-2.71,1.842,1.842,0,0,0-1.729-1.21c-0.63-.06-0.9.31-0.577,1.21,0.427,1.18,1.849,3.18,2.861,2.71" transform="translate(-65 -1610.63)"/>
  <path id="Fill_50" data-name="Fill 50" class="cls-1" d="M120.709,1650.58a5.24,5.24,0,0,0,.265-1.79,2.9,2.9,0,0,0-2.332-1.79c-0.776.05-.683,1.43-0.56,2.15,0.16,0.93,1.906,1.4,2.717,1.85" transform="translate(-65 -1610.63)"/>
</svg>
