<svg id="Pictos" xmlns="http://www.w3.org/2000/svg" width="32" height="46" viewBox="0 0 32 46">
  <metadata><?xpacket begin="﻿" id="W5M0MpCehiHzreSzNTczkc9d"?>
<x:xmpmeta xmlns:x="adobe:ns:meta/" x:xmptk="Adobe XMP Core 5.6-c142 79.160924, 2017/07/13-01:06:39        ">
   <rdf:RDF xmlns:rdf="http://www.w3.org/1999/02/22-rdf-syntax-ns#">
      <rdf:Description rdf:about=""/>
   </rdf:RDF>
</x:xmpmeta>
                                                                                                    
                                                                                                    
                                                                                                    
                                                                                                    
                                                                                                    
                                                                                                    
                                                                                                    
                                                                                                    
                                                                                                    
                                                                                                    
                                                                                                    
                                                                                                    
                                                                                                    
                                                                                                    
                                                                                                    
                                                                                                    
                                                                                                    
                                                                                                    
                                                                                                    
                                                                                                    
                           
<?xpacket end="w"?></metadata>
<defs>
    <style>
      .cls-1 {
        fill: #ffffff;
      }

      .cls-1, .cls-2 {
        fill-rule: evenodd;
      }

      .cls-2 {
        fill: #ffffff;
      }
    </style>
  </defs>
  <path id="Fill_1" data-name="Fill 1" class="cls-1" d="M1058,243c0.48,0.922.92,1.836,1.43,2.711a15.349,15.349,0,0,0,4.76,5.257,10.8,10.8,0,0,0,5.58,1.814,12.225,12.225,0,0,0,3.23-.321c-0.09.052-.18,0.106-0.27,0.156s-0.19.1-.29,0.149c-0.48.251-.95,0.538-1.45,0.742a6.049,6.049,0,0,1-1.26.328,9.4,9.4,0,0,1-4.53-.247,8.755,8.755,0,0,1-4.61-3.61,16.927,16.927,0,0,1-2.47-6.234c-0.04-.2-0.07-0.406-0.11-0.61A0.7,0.7,0,0,0,1058,243m-3.99,0c0.4,0.86.77,1.677,1.16,2.476a26.629,26.629,0,0,0,4.8,6.931,15.663,15.663,0,0,0,7.86,4.539,18.155,18.155,0,0,0,2.83.355,13.187,13.187,0,0,0,2.21-.093c0.72-.081,1.43-0.25,2.13-0.377-0.02.012-.05,0.046-0.09,0.069-0.96.519-1.9,1.06-2.88,1.541a4.094,4.094,0,0,1-1.12.268,18.911,18.911,0,0,1-4.23.265,11.83,11.83,0,0,1-7.84-3.229,14.243,14.243,0,0,1-3.37-5.244,22.329,22.329,0,0,1-1.42-6.464c-0.02-.286-0.04-0.571-0.05-0.857a1.446,1.446,0,0,1,.01-0.18m13.01-27c-0.31.488-.58,0.965-0.9,1.392-1.25,1.654-2.49,3.32-3.79,4.931a48.533,48.533,0,0,0-7.86,13.474,36.749,36.749,0,0,0-2.39,9.3,14.372,14.372,0,0,0,1.02,7.107,17.1,17.1,0,0,0,6.42,7.722,10.776,10.776,0,0,0,6.83,2.051,22.486,22.486,0,0,0,5.55-1.1,13.341,13.341,0,0,0,6.67-4.61,17.4,17.4,0,0,0,3.42-10.008,11.011,11.011,0,0,0-.63-3.983,28.684,28.684,0,0,0-2.3-4.863c-1.9-3.375-3.83-6.736-5.72-10.118-1.69-3.032-3.35-6.088-5.04-9.127-0.4-.728-0.84-1.431-1.28-2.166" transform="translate(-1050 -216)"/>
  <path id="Fill_1_Copy" data-name="Fill 1 Copy" class="cls-2" d="M1056,243c0.48,0.922.92,1.836,1.43,2.711a15.349,15.349,0,0,0,4.76,5.257,10.8,10.8,0,0,0,5.58,1.814,12.225,12.225,0,0,0,3.23-.321c-0.09.052-.18,0.106-0.27,0.156s-0.19.1-.29,0.149c-0.48.251-.95,0.538-1.45,0.742a6.049,6.049,0,0,1-1.26.328,9.4,9.4,0,0,1-4.53-.247,8.755,8.755,0,0,1-4.61-3.61,16.927,16.927,0,0,1-2.47-6.234c-0.04-.2-0.07-0.406-0.11-0.61A0.7,0.7,0,0,0,1056,243m-3.99,0c0.4,0.86.77,1.677,1.16,2.476a26.629,26.629,0,0,0,4.8,6.931,15.663,15.663,0,0,0,7.86,4.539,18.155,18.155,0,0,0,2.83.355,13.187,13.187,0,0,0,2.21-.093c0.72-.081,1.43-0.25,2.13-0.377-0.02.012-.05,0.046-0.09,0.069-0.96.519-1.9,1.06-2.88,1.541a4.094,4.094,0,0,1-1.12.268,18.911,18.911,0,0,1-4.23.265,11.83,11.83,0,0,1-7.84-3.229,14.243,14.243,0,0,1-3.37-5.244,22.329,22.329,0,0,1-1.42-6.464c-0.02-.286-0.04-0.571-0.05-0.857a1.446,1.446,0,0,1,.01-0.18m13.01-27c-0.31.488-.58,0.965-0.9,1.392-1.25,1.654-2.49,3.32-3.79,4.931a48.533,48.533,0,0,0-7.86,13.474,36.749,36.749,0,0,0-2.39,9.3,14.372,14.372,0,0,0,1.02,7.107,17.1,17.1,0,0,0,6.42,7.722,10.776,10.776,0,0,0,6.83,2.051,22.486,22.486,0,0,0,5.55-1.1,13.341,13.341,0,0,0,6.67-4.61,17.4,17.4,0,0,0,3.42-10.008,11.011,11.011,0,0,0-.63-3.983,28.684,28.684,0,0,0-2.3-4.863c-1.9-3.375-3.83-6.736-5.72-10.118-1.69-3.032-3.35-6.088-5.04-9.127-0.4-.728-0.84-1.431-1.28-2.166" transform="translate(-1050 -216)"/>
</svg>
