<?xml version="1.0" encoding="utf-8"?>
<!-- Generator: Adobe Illustrator 20.1.0, SVG Export Plug-In . SVG Version: 6.00 Build 0)  -->
<svg version="1.1" id="Слой_1" xmlns="http://www.w3.org/2000/svg" xmlns:xlink="http://www.w3.org/1999/xlink" x="0px" y="0px"
	 viewBox="0 0 27 27" style="enable-background:new 0 0 27 27;" xml:space="preserve">
<style type="text/css">
	.st0{fill:#666666;}
</style>
<path class="st0" d="M13.5,27C6,27,0,21,0,13.5C0,6,6,0,13.5,0C21,0,27,6,27,13.5C27,21,21,27,13.5,27z M13.5,2C7.2,2,2,7.2,2,13.5
	S7.2,25,13.5,25S25,19.8,25,13.5S19.8,2,13.5,2z M7,10l7,5.5l7-5.5v8H7V10z M7,9h13l-6.5,5L7,9z"/>
</svg>
