<svg id="Picto" xmlns="http://www.w3.org/2000/svg" width="34" height="34" viewBox="0 0 34 34">
  <metadata><?xpacket begin="﻿" id="W5M0MpCehiHzreSzNTczkc9d"?>
<x:xmpmeta xmlns:x="adobe:ns:meta/" x:xmptk="Adobe XMP Core 5.6-c142 79.160924, 2017/07/13-01:06:39        ">
   <rdf:RDF xmlns:rdf="http://www.w3.org/1999/02/22-rdf-syntax-ns#">
      <rdf:Description rdf:about=""/>
   </rdf:RDF>
</x:xmpmeta>
                                                                                                    
                                                                                                    
                                                                                                    
                                                                                                    
                                                                                                    
                                                                                                    
                                                                                                    
                                                                                                    
                                                                                                    
                                                                                                    
                                                                                                    
                                                                                                    
                                                                                                    
                                                                                                    
                                                                                                    
                                                                                                    
                                                                                                    
                                                                                                    
                                                                                                    
                                                                                                    
                           
<?xpacket end="w"?></metadata>
<defs>
    <style>
      .cls-1 {
        fill-opacity: 0;
      }

      .cls-2 {
        fill: #fff;
        fill-rule: evenodd;
      }
    </style>
  </defs>
  <rect id="Clip_2" data-name="Clip 2" class="cls-1" width="34" height="34"/>
  <g id="Mask_by_Clip_2" data-name="Mask by Clip 2">
    <path id="Fill_1" data-name="Fill 1" class="cls-2" d="M1005.24,796.77c0.1,0.094.16,0.147,0.21,0.2,0.99,0.984,1.97,1.968,2.96,2.955a1.175,1.175,0,0,0,.79.388,1.115,1.115,0,0,0,1.08-.655,1.1,1.1,0,0,0-.23-1.258q-1.47-1.471-2.94-2.936a0.733,0.733,0,0,0-.21-0.1c0.03-.029.05-0.057,0.08-0.085,0.05,0.006.09,0.009,0.14,0.019,1.05,0.228,2.1.468,3.16,0.681a1.113,1.113,0,0,0,.42-2.185q-3.27-.723-6.56-1.443a0.585,0.585,0,0,1-.28-0.148c-0.97-.96-1.93-1.926-2.9-2.891-0.03-.035-0.06-0.079-0.12-0.151h0.26c1.65,0,3.29,0,4.94,0a0.8,0.8,0,0,1,.4.118q2.79,1.775,5.56,3.562a1.211,1.211,0,0,0,.8.222,1.121,1.121,0,0,0,.48-2.066q-1.305-.838-2.61-1.671c-0.06-.04-0.12-0.087-0.18-0.131,0.01-.013.01-0.026,0.02-0.039h0.23c1.02,0,2.05,0,3.08,0a1.38,1.38,0,0,0,.3-0.023,1.111,1.111,0,0,0,.87-1.19,1.1,1.1,0,0,0-1.11-1.012c-1.11,0-2.22,0-3.32,0-0.08,0-.15-0.006-0.27-0.012,0.1-.07.16-0.11,0.21-0.146l2.76-1.774a1.12,1.12,0,1,0-1.23-1.87q-2.88,1.849-5.77,3.7a0.629,0.629,0,0,1-.34.1c-1.93.006-3.86,0-5.78,0-0.07,0-.13-0.007-0.243-0.014,0.084-.089.133-0.148,0.193-0.2,1.05-1.048,2.11-2.082,3.14-3.149a1.969,1.969,0,0,1,1.3-.718,0.564,0.564,0,0,0,.09-0.015q3.03-.663,6.08-1.328a1.119,1.119,0,1,0-.48-2.185c-0.49.107-.99,0.217-1.49,0.325-0.64.14-1.28,0.28-1.99,0.433,0.09-.094.13-0.144,0.18-0.191,0.33-.337.67-0.672,1.01-1.008,0.68-.687,1.37-1.373,2.06-2.061a1.062,1.062,0,0,0,.27-1.106,1.044,1.044,0,0,0-.83-0.772,1.156,1.156,0,0,0-1.12.381c-0.95.952-1.9,1.9-2.84,2.853a0.675,0.675,0,0,0-.1.2l-0.09-.076c0.01-.06.01-0.121,0.02-0.179,0.22-1.008.45-2.014,0.66-3.024a1.369,1.369,0,0,0,0-.57,1.072,1.072,0,0,0-1.11-.83,1.1,1.1,0,0,0-1.07.939c-0.48,2.17-.95,4.34-1.43,6.508a0.583,0.583,0,0,1-.16.3c-0.95.959-1.91,1.913-2.861,2.867-0.041.041-.088,0.075-0.166,0.141v-0.264c0-1.412,0-2.824.006-4.236a0.789,0.789,0,0,1,.117-0.4q1.776-2.8,3.574-5.582a1.139,1.139,0,0,0,.17-0.944,1.113,1.113,0,0,0-2.02-.316c-0.57.871-1.125,1.748-1.686,2.623-0.038.059-.08,0.114-0.12,0.171l-0.041-.02v-0.224c0-1.054,0-2.108,0-3.162a1.115,1.115,0,0,0-2.186-.287,1.965,1.965,0,0,0-.052.491c0,1.04,0,2.08,0,3.12,0,0.07-.007.14-0.014,0.272-0.082-.124-0.128-0.19-0.171-0.258q-0.87-1.356-1.738-2.712a1.069,1.069,0,0,0-1.089-.526,1.05,1.05,0,0,0-.94.809,1.15,1.15,0,0,0,.168.964q1.844,2.865,3.675,5.738a0.634,0.634,0,0,1,.105.321c0.007,1.674,0,3.348,0,5.022a1.546,1.546,0,0,1-.017.164l-0.058.025a1.647,1.647,0,0,0-.14-0.181c-1.114-1.116-2.221-2.24-3.35-3.341a1.75,1.75,0,0,1-.509-0.95c-0.432-2.045-.883-4.086-1.331-6.127a1.121,1.121,0,1,0-2.181.5q0.334,1.511.662,3.022a1.632,1.632,0,0,1,.017.2c-0.077-.073-0.127-0.117-0.173-0.164q-1.119-1.118-2.236-2.235a1.109,1.109,0,0,0-1.4-.164,1.121,1.121,0,0,0-.162,1.765c0.77,0.779,1.548,1.55,2.321,2.325,0.05,0.05.095,0.1,0.174,0.189-0.078-.014-0.1-0.018-0.13-0.024q-1.653-.359-3.306-0.717a1.119,1.119,0,1,0-.468,2.185q3.334,0.728,6.668,1.458a0.639,0.639,0,0,1,.3.155q1.833,1.82,3.655,3.65c0.039,0.039.07,0.086,0.129,0.159h-0.251c-1.35,0-2.7,0-4.05,0a0.766,0.766,0,0,1-.38-0.114c-0.925-.584-1.844-1.179-2.765-1.77-1-.643-2-1.289-3.006-1.927a1.117,1.117,0,1,0-1.233,1.863c0.923,0.6,1.852,1.191,2.778,1.787,0.059,0.037.113,0.081,0.17,0.123-0.007.014-.013,0.028-0.019,0.043h-0.22q-2.107,0-4.215,0a1.506,1.506,0,0,0-.308.021,1.114,1.114,0,0,0,.233,2.205c1.385,0,2.769,0,4.153,0h0.216a0.491,0.491,0,0,1-.183.178c-0.874.562-1.752,1.117-2.621,1.687a1.119,1.119,0,1,0,1.283,1.832q2.8-1.794,5.6-3.585a0.72,0.72,0,0,1,.361-0.107c1.1-.008,2.19,0,3.285,0,0.065,0,.13.007,0.221,0.012a1.032,1.032,0,0,1-.073.1q-1.482,1.485-2.967,2.965a0.424,0.424,0,0,1-.194.1c-0.637.143-1.275,0.28-1.913,0.42-1.572.343-3.143,0.684-4.714,1.033a1.1,1.1,0,0,0-.852,1.323,1.116,1.116,0,0,0,1.422.84q1.449-.321,2.9-0.638c0.088-.019.177-0.029,0.314-0.051-0.088.092-.138,0.148-0.19,0.2q-1.089,1.089-2.178,2.177a1.12,1.12,0,1,0,1.542,1.625c0.784-.774,1.56-1.557,2.339-2.336,0.051-.051.107-0.1,0.188-0.174a1.7,1.7,0,0,1-.018.178c-0.237,1.081-.48,2.161-0.707,3.244a1.435,1.435,0,0,0,0,.591,1.079,1.079,0,0,0,1.1.824,1.094,1.094,0,0,0,1.062-.873c0.5-2.242.984-4.486,1.483-6.727a0.761,0.761,0,0,1,.186-0.351q1.782-1.8,3.576-3.583c0.047-.046.1-0.087,0.183-0.163v0.265c0,1.406-.02,2.811.01,4.216a2.281,2.281,0,0,1-.4,1.378c-1.146,1.742-2.257,3.507-3.387,5.26a1.16,1.16,0,0,0-.169.983,1.034,1.034,0,0,0,.869.785,1.073,1.073,0,0,0,1.154-.509q0.878-1.362,1.749-2.728c0.042-.067.09-0.13,0.135-0.194l0.043,0.011v0.217c0,1.371,0,2.742,0,4.113a1.875,1.875,0,0,0,.054.49,1.113,1.113,0,0,0,2.184-.312c0-1.378,0-2.756,0-4.133v-0.234a0.628,0.628,0,0,1,.194.209c0.546,0.851,1.093,1.7,1.643,2.554a1.118,1.118,0,1,0,1.87-1.225q-1.8-2.8-3.587-5.6a0.765,0.765,0,0,1-.115-0.38c-0.008-1.371,0-2.741,0-4.112,0-.071.007-0.142,0.013-0.254,0.091,0.087.15,0.141,0.207,0.2,0.826,0.828,1.646,1.667,2.486,2.478a1.784,1.784,0,0,1,.54,1q0.675,3.149,1.37,6.289a1.118,1.118,0,1,0,2.18-.485L1005.27,797a2.328,2.328,0,0,1-.03-0.232" transform="translate(-981 -771)"/>
  </g>
</svg>
