<svg 
 xmlns="http://www.w3.org/2000/svg"
 xmlns:xlink="http://www.w3.org/1999/xlink"
 width="19px" height="17px">
<path fill-rule="evenodd"  fill="rgb(235, 83, 34)"
 d="M18.132,16.108 C17.366,15.326 16.680,14.192 15.818,13.832 C13.366,12.810 10.839,12.111 8.346,11.262 C8.048,11.159 7.778,10.909 7.495,10.728 C7.786,10.464 8.054,10.038 8.370,9.962 C11.243,9.271 14.125,8.656 17.000,7.980 C17.459,7.873 17.967,7.696 18.309,7.316 C18.488,7.119 18.490,6.274 18.324,5.967 C18.160,5.663 17.687,5.636 17.341,5.544 C13.912,4.632 10.754,6.176 7.572,7.523 C7.209,7.676 6.792,7.596 6.401,7.623 C6.597,7.104 6.699,6.428 7.005,6.093 C8.807,4.123 10.656,2.232 12.725,0.069 C12.019,0.059 11.599,-0.081 11.248,0.069 C6.329,2.178 2.777,6.466 0.473,12.660 C-0.447,15.130 -0.071,15.799 1.996,15.653 C2.468,15.618 2.951,15.716 3.418,15.641 C7.420,14.996 11.403,15.148 15.370,16.104 C16.209,16.305 17.051,16.501 17.892,16.698 L18.132,16.108 Z"/>
</svg>