<svg id="Pattes" xmlns="http://www.w3.org/2000/svg" width="478.688" height="677.34" viewBox="0 0 478.688 677.34">
  <metadata><?xpacket begin="﻿" id="W5M0MpCehiHzreSzNTczkc9d"?>
<x:xmpmeta xmlns:x="adobe:ns:meta/" x:xmptk="Adobe XMP Core 5.6-c142 79.160924, 2017/07/13-01:06:39        ">
   <rdf:RDF xmlns:rdf="http://www.w3.org/1999/02/22-rdf-syntax-ns#">
      <rdf:Description rdf:about=""/>
   </rdf:RDF>
</x:xmpmeta>
                                                                                                    
                                                                                                    
                                                                                                    
                                                                                                    
                                                                                                    
                                                                                                    
                                                                                                    
                                                                                                    
                                                                                                    
                                                                                                    
                                                                                                    
                                                                                                    
                                                                                                    
                                                                                                    
                                                                                                    
                                                                                                    
                                                                                                    
                                                                                                    
                                                                                                    
                                                                                                    
                           
<?xpacket end="w"?></metadata>
<defs>
    <style>
      .cls-1 {
        fill: #e8530e;
        fill-rule: evenodd;
      }
    </style>
  </defs>
  <path id="Fill_4" data-name="Fill 4" class="cls-1" d="M365.541,628.057c1.949,2.037,9.408-11.037,10.135-11.618-0.1.7-1.888,7.7-2.044,9.011-0.535,4.479,1.017,4.61,1.392,4.538,0.823-.21,1.482-2.518,5.053-12.688,1.663-4.675,2.357-7.187,1.645-7.97-0.687-.731-2.523-0.2-6.232,1.093-6.1,2.112-10.774,7.007-11.451,8.978-0.71,2,8.584-4.808,9.864-4.863C373.076,615.136,363.764,626.093,365.541,628.057Z" transform="translate(-301 -609)"/>
  <path id="Fill_1_Copy_2" data-name="Fill 1 Copy 2" class="cls-1" d="M389.2,657.958c0.253-2.069-1.919-8.629-6.666-13.392-2.888-2.9-4.364-4.247-5.335-3.924-1.017.357-1.5,2.914-2.047,7.847-1.236,10.713-1.659,13.071-.984,13.649,0.318,0.24,1.829.86,3.343-3.365,0.443-1.235,1.923-8.286,2.142-8.96,0.418,0.86,1.51,15.99,4.248,15.109,2.545-.9-1.232-15.032-1.735-15.954C383.334,649.623,388.959,660.07,389.2,657.958Z" transform="translate(-301 -609)"/>
  <path id="Fill_4_Copy_3" data-name="Fill 4 Copy 3" class="cls-1" d="M348.541,690.058c1.949,2.036,9.408-11.038,10.135-11.619-0.1.7-1.888,7.7-2.044,9.011-0.535,4.479,1.017,4.61,1.392,4.539,0.823-.211,1.482-2.519,5.053-12.689,1.663-4.675,2.357-7.187,1.645-7.97-0.687-.731-2.523-0.2-6.232,1.092-6.1,2.112-10.774,7.008-11.452,8.979-0.709,2,8.585-4.808,9.865-4.863C356.076,677.136,346.764,688.093,348.541,690.058Z" transform="translate(-301 -609)"/>
  <path id="Fill_1_Copy_4" data-name="Fill 1 Copy 4" class="cls-1" d="M374.2,720.958c0.253-2.069-1.919-8.629-6.666-13.392-2.888-2.9-4.364-4.247-5.335-3.924-1.017.357-1.5,2.914-2.047,7.847-1.236,10.713-1.659,13.071-.984,13.649,0.318,0.24,1.829.86,3.343-3.365,0.443-1.235,1.923-8.286,2.142-8.96,0.418,0.86,1.51,15.99,4.248,15.109,2.545-.9-1.232-15.032-1.735-15.954C368.334,712.623,373.959,723.07,374.2,720.958Z" transform="translate(-301 -609)"/>
  <path id="Fill_1_Copy_5" data-name="Fill 1 Copy 5" class="cls-1" d="M367.2,782.957c0.253-2.068-1.919-8.628-6.666-13.391-2.888-2.9-4.364-4.247-5.335-3.924-1.017.357-1.5,2.914-2.047,7.848-1.236,10.712-1.659,13.07-.984,13.648,0.318,0.24,1.829.86,3.343-3.364,0.443-1.236,1.923-8.287,2.142-8.961,0.418,0.86,1.51,15.99,4.248,15.109,2.545-.9-1.232-15.032-1.735-15.954C361.334,774.623,366.959,785.07,367.2,782.957Z" transform="translate(-301 -609)"/>
  <path id="Fill_4_Copy_5" data-name="Fill 4 Copy 5" class="cls-1" d="M334.541,757.057c1.949,2.037,9.408-11.037,10.135-11.618-0.1.7-1.888,7.7-2.044,9.011-0.535,4.479,1.017,4.61,1.392,4.538,0.823-.21,1.482-2.518,5.053-12.688,1.663-4.675,2.357-7.187,1.645-7.97-0.687-.731-2.523-0.2-6.232,1.092-6.1,2.113-10.774,7.008-11.452,8.979-0.709,2,8.585-4.808,9.865-4.864C342.076,744.136,332.764,755.093,334.541,757.057Z" transform="translate(-301 -609)"/>
  <path id="Fill_1_Copy_6" data-name="Fill 1 Copy 6" class="cls-1" d="M359.2,840.957c0.253-2.068-1.919-8.628-6.666-13.391-2.888-2.9-4.364-4.247-5.335-3.924-1.017.357-1.5,2.914-2.047,7.847-1.236,10.713-1.659,13.071-.984,13.649,0.318,0.24,1.829.86,3.343-3.365,0.443-1.235,1.923-8.286,2.142-8.96,0.418,0.86,1.51,15.99,4.248,15.109,2.545-.9-1.232-15.032-1.735-15.954C353.334,832.623,358.959,843.07,359.2,840.957Z" transform="translate(-301 -609)"/>
  <path id="Fill_4_Copy_6" data-name="Fill 4 Copy 6" class="cls-1" d="M326.541,812.057c1.949,2.037,9.408-11.037,10.135-11.618-0.1.7-1.888,7.7-2.044,9.011-0.535,4.479,1.017,4.61,1.392,4.538,0.823-.21,1.482-2.518,5.053-12.688,1.663-4.675,2.357-7.187,1.645-7.97-0.687-.731-2.523-0.2-6.232,1.093-6.1,2.112-10.774,7.007-11.452,8.978-0.709,2,8.585-4.808,9.865-4.863C334.076,799.136,324.764,810.093,326.541,812.057Z" transform="translate(-301 -609)"/>
  <path id="Fill_1_Copy_8" data-name="Fill 1 Copy 8" class="cls-1" d="M344.2,901.958c0.253-2.069-1.919-8.629-6.666-13.392-2.888-2.9-4.364-4.247-5.335-3.924-1.017.357-1.5,2.914-2.047,7.848-1.236,10.712-1.659,13.07-.984,13.648,0.318,0.24,1.829.86,3.343-3.365,0.443-1.235,1.923-8.287,2.142-8.96,0.418,0.86,1.51,15.99,4.248,15.109,2.545-.9-1.232-15.032-1.735-15.954C338.334,893.623,343.959,904.07,344.2,901.958Z" transform="translate(-301 -609)"/>
  <path id="Fill_4_Copy_8" data-name="Fill 4 Copy 8" class="cls-1" d="M316.541,869.057c1.949,2.037,9.408-11.037,10.135-11.618-0.1.7-1.888,7.7-2.044,9.011-0.535,4.479,1.017,4.61,1.392,4.538,0.823-.21,1.482-2.518,5.053-12.688,1.663-4.675,2.356-7.187,1.645-7.97-0.687-.731-2.523-0.2-6.232,1.093-6.1,2.111-10.774,7.007-11.452,8.978-0.709,2,8.585-4.808,9.865-4.863C324.076,856.136,314.764,867.093,316.541,869.057Z" transform="translate(-301 -609)"/>
  <path id="Fill_1_Copy_9" data-name="Fill 1 Copy 9" class="cls-1" d="M335.2,957.958c0.253-2.07-1.919-8.629-6.666-13.392-2.888-2.9-4.364-4.247-5.335-3.924-1.017.357-1.5,2.914-2.047,7.848-1.236,10.712-1.659,13.07-.984,13.648,0.318,0.241,1.829.86,3.343-3.365,0.443-1.235,1.923-8.286,2.142-8.96,0.418,0.86,1.51,15.99,4.248,15.109,2.545-.9-1.232-15.032-1.735-15.954C329.334,949.623,334.959,960.07,335.2,957.958Z" transform="translate(-301 -609)"/>
  <path id="Fill_4_Copy_9" data-name="Fill 4 Copy 9" class="cls-1" d="M302.541,933.057c1.949,2.037,9.408-11.037,10.135-11.617-0.1.7-1.888,7.7-2.044,9.01-0.535,4.479,1.017,4.61,1.392,4.538,0.823-.21,1.482-2.518,5.053-12.688,1.663-4.675,2.356-7.187,1.645-7.97-0.687-.731-2.523-0.2-6.232,1.093-6.1,2.112-10.774,7.007-11.452,8.978-0.709,2,8.585-4.808,9.865-4.863C310.076,920.136,300.764,931.093,302.541,933.057Z" transform="translate(-301 -609)"/>
  <path id="Fill_4_Copy_11" data-name="Fill 4 Copy 11" class="cls-1" d="M306.819,997.64c2.706,0.789,2.629-14.262,2.968-15.129,0.262,0.662,2.216,7.614,2.735,8.826,1.776,4.147,3.187,3.484,3.475,3.234,0.608-.594.024-2.922-1.968-13.515-0.9-4.88-1.553-7.4-2.56-7.725-0.961-.289-2.283,1.093-4.851,4.062-4.223,4.877-5.827,11.457-5.428,13.5,0.387,2.089,5.03-8.457,6.111-9.144C306.884,982.682,304.3,996.827,306.819,997.64Z" transform="translate(-301 -609)"/>
  <path id="Fill_1_Copy_11" data-name="Fill 1 Copy 11" class="cls-1" d="M342.76,1018.43c-0.815-1.92-5.976-6.51-12.469-8.26-3.951-1.07-5.9-1.5-6.582-.74-0.7.82,0.159,3.28,2.151,7.82,4.286,9.9,5.1,12.15,5.972,12.32,0.4,0.05,2.014-.17,1.213-4.59-0.234-1.29-2.478-8.14-2.625-8.83,0.793,0.54,9.3,13.09,11.233,10.96,1.755-2.05-8.582-12.4-9.479-12.95C333.516,1014.14,343.61,1020.38,342.76,1018.43Z" transform="translate(-301 -609)"/>
  <path id="Fill_4_Copy_12" data-name="Fill 4 Copy 12" class="cls-1" d="M315.761,1055.71c2.813-.18-2.408-14.3-2.385-15.23,0.472,0.53,4.686,6.4,5.588,7.36,3.087,3.29,4.186,2.18,4.372,1.85,0.368-.76-0.977-2.75-6.472-12.03-2.513-4.27-3.991-6.42-5.048-6.38-1,.06-1.771,1.81-3.169,5.48-2.3,6.02-1.557,12.76-.483,14.54,1.078,1.83,1.835-9.67,2.615-10.68C310.706,1041.64,313.114,1055.81,315.761,1055.71Z" transform="translate(-301 -609)"/>
  <path id="Fill_1_Copy_13" data-name="Fill 1 Copy 13" class="cls-1" d="M354.427,1066.23c-1.422-1.52-7.843-4.07-14.543-3.5-4.079.35-6.059,0.62-6.436,1.57-0.38,1.01,1.269,3.02,4.7,6.61,7.412,7.83,8.946,9.67,9.823,9.53,0.389-.09,1.835-0.85-0.429-4.73-0.661-1.13-5.111-6.8-5.487-7.4,0.928,0.23,13.22,9.12,14.305,6.46,0.947-2.53-12.307-8.72-13.337-8.93C344.274,1065.37,355.892,1067.77,354.427,1066.23Z" transform="translate(-301 -609)"/>
  <path id="Fill_4_Copy_14" data-name="Fill 4 Copy 14" class="cls-1" d="M359.491,1113.44c2.58-1.14-7.155-12.62-7.452-13.5,0.626,0.34,6.592,4.41,7.769,5,4.025,2.04,4.679.62,4.74,0.24,0.084-.84-1.86-2.25-10.195-9.08-3.824-3.16-5.947-4.68-6.926-4.27-0.923.39-1.047,2.3-1.105,6.23-0.1,6.45,2.9,12.52,4.52,13.83,1.64,1.35-1.582-9.71-1.2-10.94C349.925,1101.94,357.036,1114.43,359.491,1113.44Z" transform="translate(-301 -609)"/>
  <path id="Fill_1_Copy_15" data-name="Fill 1 Copy 15" class="cls-1" d="M397.964,1098.13c-1.994-.61-8.831.39-14.346,4.24-3.359,2.34-4.94,3.56-4.791,4.57,0.175,1.06,2.61,1.98,7.373,3.38,10.335,3.07,12.584,3.9,13.27,3.34,0.293-.28,1.165-1.66-2.732-3.88-1.14-.65-7.827-3.33-8.453-3.67,0.92-.26,16.01,1.29,15.617-1.56-0.444-2.66-15.017-1.39-16.013-1.06C388.738,1102.45,400,1098.73,397.964,1098.13Z" transform="translate(-301 -609)"/>
  <path id="Fill_4_Copy_16" data-name="Fill 4 Copy 16" class="cls-1" d="M423.558,1142.96c2.036-1.95-11.038-9.41-11.619-10.14,0.7,0.11,7.7,1.89,9.011,2.05,4.479,0.53,4.61-1.02,4.538-1.39-0.21-.83-2.518-1.49-12.688-5.06-4.675-1.66-7.187-2.35-7.97-1.64-0.731.68-.195,2.52,1.093,6.23,2.112,6.1,7.007,10.77,8.978,11.45,2,0.71-4.808-8.58-4.863-9.86C410.636,1135.42,421.593,1144.74,423.558,1142.96Z" transform="translate(-301 -609)"/>
  <path id="Fill_1_Copy_16" data-name="Fill 1 Copy 16" class="cls-1" d="M455.36,1111.59c-2.039-.43-8.763,1.16-13.922,5.47-3.142,2.63-4.611,3.98-4.374,4.98,0.267,1.04,2.772,1.74,7.639,2.72,10.564,2.17,12.876,2.79,13.511,2.17,0.267-.3,1.017-1.75-3.06-3.62-1.192-.55-8.088-2.64-8.74-2.92,0.893-.34,16.061-0.11,15.422-2.91-0.675-2.62-15.082-.09-16.045.33C446.546,1116.7,457.443,1112.01,455.36,1111.59Z" transform="translate(-301 -609)"/>
  <path id="Fill_4_Copy_22" data-name="Fill 4 Copy 22" class="cls-1" d="M482.558,1153.96c2.036-1.95-11.038-9.41-11.619-10.14,0.7,0.11,7.7,1.89,9.011,2.05,4.479,0.53,4.61-1.02,4.538-1.39-0.21-.83-2.518-1.49-12.688-5.06-4.675-1.66-7.187-2.35-7.97-1.64-0.731.68-.195,2.52,1.093,6.23,2.112,6.1,7.007,10.77,8.978,11.45,2,0.71-4.808-8.58-4.863-9.86C469.636,1146.42,480.593,1155.74,482.558,1153.96Z" transform="translate(-301 -609)"/>
  <path id="Fill_1_Copy_22" data-name="Fill 1 Copy 22" class="cls-1" d="M515.36,1123.59c-2.039-.43-8.763,1.16-13.922,5.47-3.142,2.63-4.611,3.98-4.374,4.98,0.267,1.04,2.772,1.74,7.639,2.72,10.564,2.17,12.876,2.79,13.511,2.17,0.267-.3,1.017-1.75-3.06-3.62-1.192-.55-8.088-2.64-8.74-2.92,0.893-.34,16.061-0.11,15.422-2.91-0.675-2.62-15.082-.09-16.045.33C506.546,1128.7,517.443,1124.01,515.36,1123.59Z" transform="translate(-301 -609)"/>
  <path id="Fill_4_Copy_17" data-name="Fill 4 Copy 17" class="cls-1" d="M632.167,1203.17c2.813-.19-2.408-14.3-2.386-15.23,0.473,0.53,4.687,6.39,5.589,7.35,3.087,3.29,4.185,2.19,4.372,1.85,0.367-.76-0.977-2.75-6.473-12.02-2.512-4.28-3.99-6.43-5.047-6.39-1,.06-1.772,1.81-3.169,5.48-2.3,6.03-1.558,12.76-.483,14.55,1.078,1.83,1.834-9.67,2.615-10.69C627.112,1189.09,629.519,1203.27,632.167,1203.17Z" transform="translate(-301 -609)"/>
  <path id="Fill_1_Copy_18" data-name="Fill 1 Copy 18" class="cls-1" d="M683.021,1195.75c-1.858-.95-8.765-1.15-14.864,1.68-3.714,1.73-5.484,2.65-5.512,3.67-0.012,1.08,2.225,2.41,6.674,4.61,9.644,4.83,11.715,6.03,12.489,5.6,0.335-.22,1.434-1.43-2.018-4.3-1.009-.84-7.13-4.64-7.688-5.07,0.952-.1,15.543,4.05,15.651,1.17,0.025-2.7-14.547-3.98-15.585-3.83C673.184,1198.41,684.924,1196.7,683.021,1195.75Z" transform="translate(-301 -609)"/>
  <path id="Fill_4_Copy_19" data-name="Fill 4 Copy 19" class="cls-1" d="M680.065,1247.25c2.517-1.27-7.805-12.22-8.147-13.09,0.642,0.31,6.813,4.06,8.019,4.59,4.127,1.82,4.706.38,4.747,0,0.039-.85-1.975-2.16-10.657-8.55-3.984-2.95-6.184-4.35-7.14-3.9-0.9.44-.925,2.36-0.778,6.28,0.238,6.45,3.552,12.35,5.239,13.58,1.707,1.26-2.089-9.62-1.767-10.86C669.911,1236.27,677.666,1248.38,680.065,1247.25Z" transform="translate(-301 -609)"/>
  <path id="Fill_1_Copy_20" data-name="Fill 1 Copy 20" class="cls-1" d="M723.956,1231.9c-1.857-.95-8.765-1.15-14.864,1.68-3.714,1.72-5.484,2.65-5.512,3.67-0.012,1.08,2.226,2.41,6.674,4.61,9.644,4.82,11.715,6.03,12.489,5.59,0.335-.22,1.434-1.42-2.018-4.29-1.009-.84-7.13-4.64-7.688-5.08,0.952-.1,15.543,4.05,15.651,1.18,0.025-2.7-14.547-3.99-15.585-3.83C714.119,1234.55,725.859,1232.84,723.956,1231.9Z" transform="translate(-301 -609)"/>
  <path id="Fill_4_Copy_32" data-name="Fill 4 Copy 32" class="cls-1" d="M732.065,1286.25c2.517-1.27-7.805-12.22-8.147-13.09,0.642,0.31,6.813,4.06,8.019,4.59,4.127,1.82,4.706.38,4.747,0,0.039-.85-1.975-2.16-10.657-8.55-3.984-2.95-6.184-4.35-7.14-3.9-0.9.44-.925,2.36-0.778,6.28,0.238,6.45,3.552,12.35,5.239,13.58,1.707,1.26-2.089-9.62-1.768-10.86C721.911,1275.27,729.666,1287.38,732.065,1286.25Z" transform="translate(-301 -609)"/>
  <path id="Fill_1_Copy_32" data-name="Fill 1 Copy 32" class="cls-1" d="M774.956,1269.9c-1.858-.95-8.765-1.15-14.864,1.68-3.714,1.72-5.484,2.65-5.512,3.67-0.012,1.08,2.226,2.4,6.674,4.61,9.644,4.82,11.715,6.03,12.489,5.59,0.335-.22,1.434-1.42-2.018-4.29-1.009-.84-7.13-4.64-7.688-5.08,0.952-.1,15.543,4.05,15.651,1.18,0.025-2.7-14.547-3.99-15.585-3.83C765.119,1272.55,776.859,1270.84,774.956,1269.9Z" transform="translate(-301 -609)"/>
</svg>
