<svg id="Pattes-2" xmlns="http://www.w3.org/2000/svg" width="413.44" height="786.94" viewBox="0 0 413.44 786.94">
  <defs>
    <style>
      .cls-1 {
        fill: #e8530e;
        fill-rule: evenodd;
      }
    </style>
  </defs>
  <path id="Fill_4_Copy_23" data-name="Fill 4 Copy 23" class="cls-1" d="M1320.17,1933.17c2.81-.19-2.41-14.3-2.39-15.23,0.47,0.53,4.69,6.39,5.59,7.35,3.09,3.29,4.19,2.19,4.37,1.85,0.37-.76-0.98-2.75-6.47-12.02-2.51-4.28-3.99-6.43-5.05-6.39-1,.06-1.77,1.81-3.17,5.48-2.3,6.03-1.55,12.76-.48,14.55,1.08,1.83,1.83-9.67,2.61-10.69C1315.11,1919.09,1317.52,1933.27,1320.17,1933.17Z" transform="translate(-1311.53 -1908.75)"/>
  <path id="Fill_1_Copy_24" data-name="Fill 1 Copy 24" class="cls-1" d="M1365.71,1916.52c-2.07-.26-8.63,1.91-13.39,6.66-2.9,2.89-4.25,4.37-3.92,5.34,0.35,1.01,2.91,1.49,7.84,2.04,10.72,1.24,13.07,1.66,13.65.99,0.24-.32.86-1.83-3.36-3.35-1.24-.44-8.29-1.92-8.96-2.14,0.86-.42,15.99-1.51,15.11-4.25-0.9-2.54-15.04,1.24-15.96,1.74C1357.38,1922.38,1367.82,1916.75,1365.71,1916.52Z" transform="translate(-1311.53 -1908.75)"/>
  <path id="Fill_4_Copy_25" data-name="Fill 4 Copy 25" class="cls-1" d="M1395.13,1961.81c1.67-2.27-12.51-7.35-13.2-7.96,0.71-.02,7.91.52,9.23,0.45,4.5-.25,4.36-1.8,4.22-2.16-0.35-.78-2.73-1.02-13.37-2.77-4.89-.83-7.49-1.08-8.13-0.24-0.61.8,0.24,2.52,2.15,5.95,3.14,5.63,8.78,9.39,10.83,9.72,2.1,0.35-6.22-7.62-6.5-8.87C1381.09,1956.64,1393.5,1963.9,1395.13,1961.81Z" transform="translate(-1311.53 -1908.75)"/>
  <path id="Fill_1_Copy_26" data-name="Fill 1 Copy 26" class="cls-1" d="M1420.93,1926.25c-2.04.43-7.53,4.62-10.49,10.66-1.8,3.67-2.59,5.51-1.97,6.32,0.67,0.85,3.24.47,8.08-.62,10.54-2.32,12.9-2.68,13.23-3.51,0.12-.38.22-2.01-4.27-2.07-1.31-.01-8.46.88-9.17,0.9,0.68-.68,14.63-6.64,12.9-8.94-1.68-2.11-13.81,6.06-14.52,6.83C1414.96,1934.5,1423.01,1925.78,1420.93,1926.25Z" transform="translate(-1311.53 -1908.75)"/>
  <path id="Fill_4_Copy_27" data-name="Fill 4 Copy 27" class="cls-1" d="M1455.13,1968.81c1.67-2.27-12.51-7.35-13.2-7.96,0.71-.02,7.91.52,9.23,0.45,4.5-.25,4.36-1.8,4.22-2.16-0.35-.78-2.73-1.02-13.37-2.77-4.89-.83-7.49-1.08-8.13-0.24-0.61.8,0.24,2.52,2.15,5.95,3.14,5.63,8.78,9.39,10.83,9.72,2.1,0.35-6.22-7.62-6.5-8.87C1441.09,1963.64,1453.5,1970.9,1455.13,1968.81Z" transform="translate(-1311.53 -1908.75)"/>
  <path id="Fill_1_Copy_27" data-name="Fill 1 Copy 27" class="cls-1" d="M1477.93,1933.25c-2.04.43-7.53,4.62-10.49,10.66-1.8,3.67-2.59,5.51-1.97,6.32,0.67,0.85,3.24.47,8.08-.62,10.54-2.32,12.9-2.68,13.23-3.51,0.12-.38.22-2.01-4.27-2.07-1.31-.01-8.46.88-9.17,0.89,0.68-.67,14.63-6.63,12.9-8.93-1.68-2.11-13.81,6.06-14.52,6.83C1471.96,1941.5,1480.01,1932.78,1477.93,1933.25Z" transform="translate(-1311.53 -1908.75)"/>
  <path id="Fill_4_Copy_29" data-name="Fill 4 Copy 29" class="cls-1" d="M1513.96,1982.41c2.04-1.95-11.03-9.41-11.61-10.13,0.7,0.1,7.7,1.89,9.01,2.04,4.47,0.54,4.61-1.02,4.53-1.39-0.21-.82-2.51-1.48-12.68-5.05-4.68-1.67-7.19-2.36-7.97-1.65-0.74.69-.2,2.52,1.09,6.23,2.11,6.1,7.01,10.78,8.98,11.46,2,0.7-4.81-8.59-4.87-9.87C1501.04,1974.88,1512,1984.19,1513.96,1982.41Z" transform="translate(-1311.53 -1908.75)"/>
  <path id="Fill_1_Copy_29" data-name="Fill 1 Copy 29" class="cls-1" d="M1545.02,1949.09c-2.08-.07-8.43,2.67-12.76,7.81-2.63,3.13-3.85,4.72-3.44,5.66,0.44,0.98,3.03,1.24,8,1.35,10.78,0.3,13.16.52,13.68-.21,0.21-.33.7-1.89-3.65-3.03-1.26-.34-8.42-1.2-9.11-1.36,0.82-.49,15.8-2.89,14.68-5.55-1.12-2.45-14.86,2.54-15.74,3.12C1537.23,1955.66,1547.15,1949.15,1545.02,1949.09Z" transform="translate(-1311.53 -1908.75)"/>
  <path id="Fill_4_Copy_31" data-name="Fill 4 Copy 31" class="cls-1" d="M1579.54,2000.78c2.34-1.56-9.24-11.18-9.68-11.99,0.67,0.22,7.25,3.19,8.52,3.57,4.31,1.31,4.71-.2,4.71-0.58-0.07-.85-2.23-1.89-11.62-7.18-4.32-2.45-6.67-3.57-7.57-3-0.83.55-.63,2.45,0,6.33,1.02,6.36,5.03,11.82,6.85,12.83,1.85,1.05-3.24-9.29-3.07-10.56C1568.12,1991.12,1577.29,2002.19,1579.54,2000.78Z" transform="translate(-1311.53 -1908.75)"/>
  <path id="Fill_1_Copy_31" data-name="Fill 1 Copy 31" class="cls-1" d="M1616.52,1982.12c-1.93-.78-8.83-0.38-14.66,2.97-3.55,2.04-5.23,3.12-5.17,4.14,0.08,1.07,2.42,2.2,7.05,4.01,10.03,3.96,12.19,4.98,12.93,4.48,0.31-.25,1.3-1.54-2.39-4.1-1.08-.75-7.51-4-8.1-4.39,0.94-.18,15.84,2.68,15.69-0.19-0.21-2.69-14.83-2.7-15.85-2.46C1606.95,1985.62,1618.5,1982.89,1616.52,1982.12Z" transform="translate(-1311.53 -1908.75)"/>
  <path id="Fill_4_Copy_34" data-name="Fill 4 Copy 34" class="cls-1" d="M1617.33,2039.92c2.78-.47-3.89-13.97-3.97-14.9,0.53,0.48,5.33,5.88,6.33,6.74,3.42,2.95,4.39,1.73,4.54,1.38,0.29-.8-1.26-2.64-7.69-11.28-2.95-4-4.64-5.98-5.69-5.82-0.99.16-1.57,1.98-2.58,5.77-1.65,6.24-.21,12.85,1.04,14.52,1.27,1.71.82-9.81,1.49-10.9C1610.83,2026.45,1614.71,2040.3,1617.33,2039.92Z" transform="translate(-1311.53 -1908.75)"/>
  <path id="Fill_1_Copy_35" data-name="Fill 1 Copy 35" class="cls-1" d="M1660.43,2038.64c-1.42-1.52-7.85-4.08-14.55-3.5-4.08.35-6.05,0.61-6.43,1.56-0.38,1.01,1.27,3.02,4.69,6.61,7.42,7.84,8.95,9.68,9.83,9.53,0.39-.09,1.83-0.85-0.43-4.72-0.66-1.14-5.11-6.8-5.49-7.4,0.93,0.23,13.22,9.12,14.31,6.46,0.94-2.53-12.31-8.72-13.34-8.93C1650.27,2037.77,1661.89,2040.18,1660.43,2038.64Z" transform="translate(-1311.53 -1908.75)"/>
  <path id="Fill_4_Copy_36" data-name="Fill 4 Copy 36" class="cls-1" d="M1650.18,2093.28c2.82,0.06-1.15-14.46-1.05-15.38,0.43,0.57,4.11,6.78,4.93,7.81,2.79,3.55,3.98,2.54,4.19,2.23,0.44-.73-0.73-2.83-5.4-12.55-2.13-4.48-3.41-6.74-4.47-6.8-1-.03-1.92,1.65-3.63,5.18-2.82,5.81-2.67,12.58-1.75,14.45,0.91,1.92,2.67-9.47,3.54-10.41C1646.37,2078.81,1647.54,2093.15,1650.18,2093.28Z" transform="translate(-1311.53 -1908.75)"/>
  <path id="Fill_4_Copy_38" data-name="Fill 4 Copy 38" class="cls-1" d="M1666.2,2146.24c2.77,0.55,1.38-14.44,1.64-15.33,0.32,0.64,2.87,7.39,3.5,8.56,2.13,3.97,3.47,3.19,3.74,2.91,0.55-.64-0.23-2.91-3.14-13.29-1.32-4.78-2.19-7.24-3.22-7.47-0.98-.2-2.18,1.29-4.48,4.47-3.78,5.23-4.81,11.92-4.23,13.92,0.57,2.05,4.27-8.86,5.29-9.64C1664.97,2131.34,1663.62,2145.65,1666.2,2146.24Z" transform="translate(-1311.53 -1908.75)"/>
  <path id="Fill_1_Copy_38" data-name="Fill 1 Copy 38" class="cls-1" d="M1691.78,2101.03c-0.98-1.84-6.52-5.97-13.14-7.15-4.03-.72-6.01-0.97-6.62-0.15-0.63.87,0.44,3.24,2.82,7.6,5.14,9.48,6.14,11.66,7.03,11.74,0.39,0.02,1.99-.34.8-4.67-0.34-1.26-3.17-7.89-3.38-8.57,0.84,0.47,10.41,12.24,12.15,9.94,1.56-2.19-9.63-11.6-10.58-12.07C1682.2,2097.56,1692.8,2102.9,1691.78,2101.03Z" transform="translate(-1311.53 -1908.75)"/>
  <path id="Fill_1_Copy_39" data-name="Fill 1 Copy 39" class="cls-1" d="M1706.76,2158.84c-0.81-1.92-5.98-6.52-12.47-8.27-3.95-1.07-5.9-1.5-6.58-.73-0.7.82,0.16,3.27,2.15,7.82,4.29,9.9,5.1,12.15,5.97,12.31,0.4,0.05,2.02-.17,1.21-4.58-0.23-1.29-2.47-8.14-2.62-8.83,0.79,0.53,9.3,13.09,11.23,10.96,1.76-2.06-8.58-12.41-9.48-12.95C1697.52,2154.55,1707.61,2160.78,1706.76,2158.84Z" transform="translate(-1311.53 -1908.75)"/>
  <path id="Fill_4_Copy_40" data-name="Fill 4 Copy 40" class="cls-1" d="M1677.26,2201.86c2.63,1.02,3.86-13.98,4.28-14.81,0.2,0.68,1.54,7.78,1.95,9.03,1.41,4.28,2.87,3.75,3.18,3.52,0.66-.53.28-2.9-0.78-13.63-0.47-4.94-.9-7.51-1.88-7.92-0.93-.37-2.37.89-5.18,3.62-4.64,4.49-6.81,10.91-6.59,12.98,0.21,2.12,5.75-7.98,6.89-8.58C1678.63,2186.97,1674.82,2200.83,1677.26,2201.86Z" transform="translate(-1311.53 -1908.75)"/>
  <path id="Fill_4_Copy_41" data-name="Fill 4 Copy 41" class="cls-1" d="M1684.32,2258.55c2.53,1.24,5.07-13.59,5.55-14.39,0.15,0.7.86,7.89,1.16,9.17,1.03,4.39,2.54,3.98,2.87,3.79,0.7-.48.53-2.88,0.4-13.65-0.03-4.97-.24-7.56-1.18-8.06-0.89-.45-2.43.68-5.48,3.16-5,4.07-7.73,10.27-7.69,12.36,0.02,2.12,6.42-7.46,7.61-7.95C1686.98,2243.83,1681.98,2257.31,1684.32,2258.55Z" transform="translate(-1311.53 -1908.75)"/>
  <path id="Fill_1_Copy_41" data-name="Fill 1 Copy 41" class="cls-1" d="M1716.51,2216.43c-0.47-2.03-4.76-7.45-10.85-10.31-3.7-1.73-5.55-2.49-6.35-1.86-0.84.68-.41,3.25,0.76,8.08,2.5,10.49,2.91,12.85,3.74,13.16,0.38,0.12,2.01.18,1.99-4.31-0.01-1.31-1.03-8.44-1.05-9.15,0.69,0.67,6.89,14.51,9.16,12.74,2.08-1.71-6.3-13.7-7.09-14.39C1708.15,2210.6,1717.01,2218.49,1716.51,2216.43Z" transform="translate(-1311.53 -1908.75)"/>
  <path id="Fill_4_Copy_43" data-name="Fill 4 Copy 43" class="cls-1" d="M1687.42,2319.15c2.41,1.46,6.23-13.1,6.78-13.84,0.08,0.7.17,7.92,0.36,9.23,0.64,4.46,2.17,4.19,2.52,4.02,0.74-.42.77-2.82,1.59-13.56,0.4-4.95.42-7.55-.47-8.13-0.85-.53-2.49.47-5.74,2.67-5.34,3.62-8.59,9.56-8.74,11.64-0.16,2.12,7.05-6.87,8.27-7.25C1691.35,2304.72,1685.19,2317.71,1687.42,2319.15Z" transform="translate(-1311.53 -1908.75)"/>
  <path id="Fill_1_Copy_43" data-name="Fill 1 Copy 43" class="cls-1" d="M1720.28,2276.2c-0.29-2.06-4.09-7.84-9.91-11.21-3.54-2.05-5.31-2.97-6.17-2.41-0.89.61-.69,3.2,0.06,8.11,1.58,10.67,1.78,13.06,2.58,13.44,0.37,0.15,1.99.36,2.36-4.11,0.1-1.31-.29-8.51-0.25-9.21,0.62,0.72,5.59,15.05,8.01,13.49,2.23-1.53-5.08-14.2-5.8-14.96C1712.46,2269.67,1720.59,2278.3,1720.28,2276.2Z" transform="translate(-1311.53 -1908.75)"/>
  <path id="Fill_4_Copy_44" data-name="Fill 4 Copy 44" class="cls-1" d="M1685.55,2373.68c2.27,1.66,7.34-12.51,7.96-13.2,0.02,0.71-.52,7.91-0.45,9.22,0.25,4.51,1.8,4.37,2.16,4.23,0.77-.35,1.02-2.74,2.77-13.37,0.83-4.89,1.08-7.49.24-8.14-0.8-.6-2.52.25-5.95,2.16-5.63,3.14-9.39,8.77-9.72,10.83-0.35,2.1,7.62-6.22,8.87-6.5C1690.72,2359.64,1683.45,2372.05,1685.55,2373.68Z" transform="translate(-1311.53 -1908.75)"/>
  <path id="Fill_1_Copy_44" data-name="Fill 1 Copy 44" class="cls-1" d="M1724.98,2336.95c-0.11-2.08-3.39-8.16-8.89-12.03-3.35-2.35-5.04-3.42-5.94-2.94-0.93.53-.97,3.13-0.65,8.09,0.64,10.76.64,13.16,1.4,13.61,0.36,0.18,1.95.53,2.71-3.89,0.22-1.3.46-8.5,0.55-9.2,0.57,0.77,4.27,15.48,6.81,14.14,2.35-1.33-3.82-14.59-4.48-15.41C1717.76,2329.76,1725.11,2339.07,1724.98,2336.95Z" transform="translate(-1311.53 -1908.75)"/>
  <path id="Fill_4_Copy_46" data-name="Fill 4 Copy 46" class="cls-1" d="M1676.72,2434.13c2.12,1.86,8.41-11.82,9.08-12.46-0.04.71-1.2,7.84-1.25,9.16-0.14,4.5,1.42,4.5,1.79,4.4,0.8-.29,1.25-2.64,3.92-13.08,1.25-4.81,1.73-7.37.95-8.09-0.75-.67-2.53.03-6.11,1.63-5.89,2.64-10.13,7.92-10.63,9.95-0.53,2.05,8.13-5.54,9.4-5.71C1683.1,2420.6,1674.78,2432.33,1676.72,2434.13Z" transform="translate(-1311.53 -1908.75)"/>
  <path id="Fill_1_Copy_46" data-name="Fill 1 Copy 46" class="cls-1" d="M1720.62,2396.67c0.07-2.08-2.66-8.42-7.81-12.75-3.13-2.64-4.72-3.86-5.66-3.45-0.98.45-1.23,3.03-1.35,8-0.3,10.78-.51,13.16.21,13.68,0.34,0.21,1.9.7,3.04-3.64,0.33-1.27,1.19-8.43,1.35-9.12,0.49,0.82,2.9,15.8,5.55,14.68,2.45-1.11-2.54-14.86-3.12-15.74C1714.05,2388.88,1720.57,2398.8,1720.62,2396.67Z" transform="translate(-1311.53 -1908.75)"/>
  <path id="Fill_4_Copy_48" data-name="Fill 4 Copy 48" class="cls-1" d="M1648.99,2476.29c1.35,2.47,11.94-8.23,12.79-8.6-0.28.65-3.81,6.95-4.3,8.18-1.68,4.18-.21,4.71.17,4.74,0.85,0.01,2.08-2.05,8.16-10.95,2.82-4.08,4.14-6.33,3.65-7.27-0.47-.89-2.38-0.84-6.3-0.56-6.43.46-12.22,3.98-13.38,5.71-1.21,1.75,9.53-2.42,10.78-2.15C1659.61,2465.76,1647.78,2473.93,1648.99,2476.29Z" transform="translate(-1311.53 -1908.75)"/>
  <path id="Fill_1_Copy_48" data-name="Fill 1 Copy 48" class="cls-1" d="M1703.59,2462.17c0.79-1.93.38-8.83-2.97-14.66-2.04-3.55-3.11-5.23-4.14-5.17-1.07.08-2.2,2.43-4,7.05-3.97,10.03-4.99,12.19-4.49,12.93,0.25,0.31,1.55,1.3,4.1-2.39,0.75-1.08,4.01-7.5,4.39-8.1,0.18,0.94-2.68,15.84.19,15.7,2.7-.21,2.7-14.84,2.46-15.86C1700.09,2452.6,1702.82,2464.15,1703.59,2462.17Z" transform="translate(-1311.53 -1908.75)"/>
  <path id="Fill_1_Copy_49" data-name="Fill 1 Copy 49" class="cls-1" d="M1664.58,2509.5c1.25-1.66,2.65-8.43.92-14.93-1.05-3.96-1.65-5.86-2.66-6.06-1.05-.2-2.75,1.77-5.69,5.77-6.43,8.66-7.97,10.49-7.68,11.33,0.16,0.36,1.15,1.66,4.58-1.25,1-.84,5.81-6.21,6.33-6.69-0.06.96-6.68,14.61-3.87,15.21,2.65,0.5,6.45-13.63,6.47-14.68C1663.67,2499.35,1663.32,2511.21,1664.58,2509.5Z" transform="translate(-1311.53 -1908.75)"/>
  <path id="Fill_4_Copy_50" data-name="Fill 4 Copy 50" class="cls-1" d="M1615.04,2513.66c0.43,2.79,14.04-3.64,14.97-3.7-0.49.51-5.97,5.22-6.84,6.21-3.01,3.36-1.82,4.36-1.47,4.51,0.8,0.3,2.66-1.21,11.42-7.49,4.04-2.88,6.05-4.54,5.92-5.59-0.14-.99-1.96-1.61-5.73-2.68-6.21-1.76-12.85-.44-14.53.79-1.73,1.23,9.79.98,10.87,1.67C1628.63,2507.4,1614.71,2511.03,1615.04,2513.66Z" transform="translate(-1311.53 -1908.75)"/>
  <path id="Fill_4_Copy_51" data-name="Fill 4 Copy 51" class="cls-1" d="M1571.85,2548.69c0.18,2.81,14.3-2.41,15.23-2.38-0.53.47-6.4,4.68-7.36,5.58-3.29,3.09-2.18,4.19-1.85,4.38,0.77,0.36,2.75-.98,12.03-6.48,4.28-2.51,6.42-3.99,6.38-5.04-0.06-1.01-1.81-1.78-5.48-3.17-6.02-2.3-12.75-1.56-14.54-.49-1.83,1.08,9.67,1.84,10.68,2.62C1585.92,2543.64,1571.75,2546.04,1571.85,2548.69Z" transform="translate(-1311.53 -1908.75)"/>
  <path id="Fill_1_Copy_51" data-name="Fill 1 Copy 51" class="cls-1" d="M1621.31,2553.63c1.52-1.43,4.07-7.85,3.5-14.55-0.35-4.08-.61-6.06-1.57-6.43-1-.38-3.02,1.27-6.61,4.69-7.83,7.41-9.67,8.95-9.53,9.83,0.09,0.38.85,1.83,4.73-.43,1.13-.66,6.8-5.12,7.4-5.49-0.23.93-9.12,13.22-6.46,14.3,2.53,0.95,8.72-12.3,8.93-13.33C1622.17,2543.47,1619.77,2555.09,1621.31,2553.63Z" transform="translate(-1311.53 -1908.75)"/>
  <path id="Fill_1_Copy_52" data-name="Fill 1 Copy 52" class="cls-1" d="M1580.07,2590.37c1.4-1.55,3.38-8.17,2.22-14.79-0.7-4.04-1.14-5.99-2.12-6.28-1.03-.29-2.9,1.53-6.17,5.26-7.16,8.06-8.86,9.75-8.64,10.61,0.12,0.38,1.01,1.76,4.67-.84,1.07-.75,6.33-5.68,6.89-6.11-0.15.95-7.93,13.97-5.18,14.82,2.6,0.72,7.61-13.02,7.73-14.07C1580.05,2580.18,1578.67,2591.96,1580.07,2590.37Z" transform="translate(-1311.53 -1908.75)"/>
  <path id="Fill_4_Copy_53" data-name="Fill 4 Copy 53" class="cls-1" d="M1533.68,2589.53c0.91,2.67,13.2-6.02,14.1-6.24-0.39.59-4.97,6.18-5.66,7.3-2.38,3.83-1.03,4.61-.66,4.7,0.84,0.16,2.41-1.66,9.94-9.36,3.49-3.54,5.18-5.52,4.86-6.53-0.31-.95-2.2-1.24-6.11-1.65-6.41-.66-12.72,1.8-14.17,3.3-1.49,1.52,9.81-.73,11-0.24C1545.97,2581.01,1532.9,2587,1533.68,2589.53Z" transform="translate(-1311.53 -1908.75)"/>
  <path id="Fill_1_Copy_54" data-name="Fill 1 Copy 54" class="cls-1" d="M1548.83,2631.72c0.78-1.94.38-8.83-2.97-14.66-2.04-3.55-3.12-5.24-4.14-5.17-1.08.08-2.2,2.42-4.01,7.05-3.97,10.02-4.99,12.19-4.48,12.92,0.24,0.32,1.54,1.31,4.1-2.38,0.74-1.08,4-7.51,4.38-8.1,0.19,0.94-2.68,15.84.2,15.69,2.69-.21,2.7-14.84,2.45-15.86C1545.32,2622.15,1548.05,2633.7,1548.83,2631.72Z" transform="translate(-1311.53 -1908.75)"/>
  <path id="Fill_4_Copy_55" data-name="Fill 4 Copy 55" class="cls-1" d="M1506.88,2656.8c1.77,2.2,10.34-10.17,11.11-10.69-0.16.7-2.55,7.51-2.82,8.8-0.92,4.42.61,4.68,0.99,4.64,0.84-.13,1.7-2.38,6.14-12.2,2.07-4.51,2.98-6.95,2.34-7.79-0.62-.79-2.5-0.42-6.31.54-6.25,1.58-11.34,6.05-12.19,7.95-0.88,1.93,8.97-4.04,10.25-3.99C1515.52,2644.59,1505.29,2654.69,1506.88,2656.8Z" transform="translate(-1311.53 -1908.75)"/>
  <path id="Fill_1_Copy_56" data-name="Fill 1 Copy 56" class="cls-1" d="M1547.85,2688.22c0.07-2.08-2.66-8.43-7.81-12.76-3.13-2.64-4.71-3.85-5.65-3.44-0.98.44-1.24,3.03-1.36,7.99-0.29,10.78-.51,13.17.21,13.69,0.34,0.21,1.9.69,3.04-3.65,0.33-1.27,1.19-8.42,1.35-9.11,0.49,0.82,2.9,15.8,5.55,14.68,2.46-1.12-2.54-14.87-3.12-15.74C1541.29,2680.43,1547.8,2690.35,1547.85,2688.22Z" transform="translate(-1311.53 -1908.75)"/>
</svg>
