<svg id="Page_1" data-name="Page 1" xmlns="http://www.w3.org/2000/svg" width="102.03" height="104" viewBox="0 0 102.03 104">
  <defs>
    <style>
      .cls-1 {
        fill: #070200;
      }

      .cls-1, .cls-2 {
        fill-rule: evenodd;
      }

      .cls-2 {
        fill: #ea5322;
      }
    </style>
  </defs>
  <path id="Fill_1" data-name="Fill 1" class="cls-1" d="M1340.15,492.49s-0.06-.254-0.14-0.662Z" transform="translate(-1319.97 -413)"/>
  <path id="Fill_3" data-name="Fill 3" class="cls-2" d="M1391.3,430.379a4.875,4.875,0,0,1,.83,3.465l5.04-5.563c-1.19-.19-3.07-0.639-4.07-0.665a17.98,17.98,0,0,0-10.77,2.7l-5.08,5.611a22.144,22.144,0,0,0-1.14,2.364,26.244,26.244,0,0,0-1.77,10.044,27.812,27.812,0,0,0,.5,4.594l7.11-7.858c-7.12,2.068-6.39-1.81-4.35-3.383,2.06-1.583,5.92,0,6.98.484l1.21-1.334c-9.55-4.264-5.95-7.053-3.15-6.693,2.41,0.309,4.05,3.8,4.59,5.106l1.9-2.109c-4.05-9.309.35-8.914,2.17-6.767h0ZM1358,467.236a4.861,4.861,0,0,1,.91,3.286l5.13-5.666a38.768,38.768,0,0,0-4.08-.646,20.737,20.737,0,0,0-10.14,2.007l-8.14,8.989c-0.1.235-.22,0.465-0.31,0.7a28.9,28.9,0,0,0-1.95,10.979,34.18,34.18,0,0,0,.36,4.752l7.38-8.146c-7.16,1.877-6.34-2.2-4.16-3.872,2.08-1.609,5.85-.243,7.31.39l1.33-1.469c-10.05-4.581-6.16-7.569-3.13-7.18,2.43,0.311,4.17,3.61,4.89,5.246l2.09-2.312c-4.18-9.819.54-9.389,2.51-7.061h0Zm5.62-7.077a27.358,27.358,0,0,1,3.83.925l4.73-5.211a23.012,23.012,0,0,1-1.12-3.919Zm46.72-41.747a26.9,26.9,0,0,0,5.2,2.673l-81.04,90.037a1.22,1.22,0,0,1-.91,1.241c-1.54-.687-2.76-1.244-3.53-1.623-6.49-3.22-2.03-6.127-2.03-6.127l10.34-11.412-1.51,1.6a21.875,21.875,0,0,1-1.03-3.948l-13.14,14.5a4.939,4.939,0,0,1-1.84-7.154l14.84-16.374a27.964,27.964,0,0,1,6.21-13.892,21.125,21.125,0,0,1,13.49-7.858l15.71-17.357a25.673,25.673,0,0,1,5.49-11.7,19.393,19.393,0,0,1,11.47-7.029l8.45-9.325s4.73-2.977,7.65-.967c0.26,0.172.59,0.383,0.99,0.627l-8.7,9.595a24.888,24.888,0,0,1,3.81.949l3.42-3.786s3.73-4.679,6.66-2.67h0Z" transform="translate(-1319.97 -413)"/>
  <path id="Fill_5" data-name="Fill 5" class="cls-2" d="M1406.48,499.032s15.84-22.019,8.18-52.2c0.34,16.107,1.78,28.667-8.18,52.2m-3.06-8.889a44.977,44.977,0,0,0,5.53-35.262c0.23,10.886,1.2,19.366-5.53,35.262m0.94-29.471c0.15,7.318.8,13.01-3.72,23.692a30.258,30.258,0,0,0,3.72-23.692m12.55-33.939s5.37-6.757,5.08-.429-1.09,37.479-1.6,59.865c-0.42,18.149-15.56,21.007-15.56,21.007s-51.63,8.955-61.15,9.761-2.42-6.357-2.42-6.357l75.65-83.847" transform="translate(-1319.97 -413)"/>
</svg>
