<svg id="Page_1" data-name="Page 1" xmlns="http://www.w3.org/2000/svg" width="130.25" height="94.437" viewBox="0 0 130.25 94.437">
  <defs>
    <style>
      .cls-1 {
        fill-opacity: 0;
      }

      .cls-1, .cls-2 {
        fill-rule: evenodd;
      }

      .cls-2 {
        fill: #ea5322;
      }
    </style>
  </defs>
  <path id="Clip_2" data-name="Clip 2" class="cls-1" d="M481.376,411.952H611.623v94.421H481.376V411.952Z" transform="translate(-481.375 -411.938)"/>
  <g id="Mask_by_Clip_2" data-name="Mask by Clip 2">
    <path id="Fill_1" data-name="Fill 1" class="cls-2" d="M500.486,426.013a0.656,0.656,0,0,1,1.3,0v14.478a1.587,1.587,0,0,0,2.075,0V426.013a0.753,0.753,0,0,1,1.452,0v14.5a1.586,1.586,0,0,0,2.076-.049V426.013a0.763,0.763,0,0,1,1.468,0v14.535a1.575,1.575,0,0,0,1.974-.04v-14.5a0.7,0.7,0,0,1,1.376,0v18.145h0c0,0.033,0,.062,0,0.092v0.242a0.413,0.413,0,0,1-.035.124,5.478,5.478,0,0,1-4.036,5.238l1.159,40.442c0,1.079-1.288,1.962-2.868,1.962s-2.874-.883-2.874-1.962l1.2-40.423c-2.258-.355-4.006-2.524-4.2-5.246a0.562,0.562,0,0,1-.065-0.135V426.013Zm45.274,63.4a31.868,31.868,0,1,1,31.828-31.869A31.844,31.844,0,0,1,545.76,489.41h0Zm40.119-29.681c-1.925.377-5.367-.791-5.367-14.028,0-18.369,6.517-23.346,7.732-23.346s1.329,2.767,1.329,2.767v25.53L590.7,490.3c0,1.079-1.28,1.962-2.871,1.962s-2.866-.883-2.866-1.962l0.914-30.567h0Zm-96.2,13.305c0,2.808-2.559,5.091-5.708,5.091a6.2,6.2,0,0,1-2.592-.579v18.207a10.613,10.613,0,0,0,10.609,10.62h109.03a10.614,10.614,0,0,0,10.608-10.62V476.609a6.06,6.06,0,0,1-4.061,1.516c-3.151,0-5.708-2.283-5.708-5.091V445.146c0-2.808,2.557-5.088,5.708-5.088a6.046,6.046,0,0,1,4.061,1.516v-19a10.619,10.619,0,0,0-10.608-10.624H491.985a10.618,10.618,0,0,0-10.609,10.624v18.058a6.24,6.24,0,0,1,2.592-.576c3.149,0,5.708,2.28,5.708,5.088v27.888h0Z" transform="translate(-481.375 -411.938)"/>
  </g>
</svg>
