<svg id="Page_1" data-name="Page 1" xmlns="http://www.w3.org/2000/svg" width="114.47" height="108.875" viewBox="0 0 114.47 108.875">
  <defs>
    <style>
      .cls-1 {
        fill: #fff;
        fill-rule: evenodd;
      }

      .cls-2 {
        fill-opacity: 0;
      }
    </style>
  </defs>
  <path id="Fill_1" data-name="Fill 1" class="cls-1" d="M904.84,479.819L903,512l22.486-3.4L921.8,478.309Z" transform="translate(-903 -403.125)"/>
  <g>
    <path id="Fill_2" data-name="Fill 2" class="cls-1" d="M926.245,477.417s6.753-2.2,8.53-3.291a15.061,15.061,0,0,1,4.97-1.465H963.9c3.908,0,3.559,2.195,3.559,2.195,0,3.291-4.976,3.291-4.976,3.291s-8.529.736-11.723,1.466-1.777,4.756-1.777,4.756h22.373a22.734,22.734,0,0,0,7.821-4.021c3.548-2.931,12.072-9.153,14.2-6.222s-0.708,6.222-.708,6.222-19.179,14.27-22.024,16.1a18.252,18.252,0,0,1-7.1,2.2H940.1c-2.84,0-11.724,2.566-11.724,2.566l-2.131-23.794" transform="translate(-903 -403.125)"/>
    <path id="Fill_4" data-name="Fill 4" class="cls-1" d="M970.356,414.387A6.329,6.329,0,0,0,970.52,413a5.909,5.909,0,1,0-11.813,0,6.848,6.848,0,0,0,.142,1.324c1.735-.136,3.517-0.223,5.41-0.223,2.136,0,4.146.12,6.1,0.283m-47.337,36.489c7.138-11.191,11.633-20.595,31.626-30.986,0,0-24.694,6-31.626,30.986m8.545-3.444c4.822-7.557,7.852-13.9,21.363-20.922,0,0-16.673,4.048-21.363,20.922m6.885-1.329c3.241-5.083,5.277-9.344,14.351-14.063,0,0-11.2,2.725-14.351,14.063m35.577-31.291c36.864,5.416,36.644,41.256,36.644,41.256H919.5s-1.66-36.287,35.688-41.359a10.1,10.1,0,0,1-.169-1.706,9.6,9.6,0,1,1,19.184,0,10.234,10.234,0,0,1-.179,1.809" transform="translate(-903 -403.125)"/>
    <g>
      <rect id="Clip_7" data-name="Clip 7" class="cls-2" x="8.875" y="56.719" width="105.595" height="9.031"/>
      <g id="Mask_by_Clip_7" data-name="Mask by Clip 7">
        <path id="Fill_6" data-name="Fill 6" class="cls-1" d="M1017.47,464.363a4.462,4.462,0,0,0-4.39-4.523H916.262a4.525,4.525,0,0,0,0,9.045h96.818a4.462,4.462,0,0,0,4.39-4.522" transform="translate(-903 -403.125)"/>
      </g>
    </g>
  </g>
</svg>
