<svg id="POULE" xmlns="http://www.w3.org/2000/svg" width="76.938" height="119.875" viewBox="0 0 76.938 119.875">
  <metadata><?xpacket begin="﻿" id="W5M0MpCehiHzreSzNTczkc9d"?>
<x:xmpmeta xmlns:x="adobe:ns:meta/" x:xmptk="Adobe XMP Core 5.6-c142 79.160924, 2017/07/13-01:06:39        ">
   <rdf:RDF xmlns:rdf="http://www.w3.org/1999/02/22-rdf-syntax-ns#">
      <rdf:Description rdf:about=""/>
   </rdf:RDF>
</x:xmpmeta>
                                                                                                    
                                                                                                    
                                                                                                    
                                                                                                    
                                                                                                    
                                                                                                    
                                                                                                    
                                                                                                    
                                                                                                    
                                                                                                    
                                                                                                    
                                                                                                    
                                                                                                    
                                                                                                    
                                                                                                    
                                                                                                    
                                                                                                    
                                                                                                    
                                                                                                    
                                                                                                    
                           
<?xpacket end="w"?></metadata>
<defs>
    <style>
      .cls-1 {
        fill-opacity: 0;
      }

      .cls-1, .cls-2, .cls-3 {
        fill-rule: evenodd;
      }

      .cls-2 {
        fill: #fefefd;
      }

      .cls-3 {
        fill: #ececec;
      }
    </style>
  </defs>
  <g>
    <path id="Clip_2" data-name="Clip 2" class="cls-1" d="M826,352h62.886v75H826V352Z" transform="translate(-826 -307.125)"/>
    <g id="Mask_by_Clip_2" data-name="Mask by Clip 2">
      <path id="Fill_1" data-name="Fill 1" class="cls-2" d="M870.892,384.231c-2.172,2.958-10.992,4.421-14.429,2.382a62.047,62.047,0,0,0,7.452-.367,57.471,57.471,0,0,0,6.977-2.015m-19.863,4.159c5.09,2.239,10.316,3.3,16,1.973-2.574,2.647-10.87,2.16-16-1.973m6.943,10.717c-0.306.093-.606,0.208-0.916,0.277a12.074,12.074,0,0,1-8.315-1.435c-1.78-.914-3.4-2.133-5.1-3.215l0.2-.413c0.388,0.15.787,0.277,1.162,0.453,2.252,1.061,4.435,2.313,6.771,3.141a26.466,26.466,0,0,0,5.151.8c0.329,0.046.663,0.052,1,.076,0.015,0.105.031,0.209,0.047,0.313m-9.569-8.43c4.529,2.983,9.352,4.959,15.042,4.494-3.021,2.4-12.088-.3-15.042-4.494m34.391,29.483a47.491,47.491,0,0,0-14.187,1.465c-0.511-2.566-1.009-5.067-1.506-7.567-0.57-2.45-1.145-4.9-1.708-7.35-0.275-1.194-.576-2.385-0.761-3.593a1.368,1.368,0,0,1,.39-1.142c1.542-.992,3.147-1.885,4.731-2.813l0.015-.008,1.948-1.548,0.213-.2,3.941-3.72c-0.134-1.131-.288-2.258-0.4-3.391-0.365-3.813-.858-7.621-1.034-11.443a42.624,42.624,0,0,1,1.028-13.044c0.5-2.554,1.282-4.907,4.17-5.727a7.009,7.009,0,0,1,1.062-.137h5.779c-0.258-1.346-1.334-1.936-2.281-2.636-3.687-1.406-7.022-.459-10.09,1.661a21.248,21.248,0,0,1-8.23,3.8,24.382,24.382,0,0,1-13.652-1.738,49.636,49.636,0,0,1-13.442-8.325c-0.241-.2-0.5-0.389-0.9-0.706-0.781,2.519-1.623,4.865-2.229,7.272-0.821,3.257-1.462,6.56-2.18,9.843-0.146,1.8-.339,3.6-0.428,5.4a36.109,36.109,0,0,0,1.311,11.683q1.272,2.558,2.544,5.115a0.127,0.127,0,0,1,.076.16c2.019,2.112,3.949,4.32,6.09,6.3a37.348,37.348,0,0,0,4.415,3.087c0.962,0.417,1.907.882,2.892,1.235a0.92,0.92,0,0,1,.694,1.36c-1.435,5.081-2.8,10.181-4.206,15.271-0.691,2.5-.7,2.435-3.3,2.145a32.833,32.833,0,0,0-15.212,1.841,6.158,6.158,0,0,0-2.1,1.611c-0.462.481-.253,0.927,0.492,0.948,2.4-.423,4.788-0.863,7.187-1.261,1.426-.237,2.862-0.407,4.315-0.528-1.1.345-2.219,0.634-3.289,1.053a1.965,1.965,0,0,0-1.517,2.3,0.147,0.147,0,0,1,.045.16c1.4-.336,2.8-0.623,4.183-1.018,2.088-.6,4.155-1.27,6.232-1.91,1.413-.455,2.807-1,4.249-1.329a1.426,1.426,0,0,0,1.256-1.327c0.5-2.629,1.047-5.249,1.576-7.872,0.54-3.284.961-6.6,2.483-9.63a1.148,1.148,0,0,1,.943-0.511,15.954,15.954,0,0,0,7.915-.335,62.086,62.086,0,0,1,1.73,9.171q0.91,5.273,1.82,10.531l1.06,0.335,4.175,0.428,0.02-.01,14.166,1.348c-0.937-1.844-2.7-1.856-4.332-2.659l7.933,0.976a4.2,4.2,0,0,0-2.711-2.216c-1.1-.343-2.252-0.547-3.381-0.812" transform="translate(-826 -307.125)"/>
    </g>
  </g>
  <g>
    <path id="Clip_5" data-name="Clip 5" class="cls-1" d="M862.072,307.111h33.9v40.852h-33.9V307.111Z" transform="translate(-826 -307.125)"/>
    <g id="Mask_by_Clip_5" data-name="Mask by Clip 5">
      <path id="Fill_4" data-name="Fill 4" class="cls-2" d="M888.017,338.587c0-3.109.032-6.691-.01-10.272-0.041-3.515-.159-7.03-0.242-10.533,1.747,1.51,1.194,17.253.252,20.805m-8.62-22.535c0.367,0.865.773,1.715,1.095,2.6a36.626,36.626,0,0,1,1.845,13.2c-0.048,3.439-.141,6.877-0.332,10.313-0.67-8.7-.922-17.425-3.011-25.946l0.4-.163m5.024-.234c2.789,8.579,1.358,17.142,0,25.788V315.818m-12.787,31.251,7.577-1.6a23.736,23.736,0,0,1,12.73,1.416c0-.467,0-0.755,0-1.043q0.045-7.032.091-14.066,0.046-6.811.1-13.625c-0.017-.18-0.031-0.36-0.053-0.539a2.786,2.786,0,0,1,1.48-3.184,8.6,8.6,0,0,0,1.932-2.262l0,0,0.483-1.416c-0.1-2.173-.8-2.938-3.216-3.5-0.347-.08-0.707-0.1-1.06-0.143l-6.029.007-3.013.036-11.629.39c-0.861.021-1.722,0.028-2.581,0.065a6.8,6.8,0,0,0-6.264,4.689c-0.33,1.307.054,1.955,1.348,2.17a2.286,2.286,0,0,1,1.917,1.668A26.1,26.1,0,0,1,866.964,321c0.483,4.243.692,8.519,1.01,12.783,0.292,4.7.585,9.392,0.884,14.182,1.018-.328,1.9-0.612,2.776-0.894" transform="translate(-826 -307.125)"/>
    </g>
  </g>
  <g>
    <path id="Clip_8" data-name="Clip 8" class="cls-1" d="M854.315,345.02h48.617v13.858H854.315V345.02Z" transform="translate(-826 -307.125)"/>
    <g id="Mask_by_Clip_8" data-name="Mask by Clip 8">
      <path id="Fill_7" data-name="Fill 7" class="cls-2" d="M880.255,352.5a0.09,0.09,0,0,1,.137-0.042c1.8-.48,3.6-0.807,5.388.031a5.22,5.22,0,0,1,1.033.3c3.228,1.7,6.445,3.424,9.665,5.14a5.228,5.228,0,0,0,5.609-1.7c1.5-3.265.847-6.34-.754-9.415a1.833,1.833,0,0,0-.68.347c-0.707,1.543-2.162,1.914-3.661,2.031-1.989.154-4,.082-5.989,0.2a24.883,24.883,0,0,0-4.626.559,11.734,11.734,0,0,0-2.72,1.439l-3.4-1.839-6.567-.01c-2.57.226-5.139,0.612-7.712,0.639a7.039,7.039,0,0,1-7-4.279c-0.108-.239-0.261-0.461-0.5-0.885l-2.791,2.946c-0.23.431-.437,0.875-0.7,1.291a4.8,4.8,0,0,0-.335,4.282c1.335,3.767,6.456,6.3,10.381,4.991,2.756-.917,5.332-2.321,8.034-3.4,2.36-.948,4.783-1.753,7.178-2.621" transform="translate(-826 -307.125)"/>
    </g>
  </g>
  <path id="Fill_10" data-name="Fill 10" class="cls-2" d="M878.268,387.343a1.358,1.358,0,0,1,.045-2.715,1.282,1.282,0,0,1,1.284,1.325,1.345,1.345,0,0,1-1.329,1.39m1.553-8.4a1.366,1.366,0,0,1-1.328,1.277,1.451,1.451,0,0,1-.105-2.9,1.491,1.491,0,0,1,1.433,1.621m0.427-7.241a1.5,1.5,0,0,1-1.409,1.507,1.481,1.481,0,0,1-1.4-1.519,1.369,1.369,0,0,1,1.34-1.44,1.5,1.5,0,0,1,1.466,1.452m0.658-6.616a1.416,1.416,0,1,1-2.827-.029,1.486,1.486,0,0,1,1.409-1.493,1.588,1.588,0,0,1,1.418,1.522m3.188,15.586c0.794-2.765,1.721-5.5,2.347-8.3a28.326,28.326,0,0,0,.233-9.946,1.205,1.205,0,0,0-.731-0.851c-1.772-.251-3.555-0.432-5.339-0.565-1.668-.125-2.565,1.272-3.676,2.159a3.772,3.772,0,0,0-.56,1.705c-2.3,9.249-1.17,18.526-.423,28.128a41.874,41.874,0,0,0,8.149-12.327" transform="translate(-826 -307.125)"/>
  <path id="Fill_12" data-name="Fill 12" class="cls-3" d="M848,391c2.946,3.887,11.987,6.387,15,4.166-5.675.431-10.484-1.4-15-4.166" transform="translate(-826 -307.125)"/>
  <path id="Fill_14" data-name="Fill 14" class="cls-3" d="M858,399.509c-0.016-.1-0.031-0.2-0.046-0.294-0.324-.024-0.652-0.029-0.973-0.072a26.678,26.678,0,0,1-5.034-.757c-2.282-.78-4.415-1.959-6.616-2.96-0.367-.166-0.757-0.285-1.135-0.426l-0.2.389c1.654,1.02,3.24,2.168,4.98,3.029a12.182,12.182,0,0,0,8.125,1.353c0.3-.066.6-0.173,0.895-0.262" transform="translate(-826 -307.125)"/>
  <path id="Fill_16" data-name="Fill 16" class="cls-3" d="M851,389c5.126,4.576,13.424,5.115,16,2.184-5.68,1.468-10.908.295-16-2.184" transform="translate(-826 -307.125)"/>
  <path id="Fill_18" data-name="Fill 18" class="cls-3" d="M871,385a59.282,59.282,0,0,1-6.77,1.816,65,65,0,0,1-7.23.33c3.334,1.837,11.893.52,14-2.146" transform="translate(-826 -307.125)"/>
  <path id="Fill_20" data-name="Fill 20" class="cls-3" d="M884,341c0.849-8.381,1.744-16.683,0-25v25Z" transform="translate(-826 -307.125)"/>
  <path id="Fill_22" data-name="Fill 22" class="cls-3" d="M879.36,316l-0.36.164c1.871,8.483,2.1,17.175,2.7,25.836,0.171-3.422.255-6.846,0.3-10.27a40.247,40.247,0,0,0-1.653-13.142c-0.288-.88-0.652-1.726-0.981-2.588" transform="translate(-826 -307.125)"/>
  <path id="Fill_24" data-name="Fill 24" class="cls-3" d="M887.221,339c0.829-3.586,1.315-19.476-.221-21,0.073,3.536.177,7.084,0.213,10.632,0.037,3.614.008,7.229,0.008,10.368" transform="translate(-826 -307.125)"/>
  <path id="Fill_26" data-name="Fill 26" class="cls-2" d="M852.344,355l-0.344.309a11.216,11.216,0,0,0,4.866,5.548A7.044,7.044,0,0,0,863,361.6c-2.33-.019-4.194-1.237-5.962-2.661-1.588-1.279-3.131-2.624-4.694-3.94" transform="translate(-826 -307.125)"/>
  <path id="Fill_28" data-name="Fill 28" class="cls-3" d="M882,365.515A1.63,1.63,0,0,0,880.494,364,1.525,1.525,0,0,0,879,365.487a1.5,1.5,0,0,0,3,.028" transform="translate(-826 -307.125)"/>
  <path id="Fill_30" data-name="Fill 30" class="cls-3" d="M881,372.474a1.563,1.563,0,0,0-1.567-1.47A1.421,1.421,0,0,0,878,372.463,1.536,1.536,0,0,0,879.494,374,1.56,1.56,0,0,0,881,372.474" transform="translate(-826 -307.125)"/>
  <path id="Fill_32" data-name="Fill 32" class="cls-3" d="M880,379.676a1.569,1.569,0,0,0-1.552-1.67,1.494,1.494,0,1,0,.114,2.985A1.446,1.446,0,0,0,880,379.676" transform="translate(-826 -307.125)"/>
  <path id="Fill_34" data-name="Fill 34" class="cls-3" d="M878.483,388a1.5,1.5,0,0,0,1.509-1.536A1.433,1.433,0,0,0,878.534,385a1.5,1.5,0,1,0-.051,3" transform="translate(-826 -307.125)"/>
</svg>
