<svg id="Poule-panneau" xmlns="http://www.w3.org/2000/svg" width="121.781" height="170" viewBox="0 0 121.781 170">
  <metadata><?xpacket begin="﻿" id="W5M0MpCehiHzreSzNTczkc9d"?>
<x:xmpmeta xmlns:x="adobe:ns:meta/" x:xmptk="Adobe XMP Core 5.6-c142 79.160924, 2017/07/13-01:06:39        ">
   <rdf:RDF xmlns:rdf="http://www.w3.org/1999/02/22-rdf-syntax-ns#">
      <rdf:Description rdf:about=""/>
   </rdf:RDF>
</x:xmpmeta>
                                                                                                    
                                                                                                    
                                                                                                    
                                                                                                    
                                                                                                    
                                                                                                    
                                                                                                    
                                                                                                    
                                                                                                    
                                                                                                    
                                                                                                    
                                                                                                    
                                                                                                    
                                                                                                    
                                                                                                    
                                                                                                    
                                                                                                    
                                                                                                    
                                                                                                    
                                                                                                    
                           
<?xpacket end="w"?></metadata>
<defs>
    <style>
      .cls-1 {
        fill: #eb5322;
      }

      .cls-1, .cls-2 {
        fill-rule: evenodd;
      }

      .cls-2 {
        fill-opacity: 0;
      }
    </style>
  </defs>
  <path id="Fill_1" data-name="Fill 1" class="cls-1" d="M593.551,1048.68c-3.651-.07-0.578-7.8,6.3-7.68s17.327-.04,26.535.31,5.313,7.98.842,9.61l-1.366,36.71s-4.03-2.58-12.47-2.41a45.026,45.026,0,0,0-14.764,2.78s-0.516-15.53-.478-22.2-0.943-17.05-4.6-17.12h0Zm28.027,2.31c1.419,4.81-.385,29.83-0.407,30.08l0.118,0.02c0.014-.06,1.034-5.78,1.742-15.61,0.57-7.88-.637-12.95-1.352-14.53l-0.1.04h0Zm-4.727,31.27,0.16-.53a88.624,88.624,0,0,0,2.61-16.36c0.688-8.3-.75-13.67-1.6-15.35l-0.226-.42,0.113,0.47c1.186,5.03-.985,31.37-1.012,31.63Zm-6.465-34.45c2.025,3.01,2.932,12.27,3.345,19.5,0.437,7.85.4,15.07,0.4,15.14l0.118,0.02a113.684,113.684,0,0,0,.978-16.69,36.859,36.859,0,0,0-2.356-13.29,24.238,24.238,0,0,0-2.388-4.76Z" transform="translate(-547 -1009)"/>
  <path id="_-e-Fill_3" data-name="-e-Fill 3" class="cls-1" d="M608.6,1172.6c10.887-.08,11.4,3.98,11.4,3.98a91.064,91.064,0,0,0-9.967-1.51c6.483,1.66,5.545,3.26,5.545,3.26l-22.29-3.08-2.776-21.12-0.589-2.02a16.156,16.156,0,0,1-6.914.51,25.715,25.715,0,0,1-3.476-.8l0.368,0.22-1.857,4.16-3.943,17.07h0.087a0.337,0.337,0,0,1-.1.02l-0.156.74L555.814,1179s-1.919-2.33,3.063-3.46c3.747-.85,2.454-0.62,4.221-1.01-7.519.83-16.02,1.97-16.02,1.97s-1.908-3.72,13.18-4.76a33.948,33.948,0,0,1,10.242.93l6.726-21.65a35.023,35.023,0,0,1-17.049-14.84c-8.878-15.99,3.507-44.18,3.507-44.18s22.314,22.61,40.724,10.05c7.575-5.18,14.146-2.97,15.4,1.21a29.512,29.512,0,0,0-6.38-.55,12.036,12.036,0,0,0-1.857.25,5.207,5.207,0,0,0-1.826.78,7.174,7.174,0,0,0-2.318,3.11,31.9,31.9,0,0,0-1.807,6.98,67.674,67.674,0,0,0-.629,6.89c-0.195,4.47-.084,8.64.083,12.22,0.17,3.47,1.019,6.38,1.214,8.45-4.056,4.05-8.9,7.84-13.876,9.86l4.13,22.7a51.17,51.17,0,0,1,12.048-1.35h0Zm-27.256-40.39,0.479,0.2a22.016,22.016,0,0,0,3.437,1.08c4.051,0.95,11.654,1.68,17.091-4.07l0.262-.27-0.335.16c-6.1,3.09-9.762,4.62-20.427,2.98Zm-5.024,1.9,0.407,0.33a25.419,25.419,0,0,0,6.6,3.67c3.57,1.33,8.883,2.28,13.965-.76l0.322-.19-0.359.07c-5.486,1.03-9.186,1.54-16-1-1.365-.52-2.822-1.14-4.465-1.9Zm10.358,12.92-0.365-.02a29.722,29.722,0,0,1-9.492-1.55,38.894,38.894,0,0,1-9.931-6.02l-0.413-.32,0.337,0.42a25.9,25.9,0,0,0,9.9,7.27,14.417,14.417,0,0,0,9.616.33Zm5.511-3.85-0.367-.02a29.523,29.523,0,0,1-9.5-1.56,38.278,38.278,0,0,1-9.927-6.01l-0.413-.32,0.329,0.42a26.115,26.115,0,0,0,9.913,7.27,14.452,14.452,0,0,0,9.605.34Z" transform="translate(-547 -1009)"/>
  <path id="Fill_5" data-name="Fill 5" class="cls-1" d="M614.733,1105a22.826,22.826,0,0,1,5.954,1.02c1.51,10.63-2.612,22.88-8.71,30.79-1.307,1.7-2.8,3.46-4.424,5.19-0.157-2.06-.337-4.86-0.449-8.19-0.118-3.61-.181-7.83.063-12.32a68.647,68.647,0,0,1,.665-6.88,20.23,20.23,0,0,1,1.974-6.7,5.816,5.816,0,0,1,2.057-2.3,5.884,5.884,0,0,1,2.87-.61m-4.5,30.63a1.571,1.571,0,0,0,1.68-1.49,1.616,1.616,0,0,0-1.393-1.79,1.584,1.584,0,0,0-1.683,1.49,1.618,1.618,0,0,0,1.4,1.79m2.2-9.77a1.7,1.7,0,0,0-1.335-1.95,1.631,1.631,0,0,0-1.821,1.43,1.7,1.7,0,0,0,1.338,1.95,1.612,1.612,0,0,0,1.818-1.43m0.739-8.18a1.714,1.714,0,0,0-1.366-1.98,1.631,1.631,0,0,0-1.848,1.45,1.743,1.743,0,0,0,1.364,1.99,1.652,1.652,0,0,0,1.85-1.46m0.989-7.7a1.74,1.74,0,0,0-1.362-1.99,1.656,1.656,0,0,0-1.855,1.46,1.727,1.727,0,0,0,1.362,1.98,1.636,1.636,0,0,0,1.855-1.45" transform="translate(-547 -1009)"/>
  <path id="Fill_7" data-name="Fill 7" class="cls-1" d="M590.817,1104.27c4.812-.85-6.265,5.53-11.618-8.47-1.6-4.17,6.8,9.33,11.618,8.47" transform="translate(-547 -1009)"/>
  <path id="Fill_9" data-name="Fill 9" class="cls-1" d="M587.732,1097.3c-9.233-7.06,1.572-14.3,1.572-14.3,4.237,13.52,23.433.21,29.024,8.98,4.355-6.24,19.241,1.6,20.822-6.27,0,0,4.706,9.9-.895,13.47s-11.1-5.55-19.895-7.14a0.074,0.074,0,0,1,.028.05c-13.33.23-21.428,12.26-30.656,5.21" transform="translate(-547 -1009)"/>
  <path id="Fill_11" data-name="Fill 11" class="cls-1" d="M636.082,1103.68c3.47-2.04-3.5,6.43-10.763-4.03-2.167-3.12,7.291,6.08,10.763,4.03" transform="translate(-547 -1009)"/>
  <g>
    <path id="Clip_14" data-name="Clip 14" class="cls-2" d="M655.037,1065.12h13.748v27.61H655.037v-27.61Z" transform="translate(-547 -1009)"/>
    <g id="Mask_by_Clip_14" data-name="Mask by Clip 14">
      <path id="Fill_13" data-name="Fill 13" class="cls-1" d="M660.761,1065.24a42.7,42.7,0,0,0-4.788,5.49c-0.948,1.62-2.362,5.61,2.636,7.93,0.695,0.32.822,1.94,0.708,2.86-0.144,1.11.431,2.31,0.583,3.38,0.331,2.26-.637,4.18-0.115,6.37,0.534,2.24,3.934,1.25,5.634,1.2,1.941-.07,3.828-1.27,3.072-4.19-0.485-1.88-1.568-2.06-3-2.24,1.965-.36,4.1-1.98,3-4.97-0.741-2-1.318-1.86-2.754-2.09,2.116-1.49,3.6-2.46.3-5.39-1.357-1.21-2.469-.87-3.929-0.54,1.758-1.43,4.008-2.44,2.984-5.78-0.767-2.49-2.585-2.23-4.326-2.03" transform="translate(-547 -1009)"/>
    </g>
  </g>
  <path id="Fill_16" data-name="Fill 16" class="cls-1" d="M650.882,1051.95l-2.817-31.18,6.645-.8-0.4,8.95-3.221-3.18,1.008,20.24Zm5.875,30.9c-0.039.6,0.309,0.44,0.585,0.57L658,1107.35l-4.068,1.65L646,1013.15l9.295-4.15,1.623,58.97-0.261.22a28.935,28.935,0,0,0-2.481,3.84c-0.587,1.28-.95,8.12,1.814,8.68,0.63,0.13.813,1.43,0.767,2.14h0Z" transform="translate(-547 -1009)"/>
</svg>
