<svg id="Page_1" data-name="Page 1" xmlns="http://www.w3.org/2000/svg" width="63.09" height="59.719" viewBox="0 0 63.09 59.719">
  <metadata><?xpacket begin="﻿" id="W5M0MpCehiHzreSzNTczkc9d"?>
<x:xmpmeta xmlns:x="adobe:ns:meta/" x:xmptk="Adobe XMP Core 5.6-c142 79.160924, 2017/07/13-01:06:39        ">
   <rdf:RDF xmlns:rdf="http://www.w3.org/1999/02/22-rdf-syntax-ns#">
      <rdf:Description rdf:about=""/>
   </rdf:RDF>
</x:xmpmeta>
                                                                                                    
                                                                                                    
                                                                                                    
                                                                                                    
                                                                                                    
                                                                                                    
                                                                                                    
                                                                                                    
                                                                                                    
                                                                                                    
                                                                                                    
                                                                                                    
                                                                                                    
                                                                                                    
                                                                                                    
                                                                                                    
                                                                                                    
                                                                                                    
                                                                                                    
                                                                                                    
                           
<?xpacket end="w"?></metadata>
<defs>
    <style>
      .cls-1 {
        fill: #515151;
      }

      .cls-1, .cls-2, .cls-3 {
        fill-rule: evenodd;
      }

      .cls-2 {
        fill-opacity: 0;
      }

      .cls-3 {
        fill: #fff;
      }
    </style>
  </defs>
  <path id="Fill_1" data-name="Fill 1" class="cls-1" d="M1160.4,454.12a0.159,0.159,0,0,1,.15.068,0.115,0.115,0,0,1-.01.147,2.4,2.4,0,0,1-1.68.522,4.7,4.7,0,0,1-3.48-1.765c-0.14-.151-0.2-0.235-0.15-0.311l0.03-.057,0.1-.01a2.768,2.768,0,0,1,.84.378,9.324,9.324,0,0,0,3.34,1.234,1.177,1.177,0,0,0,.47-0.086,1.055,1.055,0,0,1,.39-0.12" transform="translate(-1122 -427.281)"/>
  <path id="Fill_3" data-name="Fill 3" class="cls-1" d="M1160.46,452.351c-2.42,1.576-4.8-2.448-8.6-3.149a0.186,0.186,0,0,0,.01.02c-5.77.1-9.27,5.412-13.26,2.3s0.69-6.312.69-6.312c1.83,5.965,10.13.092,12.54,3.964,1.89-2.758,8.32.707,9-2.768,0,0,2.04,4.369-.38,5.941" transform="translate(-1122 -427.281)"/>
  <path id="Fill_5" data-name="Fill 5" class="cls-1" d="M1130.43,469.027a0.068,0.068,0,0,0,0,.085l0.14,0.179a11.385,11.385,0,0,0,4.34,3.151,6.9,6.9,0,0,0,2.36.438,6.167,6.167,0,0,0,1.87-.292l0.15-.046a0.064,0.064,0,0,0-.02-0.123l-0.16-.009a12.893,12.893,0,0,1-4.11-.67,16.935,16.935,0,0,1-4.31-2.58l-0.17-.137a0.072,0.072,0,0,0-.09,0m2.4-1.659a0.066,0.066,0,0,0-.01.083l0.15,0.181a11.288,11.288,0,0,0,4.34,3.151,6.9,6.9,0,0,0,2.36.44,6.138,6.138,0,0,0,1.87-.293l0.15-.047a0.058,0.058,0,0,0,.04-0.072,0.064,0.064,0,0,0-.06-0.054l-0.16-.006a12.72,12.72,0,0,1-4.11-.672,16.558,16.558,0,0,1-4.31-2.578l-0.18-.139a0.064,0.064,0,0,0-.08.006m1.96-.516a0.068,0.068,0,0,0-.08.03,0.053,0.053,0,0,0,.01.08l0.17,0.131a11.145,11.145,0,0,0,2.9,1.6,8.3,8.3,0,0,0,2.88.544,6.294,6.294,0,0,0,3.25-.876l0.14-.081a0.064,0.064,0,0,0,.03-0.078,0.064,0.064,0,0,0-.07-0.042l-0.16.036a16.314,16.314,0,0,1-3.02.36,10.916,10.916,0,0,1-3.91-.8c-0.58-.211-1.21-0.48-1.94-0.81l-0.2-.1m2.17-.823a0.072,0.072,0,0,0-.07.046,0.058,0.058,0,0,0,.04.077l0.22,0.094a10.108,10.108,0,0,0,1.49.457,10.241,10.241,0,0,0,2.37.285,6.8,6.8,0,0,0,5.13-2.055l0.11-.118a0.076,0.076,0,0,0,.01-0.079,0.06,0.06,0,0,0-.08-0.018l-0.15.07a11.046,11.046,0,0,1-5.6,1.565,21.867,21.867,0,0,1-3.25-.288l-0.22-.036m-7.69-16.529s9.71,9.745,17.72,4.331c3.3-2.23,6.61-1.216,7.15.586a17.222,17.222,0,0,0-3.21-.3,4.3,4.3,0,0,0-.82.111,2.189,2.189,0,0,0-.79.333,3.2,3.2,0,0,0-1.02,1.34,14.29,14.29,0,0,0-.78,3.008c-0.15,1.007-.22,2-0.27,2.966-0.09,1.926-.04,3.728.03,5.27,0.08,1.5.45,2.749,0.53,3.644a19.575,19.575,0,0,1-6.04,4.249l1.8,9.78a22.658,22.658,0,0,1,5.24-.583c4.74-.034,4.97,1.717,4.97,1.717a40.4,40.4,0,0,0-4.34-.653c2.82,0.718,2.41,1.41,2.41,1.41l-9.7-1.326-1.21-9.105-0.25-.876a7.036,7.036,0,0,1-3.01.223,10.682,10.682,0,0,1-1.51-.342l0.15,0.09-0.8,1.8-1.72,7.358h0.04a0.227,0.227,0,0,0-.04.01l-0.08.316L1125.84,487s-0.84-1.011,1.33-1.494c1.63-.364,1.07-0.267,1.84-0.436-3.27.354-6.98,0.85-6.98,0.85s-0.82-1.6,5.74-2.055a14.917,14.917,0,0,1,4.46.4l2.93-9.328a15.226,15.226,0,0,1-7.42-6.4c-3.86-6.891,1.53-19.039,1.53-19.039" transform="translate(-1122 -427.281)"/>
  <path id="Fill_7" data-name="Fill 7" class="cls-1" d="M1141.63,454.3a2.606,2.606,0,0,1,.38-0.034,0.339,0.339,0,0,1,.31.11l0.04,0.069-0.04.1a1.914,1.914,0,0,1-1.28.321c-0.99,0-3.47-.368-5.01-3.765a0.46,0.46,0,0,1-.07-0.445l0.03-.063,0.1-.013a2.689,2.689,0,0,1,.97.8c1.18,1.149,3.19,3.122,4.57,2.921" transform="translate(-1122 -427.281)"/>
  <g>
    <path id="Clip_10" data-name="Clip 10" class="cls-2" d="M1141.9,427.291h17.55v20.542H1141.9V427.291Z" transform="translate(-1122 -427.281)"/>
    <g id="Mask_by_Clip_10" data-name="Mask by Clip 10">
      <path id="Fill_9" data-name="Fill 9" class="cls-1" d="M1155.49,437.1a15.345,15.345,0,0,0-.59-6.378,0.071,0.071,0,0,0-.09-0.037l-0.04.021a0.064,0.064,0,0,0-.04.077c0.61,2.06-.15,12.672-0.18,13.128a0.066,0.066,0,0,0,.05.068l0.06,0.006h0.01a0.077,0.077,0,0,0,.06-0.047c0-.021.45-2.561,0.76-6.838m-1.75-.045a14.359,14.359,0,0,0-.71-6.744l-0.1-.184a0.066,0.066,0,0,0-.08-0.031,0.073,0.073,0,0,0-.04.076l0.05,0.2c0.52,2.179-.43,13.7-0.44,13.811l-0.02.242a0.067,0.067,0,0,0,.05.069h0.01a0.06,0.06,0,0,0,.06-0.045l0.07-.231a38.049,38.049,0,0,0,1.15-7.165m-2.61,7.468a50.005,50.005,0,0,0,.42-7.292,16.028,16.028,0,0,0-1.03-5.828,10.756,10.756,0,0,0-1.05-2.1,0.272,0.272,0,0,0-.05-0.031,0.063,0.063,0,0,0-.05.016l-0.04.029a0.061,0.061,0,0,0-.01.088c0.87,1.307,1.27,5.343,1.45,8.5,0.19,3.256.18,6.275,0.18,6.615a0.06,0.06,0,0,0,.06.061l0.05,0.008h0a0.08,0.08,0,0,0,.07-0.065m-5.78-17.231c3.01,0.049,7.6-.021,11.63.137,4.05,0.147,2.34,3.483.38,4.2l-0.6,16.043a10.46,10.46,0,0,0-5.47-1.052,19.887,19.887,0,0,0-6.49,1.215s-0.22-6.791-.2-9.7-0.42-7.46-2.02-7.485-0.25-3.409,2.77-3.358" transform="translate(-1122 -427.281)"/>
    </g>
  </g>
  <path id="Fill_12" data-name="Fill 12" class="cls-1" d="M1150.15,457.97a0.827,0.827,0,0,0,.8-0.7,0.843,0.843,0,0,0-.68-0.951,0.815,0.815,0,0,0-.93.7,0.828,0.828,0,0,0,.68.945,0.95,0.95,0,0,0,.13.011m-0.5,3.225a0.814,0.814,0,0,0,.8-0.7,0.826,0.826,0,0,0-.68-0.95,0.832,0.832,0,0,0-.25,1.644c0.05,0,.09.006,0.13,0.006m-0.24,3.387a0.8,0.8,0,0,0,.78-0.692,0.8,0.8,0,1,0-.9.684,0.605,0.605,0,0,0,.12.008m-0.17,3.042a0.78,0.78,0,0,0,.77-0.712,0.791,0.791,0,0,0-.7-0.863,0.771,0.771,0,0,0-.84.714,0.783,0.783,0,0,0,.69.861h0.08m0.71-12.5a2.837,2.837,0,0,1,1.32-.268,10.812,10.812,0,0,1,2.73.453c0.69,4.678-1.2,10.075-4,13.559a27.523,27.523,0,0,1-1.85,2.059,20.9,20.9,0,0,1-.39-3.382c-0.05-1.588-.08-3.446.03-5.424a29.1,29.1,0,0,1,.31-3.032,8.531,8.531,0,0,1,.9-2.95,2.7,2.7,0,0,1,.95-1.015" transform="translate(-1122 -427.281)"/>
  <path id="Fill_14" data-name="Fill 14" class="cls-3" d="M1174.38,467.56a12.1,12.1,0,0,0,7.88-5.5c-1.5,2.05-4.04,3-7.88,5.5m-14.88-6.97s17.13,0.931,24.64-.376c-1.24,5.691-6.94,8.492-11.88,8.569-10.11.16-12.76-8.193-12.76-8.193" transform="translate(-1122 -427.281)"/>
  <g>
    <path id="Clip_17" data-name="Clip 17" class="cls-2" d="M1160.21,458.809h24.88v8.367h-24.88v-8.367Z" transform="translate(-1122 -427.281)"/>
    <g id="Mask_by_Clip_17" data-name="Mask by Clip 17">
      <path id="Fill_16" data-name="Fill 16" class="cls-1" d="M1175.24,465.978a12.146,12.146,0,0,0,7.94-5.363c-1.5,2-4.07,2.923-7.94,5.363m5.9-4.4c-1.56,1.227-3.91,1.631-7.59,2.951a11.792,11.792,0,0,0,7.59-2.951m-20.93-2.4s17.29,0.906,24.88-.371c-1.25,5.555-7.01,8.288-12,8.365-10.2.154-12.88-7.994-12.88-7.994" transform="translate(-1122 -427.281)"/>
    </g>
  </g>
  <path id="Fill_19" data-name="Fill 19" class="cls-1" d="M1166.12,458.071a13.007,13.007,0,0,0,2.33-.155,0.937,0.937,0,0,0,.64-1.314,0.9,0.9,0,0,0-1.27-.621c-0.97.227-2.41,1.186-1.7,2.09" transform="translate(-1122 -427.281)"/>
  <path id="Fill_21" data-name="Fill 21" class="cls-1" d="M1175.57,459.036a19.016,19.016,0,0,0-.78-2.964,1.838,1.838,0,0,0-1.79-1.214c-0.61-.017-0.84.417-0.44,1.4,0.52,1.278,2.07,3.383,3.01,2.779" transform="translate(-1122 -427.281)"/>
  <path id="Fill_23" data-name="Fill 23" class="cls-1" d="M1172.2,459.762a6.59,6.59,0,0,0,.1-2.02,3.14,3.14,0,0,0-2.6-1.8c-0.79.114-.56,1.637-0.36,2.429,0.25,1.03,2.11,1.406,2.99,1.845" transform="translate(-1122 -427.281)"/>
  <path id="Fill_25" data-name="Fill 25" class="cls-1" d="M1175.71,459.8c0.27-.671.72-1.291,0.45-1.887-0.36-.783-0.98-0.622-0.25-1.157,0.19-.142.39-0.112,0.61-0.251,0.69-.455.36-1.1,0.85-1.65,0.44,0.669.19,1.236,1.15,1.134,0.65-.069,1.14-0.569,1.76-0.685,0.48,0.563-.38,1.5-0.93,1.618,0.5-.151,3.24-1.257,2.54.432-0.36.865-1.73,0.59-2.41,0.712a4.542,4.542,0,0,0-3.1,2.146" transform="translate(-1122 -427.281)"/>
  <path id="Fill_27" data-name="Fill 27" class="cls-1" d="M1180.86,469.312a15.619,15.619,0,0,0-2.1-2.053,3.337,3.337,0,0,0-4.17.257c-0.24.207-1.07-.191-1.53-0.2a6.584,6.584,0,0,0-1.61.211c-1.57.361-1.49-.618-3.15-0.629-1.15-.007-1.08,1.228-1.25,1.8-0.2.659,0.16,1.393,1.67,1.368a1.354,1.354,0,0,0,1.45-.832c-0.06.692,0.48,1.539,2.07,1.4a1.194,1.194,0,0,0,1.34-.762c0.47,0.834.94,1.341,2.51,0.862a1.4,1.4,0,0,0,.81-1.607c0.48,0.709.71,1.548,2.45,1.471,1.31-.062,1.76-0.627,1.51-1.3" transform="translate(-1122 -427.281)"/>
</svg>
