<?xml version="1.0" encoding="utf-8"?>
<!-- Generator: Adobe Illustrator 20.1.0, SVG Export Plug-In . SVG Version: 6.00 Build 0)  -->
<svg version="1.1" id="Слой_1" xmlns="http://www.w3.org/2000/svg" xmlns:xlink="http://www.w3.org/1999/xlink" x="0px" y="0px"
	 viewBox="0 0 58 82.8" style="enable-background:new 0 0 58 82.8;" xml:space="preserve">
<style type="text/css">
	.st0{fill-opacity:0;}
	.st1{fill:#FFFFFF;}
</style>
<g>
	<g>
		<path class="st0" d="M28.1,0h23.7v28.5H28.1V0z"/>
		<path class="st1" d="M49,6l-0.8,22.3c0,0-2.4-1.6-7.4-1.5c-5,0.1-8.7,1.7-8.7,1.7s-0.3-9.4-0.3-13.5c0-4-0.6-10.3-2.7-10.4
			c-2.2,0-0.3-4.7,3.7-4.7C36.8,0.1,43,0,48.5,0.2C53.9,0.4,51.6,5,49,6z M40.5,7C39.8,5.1,39,4.1,39,4.1l-0.1,0
			c1.2,1.8,1.7,7.4,2,11.8c0.3,4.8,0.2,9.1,0.2,9.2l0.1,0c0,0,0.6-3.3,0.6-10.1C41.9,11.5,41.1,8.7,40.5,7z M43.5,5.5l-0.1-0.3
			L43.5,5.5c0.6,3.1-0.7,19-0.7,19.2l0,0.3l0.1-0.3c0,0,1-3.6,1.5-9.9C44.9,9.8,44,6.5,43.5,5.5z M45.7,6L45.7,6
			c0.8,2.9-0.3,18.1-0.3,18.3l0.1,0c0,0,0.6-3.5,1-9.5C46.8,10.1,46.1,7,45.7,6z"/>
	</g>
	<path class="st1" d="M40,36.3c-0.4,0-0.7,0.1-1.1,0.2c-0.4,0.1-0.8,0.2-1.1,0.5c-0.7,0.5-1.1,1.2-1.4,1.9c-0.6,1.4-0.9,2.8-1.1,4.3
		c-0.2,1.4-0.3,2.8-0.4,4.2c-0.1,2.7,0,5.3,0.1,7.4c0.1,2.1,0.6,3.9,0.7,5.1c-2.4,2.5-5.4,4.8-8.4,6l2.5,13.8
		c2.7-0.7,5.3-0.8,7.3-0.8c6.6,0,6.9,2.4,6.9,2.4s-4.1-0.8-6-0.9c3.9,1,3.3,2,3.3,2l-13.4-1.9l-1.7-12.9l-0.4-1.2
		c-1.4,0.4-2.8,0.5-4.2,0.3c-0.7-0.1-1.4-0.3-2.1-0.5l0.2,0.1l-1.1,2.5l-2.4,10.4h0c0,0,0,0-0.1,0l-0.1,0.4l-10.9,3
		c0,0-1.2-1.4,1.8-2.1c2.3-0.5,1.5-0.4,2.5-0.6C5.2,80.6,0,81.3,0,81.3S-1.1,79,8,78.4c1.9-0.1,4.3,0.1,6.2,0.6l4.1-13.2
		c-4.6-1.8-8.4-5.5-10.3-9c-5.3-9.7,2.1-26.9,2.1-26.9s13.4,13.8,24.5,6.1c4.6-3.2,8.5-1.8,9.3,0.7C42.8,36.4,41.3,36.3,40,36.3z
		 M11.7,58.5l0.2,0.3c0,0,2.4,3.1,6,4.4c2,0.7,3.9,0.8,5.8,0.2l0.2-0.1l-0.2,0c-2.1-0.1-3.8-0.2-5.7-1c-1.7-0.7-3.6-1.8-6-3.7
		L11.7,58.5z M15.1,56.1l0.2,0.3c0,0,2.5,3.1,6,4.4c2,0.7,3.9,0.8,5.8,0.2l0.2-0.1l-0.2,0c-2.1-0.1-3.8-0.2-5.7-1
		c-1.7-0.7-3.6-1.8-6-3.7L15.1,56.1z M18,55.6l-0.3-0.1L18,55.6c0,0.1,1.6,1.4,3.9,2.3c2.2,0.8,5.4,1.4,8.4-0.5l0.2-0.1l-0.2,0
		c-3.3,0.6-5.5,0.9-9.6-0.6C19.8,56.4,18.9,56,18,55.6z M33.3,52.5c-3.7,1.9-5.9,2.8-12.3,1.8l-0.3,0l0.3,0.1c0,0,0.8,0.4,2.1,0.7
		C25.5,55.6,30.1,56.1,33.3,52.5l0.2-0.1L33.3,52.5z"/>
	<path class="st1" d="M38.2,56.7c-0.8,1-1.8,2.1-2.8,3.1c-0.1-1.2-0.2-2.9-0.3-4.9c-0.1-2.1-0.1-4.7,0-7.3c0.1-1.3,0.2-2.7,0.4-4.1
		c0.2-1.4,0.5-2.8,1.3-4c0.3-0.6,0.8-1.1,1.3-1.4c0.5-0.3,1.2-0.4,1.8-0.4c1.3,0,2.6,0.3,3.8,0.6C44.8,44.7,42.1,52,38.2,56.7z
		 M36.2,54.9c-0.1,0.5,0.4,1,0.9,1.1c0.5,0,1-0.3,1.1-0.9c0.1-0.5-0.4-1-0.9-1.1C36.7,54,36.2,54.4,36.2,54.9z M36.5,49.9
		c-0.1,0.6,0.3,1.1,0.9,1.2c0.6,0.1,1.1-0.3,1.2-0.8c0.1-0.6-0.3-1.1-0.9-1.2C37.1,48.9,36.5,49.3,36.5,49.9z M36.9,45
		c-0.1,0.6,0.3,1.1,0.9,1.2c0.6,0.1,1.1-0.3,1.2-0.9c0.1-0.6-0.3-1.1-0.9-1.2C37.5,44.1,37,44.4,36.9,45z M38.7,39.6
		c-0.6-0.1-1.1,0.3-1.2,0.9c-0.1,0.6,0.3,1.1,0.9,1.2c0.6,0.1,1.1-0.3,1.2-0.9C39.7,40.2,39.3,39.6,38.7,39.6z"/>
	<path class="st1" d="M26.3,36.4c3-0.4-3.9,2.8-7.1-4.2C18.1,30.1,23.3,36.8,26.3,36.4"/>
	<path class="st1" d="M23.2,34.2c-5.5-4.1,0.9-8.4,0.9-8.4c2.5,8,14,0.1,17.3,5.3c2.6-3.7,11.5,0.9,12.4-3.7c0,0,2.8,5.8-0.5,7.9
		c-3.3,2.1-6.6-3.3-11.9-4.2c0,0,0,0,0,0C33.6,31.3,28.7,38.3,23.2,34.2"/>
	<path class="st1" d="M52.5,37.9c2-1.4-2,4.3-6.3-2.7C44.9,33.1,50.4,39.3,52.5,37.9"/>
	<path class="st1" d="M52,47.4c0,0,4.1-0.4,1.4-0.4c-1.5,0,2.1,0.7,2.1,0.7l0.9-2.1c2.3-3.9,1.6-4.6,1.6-4.6c-6-1.9-5.6,5.4-5.6,5.4
		L52,47.4z"/>
	<path class="st1" d="M57.7,53.4c0.9,3.1-0.5,9.3-3.2,9.8c-1.1,0.5-2.5,0.5-2.5,0.5c-1.3,0.3-2.4-0.2-2.6-1.6
		c-0.1-0.4-0.1-0.7,0-0.9c2.6,0.6,2.9-0.4,2.9-0.4L51,60.9c0.2,0,0.4-0.1,0.6-0.2c-1,0-2.6,0.1-3.1-0.8c-0.8-1.3-0.4-1.4,0.5-1.7
		c4.4,0.5,4.5-0.8,4.5-0.8l-2.2,0.6l-2-0.3c-0.4-0.2-0.6-0.5-0.8-1.3c-0.3-1.6,0.7-2.3,1.9-2.5c2.1,0.5,2.4-0.2,2.4-0.2l-2.3-0.1
		L49.6,53c-0.2-0.2-0.4-0.6-0.4-1.1c-0.1-1.9,1.2-2.3,2.5-2.1c1,0.2,3.1,0.1,3.5,1.1C56.3,51.3,57.3,52,57.7,53.4"/>
</g>
</svg>
