<svg id="Page_1" data-name="Page 1" xmlns="http://www.w3.org/2000/svg" width="69.563" height="60.031" viewBox="0 0 69.563 60.031">
  <metadata><?xpacket begin="﻿" id="W5M0MpCehiHzreSzNTczkc9d"?>
<x:xmpmeta xmlns:x="adobe:ns:meta/" x:xmptk="Adobe XMP Core 5.6-c142 79.160924, 2017/07/13-01:06:39        ">
   <rdf:RDF xmlns:rdf="http://www.w3.org/1999/02/22-rdf-syntax-ns#">
      <rdf:Description rdf:about=""/>
   </rdf:RDF>
</x:xmpmeta>
                                                                                                    
                                                                                                    
                                                                                                    
                                                                                                    
                                                                                                    
                                                                                                    
                                                                                                    
                                                                                                    
                                                                                                    
                                                                                                    
                                                                                                    
                                                                                                    
                                                                                                    
                                                                                                    
                                                                                                    
                                                                                                    
                                                                                                    
                                                                                                    
                                                                                                    
                                                                                                    
                           
<?xpacket end="w"?></metadata>
<defs>
    <style>
      .cls-1 {
        fill: #515151;
      }

      .cls-1, .cls-2, .cls-3, .cls-4, .cls-5 {
        fill-rule: evenodd;
      }

      .cls-2 {
        fill-opacity: 0;
      }

      .cls-3, .cls-4, .cls-5 {
        fill: none;
        stroke: #fefefe;
      }

      .cls-3 {
        stroke-width: 0.789px;
      }

      .cls-4 {
        stroke-linecap: round;
        stroke-linejoin: round;
        stroke-miterlimit: 10;
      }

      .cls-4, .cls-5 {
        stroke-width: 0.316px;
      }
    </style>
  </defs>
  <path id="Fill_1" data-name="Fill 1" class="cls-1" d="M872.467,455.428a0.148,0.148,0,0,1,.141.1,0.244,0.244,0,0,1-.009.208,1.894,1.894,0,0,1-1.594.744c-0.81,0-2.038-.431-3.309-2.514a0.524,0.524,0,0,1-.139-0.435l0.032-.086,0.092-.016a2.349,2.349,0,0,1,.8.537c0.839,0.655,2.245,1.759,3.163,1.759a0.782,0.782,0,0,0,.447-0.123,0.775,0.775,0,0,1,.376-0.169" transform="translate(-835 -427.969)"/>
  <path id="Fill_3" data-name="Fill 3" class="cls-1" d="M872.518,453.079c-2.3,1.5-4.555-2.325-8.164-2.992a0.039,0.039,0,0,1,.012.025c-5.472.1-8.795,5.136-12.581,2.182s0.646-5.989.646-5.989c1.739,5.662,9.617.086,11.908,3.761,1.788-2.616,7.9.669,8.547-2.626,0,0,1.929,4.145-.368,5.639" transform="translate(-835 -427.969)"/>
  <g>
    <path id="Clip_6" data-name="Clip 6" class="cls-2" d="M835,450.85h31.22V488H835V450.85Z" transform="translate(-835 -427.969)"/>
    <g id="Mask_by_Clip_6" data-name="Mask by Clip 6">
      <path id="Fill_5" data-name="Fill 5" class="cls-1" d="M843.189,470.2a0.063,0.063,0,0,0,0,.083l0.142,0.178a10.958,10.958,0,0,0,4.215,3.121,6.483,6.483,0,0,0,2.289.438,5.947,5.947,0,0,0,1.815-.289l0.147-.052a0.055,0.055,0,0,0,.044-0.065,0.061,0.061,0,0,0-.059-0.055l-0.154-.006a12.378,12.378,0,0,1-4-.664,16.188,16.188,0,0,1-4.181-2.556l-0.177-.139a0.06,0.06,0,0,0-.081.006m2.329-1.64a0.056,0.056,0,0,0-.006.079l0.14,0.181a11.015,11.015,0,0,0,4.22,3.121,6.54,6.54,0,0,0,2.292.433,5.852,5.852,0,0,0,1.811-.289l0.151-.045a0.073,0.073,0,0,0,.04-0.07,0.062,0.062,0,0,0-.057-0.055l-0.156-.006a12.194,12.194,0,0,1-4-.663,16.2,16.2,0,0,1-4.181-2.557l-0.177-.137a0.056,0.056,0,0,0-.079.008m1.9-.515a0.07,0.07,0,0,0-.081.03,0.064,0.064,0,0,0,.016.079l0.162,0.129a10.672,10.672,0,0,0,2.817,1.588,7.9,7.9,0,0,0,2.8.541,6.014,6.014,0,0,0,3.155-.868l0.136-.081a0.065,0.065,0,0,0,.027-0.077,0.057,0.057,0,0,0-.071-0.038l-0.153.028a15.467,15.467,0,0,1-2.93.362,10.439,10.439,0,0,1-3.8-.79c-0.564-.21-1.18-0.477-1.882-0.8l-0.2-.1m2.107-.814a0.069,0.069,0,0,0-.069.044,0.072,0.072,0,0,0,.035.079l0.217,0.089a9.456,9.456,0,0,0,1.452.454,9.63,9.63,0,0,0,2.3.281,6.522,6.522,0,0,0,4.979-2.034l0.111-.115a0.061,0.061,0,0,0-.069-0.1l-0.144.07a10.58,10.58,0,0,1-5.444,1.552,21,21,0,0,1-3.157-.285l-0.214-.036m-7.47-16.377s9.43,9.656,17.217,4.293c3.206-2.208,6.413-1.2,6.945.582a16.212,16.212,0,0,0-3.127-.3,3.941,3.941,0,0,0-.788.109,2.114,2.114,0,0,0-.77.333,3.037,3.037,0,0,0-.981,1.325,14,14,0,0,0-.765,2.978,28.828,28.828,0,0,0-.264,2.943c-0.087,1.907-.039,3.69.036,5.214,0.071,1.488.429,2.729,0.51,3.613a19.093,19.093,0,0,1-5.864,4.212l1.744,9.688a21.467,21.467,0,0,1,5.093-.578c4.6-.034,4.824,1.7,4.824,1.7a38.586,38.586,0,0,0-4.215-.648c2.743,0.709,2.345,1.4,2.345,1.4l-9.426-1.315-1.173-9.02-0.25-.864a6.7,6.7,0,0,1-2.922.22,11.086,11.086,0,0,1-1.47-.343l0.154,0.1-0.782,1.774-1.669,7.292H846.5a0.178,0.178,0,0,0-.039.008l-0.071.315L838.73,488s-0.816-1,1.293-1.48c1.584-.356,1.038-0.263,1.785-0.432-3.178.353-6.776,0.842-6.776,0.842s-0.8-1.588,5.574-2.034a14.332,14.332,0,0,1,4.333.4l2.845-9.238a14.854,14.854,0,0,1-7.212-6.341c-3.751-6.827,1.486-18.865,1.486-18.865" transform="translate(-835 -427.969)"/>
    </g>
  </g>
  <path id="Fill_8" data-name="Fill 8" class="cls-1" d="M853.633,454.924a2.366,2.366,0,0,1,.364-0.033,0.307,0.307,0,0,1,.29.109l0.035,0.061-0.039.093a1.792,1.792,0,0,1-1.208.3c-0.945,0-3.3-.349-4.754-3.578a0.477,0.477,0,0,1-.077-0.418l0.038-.062,0.09-.01a2.525,2.525,0,0,1,.919.759c1.123,1.094,3.033,2.966,4.342,2.775" transform="translate(-835 -427.969)"/>
  <path id="Fill_10" data-name="Fill 10" class="cls-1" d="M867.713,437.225a13.689,13.689,0,0,0-.587-6,0.061,0.061,0,0,0-.08-0.031l-0.047.019a0.056,0.056,0,0,0-.038.07c0.6,1.941-.145,11.924-0.177,12.349a0.062,0.062,0,0,0,.054.066l0.05,0h0.01a0.061,0.061,0,0,0,.061-0.046,63.979,63.979,0,0,0,.754-6.431m-1.723-.04a12.952,12.952,0,0,0-.7-6.346l-0.1-.176a0.063,0.063,0,0,0-.078-0.025,0.061,0.061,0,0,0-.04.071l0.054,0.19c0.5,2.049-.429,12.89-0.443,12.991l-0.016.226a0.06,0.06,0,0,0,.052.066h0.008a0.059,0.059,0,0,0,.06-0.045l0.071-.214a35.161,35.161,0,0,0,1.133-6.738m-2.576,7.02a45.542,45.542,0,0,0,.421-6.858,14.473,14.473,0,0,0-1.023-5.483,9.688,9.688,0,0,0-1.034-1.969,0.1,0.1,0,0,0-.043-0.031,0.08,0.08,0,0,0-.052.012l-0.04.033a0.06,0.06,0,0,0-.016.079c0.864,1.23,1.257,5.023,1.432,7.991,0.184,3.067.178,5.905,0.178,6.224a0.065,0.065,0,0,0,.056.06l0.048,0.006h0.007a0.082,0.082,0,0,0,.066-0.064m-5.7-16.2c2.974,0.046,7.491-.02,11.469.125s2.3,3.276.362,3.954l-0.588,15.091a10.647,10.647,0,0,0-5.389-.994,20.4,20.4,0,0,0-6.384,1.145s-0.222-6.388-.2-9.126-0.411-7.013-1.991-7.038-0.25-3.212,2.723-3.157" transform="translate(-835 -427.969)"/>
  <path id="Fill_12" data-name="Fill 12" class="cls-1" d="M862.734,458.409a0.779,0.779,0,0,0,.758-0.666,0.794,0.794,0,0,0-.644-0.9,0.772,0.772,0,0,0-.878.66,0.784,0.784,0,0,0,.644.9,0.825,0.825,0,0,0,.12.008m-0.471,3.063a0.778,0.778,0,0,0,.76-0.666,0.791,0.791,0,0,0-.648-0.9,0.769,0.769,0,0,0-.875.661,0.783,0.783,0,0,0,.641.9c0.041,0,.082.006,0.122,0.006m-0.226,3.215a0.765,0.765,0,0,0,.742-0.66,0.758,0.758,0,1,0-.86.65,0.564,0.564,0,0,0,.118.01m-0.163,2.891a0.732,0.732,0,0,0,.726-0.684,0.746,0.746,0,0,0-.663-0.814,0.735,0.735,0,0,0-.8.676,0.745,0.745,0,0,0,.662.818,0.423,0.423,0,0,0,.073,0m0.668-11.865a2.656,2.656,0,0,1,1.253-.255,10.082,10.082,0,0,1,2.6.428,17.815,17.815,0,0,1-3.795,12.871,24.59,24.59,0,0,1-1.762,1.955,19.7,19.7,0,0,1-.362-3.209c-0.055-1.511-.08-3.274.026-5.154a27.769,27.769,0,0,1,.292-2.877,8.067,8.067,0,0,1,.861-2.794,2.454,2.454,0,0,1,.892-0.965" transform="translate(-835 -427.969)"/>
  <path id="Fill_14" data-name="Fill 14" class="cls-1" d="M886.8,468.159a14.912,14.912,0,0,0-2-1.946,3.164,3.164,0,0,0-3.958.243c-0.227.2-1.011-.18-1.452-0.186a6.2,6.2,0,0,0-1.527.2c-1.485.343-1.413-.587-2.984-0.6-1.1,0-1.025,1.162-1.191,1.709-0.186.625,0.151,1.319,1.586,1.3a1.283,1.283,0,0,0,1.375-.79c-0.053.656,0.456,1.462,1.959,1.332a1.145,1.145,0,0,0,1.277-.722c0.452,0.79.892,1.272,2.384,0.817a1.331,1.331,0,0,0,.77-1.525c0.462,0.67.671,1.466,2.33,1.393,1.241-.057,1.667-0.591,1.429-1.228" transform="translate(-835 -427.969)"/>
  <path id="Fill_16" data-name="Fill 16" class="cls-1" d="M869.677,460.542s23.411,0.063,25.348.105,0.5,1.089.149,1.213-0.978.41-.978,0.41-0.5,3.1-1.3,3.215c-1.369.185-20.209,0.305-21.293-.41-0.629-.413-0.723-3.124-1.428-3.225a1.783,1.783,0,0,1-1.483-.551c-0.428-.528.279-0.684,0.988-0.757" transform="translate(-835 -427.969)"/>
  <path id="Stroke_18" data-name="Stroke 18" class="cls-3" d="M883.169,457.491l19.966,2.242-0.171,25.216L882.8,478.837v-2.562" transform="translate(-835 -427.969)"/>
  <path id="Stroke_20" data-name="Stroke 20" class="cls-4" d="M903.093,475.939l-6.6,2.908s-18.617-5.211-18.784-5.215l16.309-5.971,9.114,2.37" transform="translate(-835 -427.969)"/>
  <path id="Stroke_22" data-name="Stroke 22" class="cls-5" d="M891.949,477.83l11.186-5.084" transform="translate(-835 -427.969)"/>
  <path id="Stroke_24" data-name="Stroke 24" class="cls-5" d="M893.983,477.83l9.152-4.067" transform="translate(-835 -427.969)"/>
  <path id="Stroke_26" data-name="Stroke 26" class="cls-5" d="M889.915,475.8l14.237-5.085" transform="translate(-835 -427.969)"/>
  <path id="Stroke_28" data-name="Stroke 28" class="cls-5" d="M886.864,475.8l15.255-6.1" transform="translate(-835 -427.969)"/>
  <path id="Stroke_30" data-name="Stroke 30" class="cls-5" d="M884.83,474.78l15.255-6.1" transform="translate(-835 -427.969)"/>
  <path id="Stroke_32" data-name="Stroke 32" class="cls-5" d="M882.8,474.78l15.254-6.1" transform="translate(-835 -427.969)"/>
  <path id="Stroke_34" data-name="Stroke 34" class="cls-5" d="M879.746,473.763l16.271-6.1" transform="translate(-835 -427.969)"/>
  <path id="Stroke_36" data-name="Stroke 36" class="cls-3" d="M903.72,484.949l0.432-30.549-20.339-1.993v7.01" transform="translate(-835 -427.969)"/>
  <path id="Fill_38" data-name="Fill 38" class="cls-1" d="M896.017,455.965A1.1,1.1,0,1,0,895,457.491a1.35,1.35,0,0,0,1.017-1.526" transform="translate(-835 -427.969)"/>
  <path id="Fill_40" data-name="Fill 40" class="cls-1" d="M899.068,456.984a1.1,1.1,0,1,0-1.017,1.524,1.352,1.352,0,0,0,1.017-1.524" transform="translate(-835 -427.969)"/>
</svg>
