<svg id="Pret-à_Cuir" data-name="Pret-à Cuir" xmlns="http://www.w3.org/2000/svg" width="103.59" height="90.031" viewBox="0 0 103.59 90.031">
  <metadata><?xpacket begin="﻿" id="W5M0MpCehiHzreSzNTczkc9d"?>
<x:xmpmeta xmlns:x="adobe:ns:meta/" x:xmptk="Adobe XMP Core 5.6-c142 79.160924, 2017/07/13-01:06:39        ">
   <rdf:RDF xmlns:rdf="http://www.w3.org/1999/02/22-rdf-syntax-ns#">
      <rdf:Description rdf:about=""/>
   </rdf:RDF>
</x:xmpmeta>
                                                                                                    
                                                                                                    
                                                                                                    
                                                                                                    
                                                                                                    
                                                                                                    
                                                                                                    
                                                                                                    
                                                                                                    
                                                                                                    
                                                                                                    
                                                                                                    
                                                                                                    
                                                                                                    
                                                                                                    
                                                                                                    
                                                                                                    
                                                                                                    
                                                                                                    
                                                                                                    
                           
<?xpacket end="w"?></metadata>
<defs>
    <style>
      .cls-1 {
        fill: #515151;
      }

      .cls-1, .cls-2 {
        fill-rule: evenodd;
      }

      .cls-2 {
        fill-opacity: 0;
      }
    </style>
  </defs>
  <path id="Fill_1" data-name="Fill 1" class="cls-1" d="M1351.72,477.282a0.24,0.24,0,0,1,.24.153,0.372,0.372,0,0,1-.01.344,3.45,3.45,0,0,1-2.82,1.221c-1.42,0-3.61-.706-5.86-4.126a0.819,0.819,0,0,1-.24-0.717l0.05-.135,0.17-.022a4.255,4.255,0,0,1,1.41.874c1.49,1.075,3.98,2.886,5.61,2.886a1.446,1.446,0,0,0,.79-0.2,1.449,1.449,0,0,1,.66-0.277" transform="translate(-1293 -435.969)"/>
  <path id="Fill_3" data-name="Fill 3" class="cls-1" d="M1351.22,474.468c-3.63,2.311-7.21-3.593-12.92-4.621a0.345,0.345,0,0,1,.03.034c-8.66.151-13.91,7.933-19.91,3.378-5.99-4.571,1.02-9.259,1.02-9.259,2.76,8.748,15.22.134,18.84,5.812,2.83-4.043,12.5,1.037,13.52-4.058,0,0,3.05,6.4-.58,8.714" transform="translate(-1293 -435.969)"/>
  <g>
    <path id="Clip_6" data-name="Clip 6" class="cls-2" d="M1293,471.211h48.8V526H1293V471.211Z" transform="translate(-1293 -435.969)"/>
    <g id="Mask_by_Clip_6" data-name="Mask by Clip 6">
      <path id="Fill_5" data-name="Fill 5" class="cls-1" d="M1305.8,499.741a0.1,0.1,0,0,0-.01.126l0.23,0.262a16.965,16.965,0,0,0,6.58,4.6,10.8,10.8,0,0,0,3.58.644,9.752,9.752,0,0,0,2.84-.423l0.23-.072a0.1,0.1,0,0,0,.07-0.1,0.1,0.1,0,0,0-.09-0.081l-0.25-.011a20.3,20.3,0,0,1-6.24-.977,25.712,25.712,0,0,1-6.54-3.773l-0.28-.2a0.09,0.09,0,0,0-.12.009m3.64-2.422a0.088,0.088,0,0,0-.01.117l0.22,0.268a17.11,17.11,0,0,0,6.59,4.6,10.8,10.8,0,0,0,3.59.638,9.938,9.938,0,0,0,2.83-.419l0.24-.075a0.1,0.1,0,0,0,.06-0.1,0.1,0.1,0,0,0-.09-0.074l-0.24-.015a20.2,20.2,0,0,1-6.26-.974,25.793,25.793,0,0,1-6.53-3.77l-0.27-.2a0.112,0.112,0,0,0-.13.009m2.97-.75a0.1,0.1,0,0,0-.12.037,0.11,0.11,0,0,0,.02.121l0.26,0.192a17.206,17.206,0,0,0,4.4,2.336,13.066,13.066,0,0,0,4.38.8,9.824,9.824,0,0,0,4.93-1.281l0.22-.121a0.084,0.084,0,0,0,.04-0.109,0.1,0.1,0,0,0-.11-0.061l-0.25.046a25.288,25.288,0,0,1-4.57.532,17.081,17.081,0,0,1-5.94-1.167c-0.89-.307-1.85-0.7-2.95-1.184l-0.31-.14m3.3-1.205a0.1,0.1,0,0,0-.11.064,0.1,0.1,0,0,0,.06.115l0.33,0.132a15.02,15.02,0,0,0,2.27.669,16.245,16.245,0,0,0,3.6.417,10.56,10.56,0,0,0,7.79-3l0.17-.172a0.126,0.126,0,0,0,.02-0.118,0.118,0.118,0,0,0-.13-0.026l-0.22.1c-2.95,1.423-5,2.288-8.51,2.288a34.128,34.128,0,0,1-4.94-.423l-0.33-.049m-11.68-24.153s14.75,14.242,26.91,6.328c5.01-3.259,10.03-1.773,10.86.859a27.052,27.052,0,0,0-4.89-.439,6.61,6.61,0,0,0-1.23.169,3.2,3.2,0,0,0-1.2.483,4.588,4.588,0,0,0-1.54,1.954,19.7,19.7,0,0,0-1.19,4.4,38.716,38.716,0,0,0-.42,4.339c-0.13,2.813-.05,5.443.05,7.693,0.12,2.19.68,4.014,0.81,5.322a29.655,29.655,0,0,1-9.17,6.213l2.72,14.285a35.543,35.543,0,0,1,7.97-.848c7.2-.052,7.54,2.5,7.54,2.5a65.69,65.69,0,0,0-6.59-.954c4.28,1.052,3.66,2.06,3.66,2.06l-14.73-1.939-1.83-13.3-0.39-1.276a10.961,10.961,0,0,1-4.56.325,16.8,16.8,0,0,1-2.3-.5l0.23,0.138-1.22,2.621-2.61,10.75h0.06a0.186,0.186,0,0,0-.06.012l-0.11.465L1298.83,526s-1.27-1.474,2.02-2.181c2.48-.535,1.62-0.394,2.79-0.635-4.97.517-10.59,1.232-10.59,1.232s-1.25-2.339,8.71-3a23.709,23.709,0,0,1,6.77.589l4.45-13.624a22.875,22.875,0,0,1-11.27-9.357c-5.87-10.066,2.32-27.817,2.32-27.817" transform="translate(-1293 -435.969)"/>
    </g>
  </g>
  <path id="Fill_8" data-name="Fill 8" class="cls-1" d="M1321.99,478.216a3.215,3.215,0,0,1,.53-0.051,0.465,0.465,0,0,1,.43.155l0.05,0.1-0.05.134a2.67,2.67,0,0,1-1.79.447c-1.39,0-4.86-.513-7.02-5.273a0.761,0.761,0,0,1-.11-0.623l0.06-.086,0.13-.018a3.539,3.539,0,0,1,1.36,1.121c1.66,1.615,4.48,4.375,6.41,4.1" transform="translate(-1293 -435.969)"/>
  <g>
    <path id="Clip_11" data-name="Clip 11" class="cls-2" d="M1323.34,435.978h26.61v30.957h-26.61V435.978Z" transform="translate(-1293 -435.969)"/>
    <g id="Mask_by_Clip_11" data-name="Mask by Clip 11">
      <path id="Fill_10" data-name="Fill 10" class="cls-1" d="M1343.96,450.762c0.37-5.212-.43-8.573-0.91-9.616a0.09,0.09,0,0,0-.12-0.048l-0.07.027a0.087,0.087,0,0,0-.06.116c0.92,3.105-.23,19.1-0.28,19.779a0.1,0.1,0,0,0,.09.1l0.07,0.016h0.02a0.091,0.091,0,0,0,.09-0.076c0.01-.034.7-3.859,1.17-10.3m-2.66-.067c0.46-5.483-.5-9.052-1.08-10.164l-0.15-.278a0.1,0.1,0,0,0-.13-0.045,0.1,0.1,0,0,0-.05.112l0.08,0.305c0.77,3.286-.66,20.648-0.68,20.812l-0.02.363a0.086,0.086,0,0,0,.07.1h0.01a0.077,0.077,0,0,0,.09-0.067l0.11-.348a55.97,55.97,0,0,0,1.75-10.794m-3.96,11.248a77.249,77.249,0,0,0,.65-10.983,24.29,24.29,0,0,0-1.58-8.79,16.191,16.191,0,0,0-1.59-3.151,0.2,0.2,0,0,0-.07-0.049,0.1,0.1,0,0,0-.08.025l-0.06.042a0.1,0.1,0,0,0-.02.131c1.33,1.969,1.93,8.052,2.2,12.8,0.28,4.916.27,9.457,0.27,9.969a0.122,0.122,0,0,0,.09.1h0.09a0.112,0.112,0,0,0,.1-0.1m-8.78-25.965c4.58,0.079,11.53-.025,17.66.207s3.53,5.248.56,6.333l-0.91,24.174s-2.68-1.7-8.29-1.588a30.243,30.243,0,0,0-9.84,1.831s-0.34-10.234-.3-14.619c0.02-4.395-.64-11.234-3.07-11.279s-0.38-5.139,4.19-5.059" transform="translate(-1293 -435.969)"/>
    </g>
  </g>
  <path id="Fill_13" data-name="Fill 13" class="cls-1" d="M1336.41,483.64a1.184,1.184,0,0,0,1.12-1.05,1.253,1.253,0,0,0-.95-1.418,1.159,1.159,0,0,0-1.3,1.038,1.231,1.231,0,0,0,.95,1.415,0.912,0.912,0,0,0,.18.015m-0.69,4.822a1.167,1.167,0,0,0,1.11-1.049,1.243,1.243,0,0,0-.95-1.421,1.164,1.164,0,0,0-1.3,1.04,1.237,1.237,0,0,0,.96,1.418c0.06,0.006.12,0.012,0.18,0.012m-0.34,5.06a1.152,1.152,0,0,0,1.09-1.037,1.211,1.211,0,0,0-.93-1.394,1.157,1.157,0,0,0-1.28,1.023,1.215,1.215,0,0,0,.94,1.393,0.912,0.912,0,0,0,.18.015m-0.24,4.546a1.112,1.112,0,0,0,1.07-1.071,1.157,1.157,0,0,0-.98-1.284,1.094,1.094,0,0,0-1.17,1.065,1.15,1.15,0,0,0,.98,1.287,0.907,0.907,0,0,0,.1,0m0.98-18.673a3.836,3.836,0,0,1,1.85-.395,13.862,13.862,0,0,1,3.83.666c0.96,6.992-1.68,15.055-5.6,20.261a37.293,37.293,0,0,1-2.6,3.073,33.771,33.771,0,0,1-.53-5.051c-0.08-2.373-.12-5.145.03-8.105,0.09-1.482.21-3,.44-4.528a13.3,13.3,0,0,1,1.27-4.4,3.824,3.824,0,0,1,1.31-1.519" transform="translate(-1293 -435.969)"/>
  <path id="Fill_15" data-name="Fill 15" class="cls-1" d="M1342,498.233s-0.14-2.584,2.07-2.193,21.65,3.564,21.65,3.564l1.55,2.882L1369,504l-15.03-3.39L1342,498.233" transform="translate(-1293 -435.969)"/>
  <path id="Fill_17" data-name="Fill 17" class="cls-1" d="M1360.95,501.544a19.744,19.744,0,0,0-2.45-2.837,4.46,4.46,0,0,0-5.45-.174c-0.34.232-1.36-.364-1.96-0.425a8.589,8.589,0,0,0-2.11.072c-2.08.271-1.85-.953-4-1.171-1.5-.141-1.56,1.417-1.86,2.124-0.35.806,0.02,1.767,1.98,1.922a1.783,1.783,0,0,0,1.99-.878c-0.16.864,0.42,2,2.49,2.016,1.39,0.011,1.42-.246,1.85-0.8,0.5,1.105,1.04,1.8,3.14,1.384,1.15-.227,1.18-1.274,1.27-1.925,0.53,0.947.71,2.027,2.99,2.143,1.7,0.077,2.36-.58,2.12-1.45" transform="translate(-1293 -435.969)"/>
  <path id="Fill_19" data-name="Fill 19" class="cls-1" d="M1360.95,501.542a19.561,19.561,0,0,0-2.46-2.833,4.447,4.447,0,0,0-5.44-.177c-0.34.235-1.36-.367-1.96-0.428a8.5,8.5,0,0,0-2.11.075c-2.09.268-1.85-.957-4-1.169-1.5-.147-1.57,1.415-1.86,2.122-0.35.807,0.01,1.766,1.98,1.921a1.8,1.8,0,0,0,1.99-.873c-0.17.862,0.42,2,2.49,2.012,1.39,0.016,1.42-.243,1.85-0.8,0.5,1.1,1.04,1.8,3.14,1.382,1.15-.221,1.18-1.272,1.27-1.924,0.53,0.948.71,2.029,2.99,2.139,1.7,0.08,2.36-.575,2.12-1.451" transform="translate(-1293 -435.969)"/>
  <g>
    <path id="Clip_22" data-name="Clip 22" class="cls-2" d="M1362.09,497.432h34.49v11.089h-34.49V497.432Z" transform="translate(-1293 -435.969)"/>
    <g id="Mask_by_Clip_22" data-name="Mask by Clip 22">
      <path id="Fill_21" data-name="Fill 21" class="cls-1" d="M1380.98,506.738c6.34,1.893,11.64-2.187,11.64-2.187-2.8,1.653-6.07,1.344-11.64,2.187h0Zm8.85-3.456c-2.22,1.26-5.09,1.173-9.81,1.977a13.417,13.417,0,0,0,9.81-1.977h0Zm6.75-2.454s-3.84,7.755-6.51,7.692c-5.7-.135-21.33-1.782-23.93-2.325-2.57-.543-4.05-8.763-4.05-8.763Z" transform="translate(-1293 -435.969)"/>
    </g>
  </g>
  <path id="Fill_24" data-name="Fill 24" class="cls-1" d="M1376.89,481.777a1.161,1.161,0,0,0-.44-1.411,0.933,0.933,0,0,0-1.34-.141,1.152,1.152,0,0,0,.44,1.4,0.934,0.934,0,0,0,1.34.148" transform="translate(-1293 -435.969)"/>
  <path id="Fill_26" data-name="Fill 26" class="cls-1" d="M1378.63,488.39a0.859,0.859,0,0,0-.37-1.1,0.891,0.891,0,0,0-1.17-.12,1.081,1.081,0,0,0,1.54,1.22" transform="translate(-1293 -435.969)"/>
  <path id="Fill_28" data-name="Fill 28" class="cls-1" d="M1382.15,485.071a0.688,0.688,0,0,0-.02-0.956,0.679,0.679,0,0,0-.94.2,0.671,0.671,0,0,0,.02.957,0.7,0.7,0,0,0,.94-0.2" transform="translate(-1293 -435.969)"/>
  <path id="Fill_30" data-name="Fill 30" class="cls-1" d="M1375.15,485.078a0.7,0.7,0,0,0-.03-0.964,0.75,0.75,0,0,0-.91,1.16,0.7,0.7,0,0,0,.94-0.2" transform="translate(-1293 -435.969)"/>
  <path id="Fill_32" data-name="Fill 32" class="cls-1" d="M1379.14,495.069a0.67,0.67,0,0,0-.02-0.956,0.691,0.691,0,0,0-.94.2,0.683,0.683,0,0,0,.03.96,0.663,0.663,0,0,0,.93-0.2" transform="translate(-1293 -435.969)"/>
  <path id="Fill_34" data-name="Fill 34" class="cls-1" d="M1378.73,500a0.914,0.914,0,0,0-1.7-.54,0.913,0.913,0,0,0,1.7.54" transform="translate(-1293 -435.969)"/>
  <path id="Fill_36" data-name="Fill 36" class="cls-1" d="M1380.87,500.5a0.4,0.4,0,0,0-.32-0.476,0.367,0.367,0,1,0-.22.68,0.421,0.421,0,0,0,.54-0.2" transform="translate(-1293 -435.969)"/>
  <path id="Fill_38" data-name="Fill 38" class="cls-1" d="M1376.24,504.038a0.66,0.66,0,1,0-1.19-.376,0.779,0.779,0,0,0,.34,1.016,0.769,0.769,0,0,0,.85-0.64" transform="translate(-1293 -435.969)"/>
  <path id="Fill_40" data-name="Fill 40" class="cls-1" d="M1360,473.622s0.12,3.621,7.4,5.741c2.98,0.878,4.84,2.437,6.67,1.144,1.75-1.241.53-2.019-1.97-2.915s-3.07-2.6-1.88-2.786,4.51,1.962,4.94,3.385a1.446,1.446,0,0,0,2.84-.533c-0.13-1.886-3.32-7.045-7.25-7.59s-9.61,2.283-10.75,3.554" transform="translate(-1293 -435.969)"/>
  <path id="Fill_42" data-name="Fill 42" class="cls-1" d="M1369,470.316a12.59,12.59,0,0,1,1.86-.272,14.592,14.592,0,0,1,7.25,1.745c1.86,1.19,2.28,2.2,1.54,3.614s-2.76-.115-2.76-0.115Z" transform="translate(-1293 -435.969)"/>
  <path id="Fill_44" data-name="Fill 44" class="cls-1" d="M1369,473a13.448,13.448,0,0,1,.93-1.369,11.546,11.546,0,0,1,5.18-3.486c1.72-.4,2.52.013,2.85,1.431s-1.67,1.7-1.67,1.7Z" transform="translate(-1293 -435.969)"/>
  <path id="Fill_46" data-name="Fill 46" class="cls-1" d="M1368.22,495.921a20.661,20.661,0,0,0,3.57,0,1.415,1.415,0,0,0,1.18-1.85c-0.09-.769-0.68-1.208-1.84-1.028-1.5.238-3.86,1.5-2.91,2.881" transform="translate(-1293 -435.969)"/>
  <path id="Fill_48" data-name="Fill 48" class="cls-1" d="M1385,499.894a21.575,21.575,0,0,0-.92-4.061,3.115,3.115,0,0,0-2.89-1.824c-1.05-.09-1.51.466-0.96,1.824,0.71,1.774,3.08,4.766,4.77,4.061" transform="translate(-1293 -435.969)"/>
  <path id="Fill_50" data-name="Fill 50" class="cls-1" d="M1378.51,496.377a7.16,7.16,0,0,0,.45-2.7,4.8,4.8,0,0,0-3.89-2.675c-1.29.073-1.14,2.141-.93,3.22,0.26,1.4,3.17,2.1,4.53,2.777" transform="translate(-1293 -435.969)"/>
</svg>
