<?xml version="1.0" encoding="utf-8"?>
<!-- Generator: Adobe Illustrator 20.1.0, SVG Export Plug-In . SVG Version: 6.00 Build 0)  -->
<svg version="1.1" id="Слой_1" xmlns="http://www.w3.org/2000/svg" xmlns:xlink="http://www.w3.org/1999/xlink" x="0px" y="0px"
	 viewBox="0 0 399 411" style="enable-background:new 0 0 399 411;" xml:space="preserve">
<style type="text/css">
	.st0{fill:#FFFFFF;}
</style>
<g transform="translate(0.000000,411.000000) scale(0.100000,-0.100000)">
	<path class="st0" d="M1520,4077c-48-13-94-39-123-72c-27-30-55-94-50-114c2-10,29-30,59-44c36-18,54-33,54-45c0-10,5-23,10-28
		c6-6,19-46,30-90c15-65,20-137,25-404c4-179,11-345,16-370c6-25,10-72,9-105c-4-105-3-108,23-101c184,55,305,74,452,71
		c116-2,227-19,272-43c12-7,31-12,42-12c19,0,21,6,22,68c0,37,2,105,4,152s6,131,9,187c3,57,7,107,10,112s6,124,6,266
		c1,282-2,266,65,315c44,32,85,97,85,135c0,45-11,67-47,91c-24,16-56,20-208,27C1943,4087,1568,4089,1520,4077z M1995,3663
		c3-16,10-46,16-68c22-86,30-215,23-374c-3-90-10-176-14-190c-6-23-8-21-13,19c-4,25-8,131-11,235c-3,105-8,204-11,220
		c-13,71-17,185-6,185C1985,3690,1992,3678,1995,3663z M2168,3603c13-70-13-482-32-500c-14-14-17,40-12,209c8,260,15,343,28,330
		C2158,3636,2166,3618,2168,3603z M2269,3433c0-89-4-174-8-190l-8-28l-6,35c-8,48-9,323-1,357C2260,3663,2269,3597,2269,3433z"/>
	<path class="st0" d="M1150,2759c-48-52-71-91-89-151c-32-101,79-253,209-286c122-31,162-21,470,127c36,17,71,31,77,31
		c7,0,27,6,45,14s73,21,121,30c79,14,92,14,117,1c16-8,38-15,48-15c11,0,25-7,32-15s19-15,27-15c7,0,26-8,41-19
		c71-49,181-119,221-140c84-43,190-24,230,41c23,37,40,136,30,172c-5,17-9,44-9,60c0,33-31,126-43,126c-4,0-12-11-18-24
		c-17-36-59-62-114-70c-56-8-68-8-208,0c-81,5-108,3-166-15c-37-11-74-27-80-35c-15-18-32-12-85,26c-24,17-53,28-75,29
		c-20,1-49,4-66,8c-16,4-46,4-65-1c-19-4-119-8-221-8c-171-1-189,0-227,20c-53,28-87,62-114,116c-12,24-26,44-32,43
		C1200,2809,1175,2786,1150,2759z"/>
	<path class="st0" d="M470,2530c-6-21-15-42-20-45c-6-3-10-15-10-25c0-11-6-34-14-52c-14-35-34-103-59-203c-9-33-22-87-31-120
		c-8-33-18-87-22-120c-3-33-8-71-11-85s-8-79-10-144c-8-196,42-402,123-513c13-17,24-35,24-38c0-25,228-247,270-263c8-3,29-15,45-27
		c17-12,52-33,78-46c27-13,51-27,53-31c3-4-9-49-26-100s-38-118-46-148c-9-30-22-71-29-90s-20-62-30-95s-25-82-33-110
		c-8-27-17-56-19-64c-3-11-17-12-76-6C339,239,0,176,0,89c0-10,3-19,8-19c51,1,238,22,251,29c9,5,23,6,30,1c11-6,9-10-8-19
		c-15-9-21-21-21-46c0-39,14-44,74-26c17,5,57,16,88,25c32,9,84,23,115,32c32,9,78,22,103,30s53,14,62,14s37,9,61,19
		c43,19,46,22,57,78c11,54,20,93,50,218c7,28,16,68,21,90c25,122,34,154,52,195c40,88,43,91,85,73c27-11,63-14,142-12l105,4l13-65
		c7-36,15-90,18-120s11-91,19-136c8-44,15-98,15-119s7-80,16-131c20-111,19-110,172-123c59-6,120-15,135-20c16-6,50-11,77-11
		s71-5,97-10c26-6,79-14,116-19c77-9,94,3,61,41l-19,21l77-6c43-3,80-2,82,2c8,13-22,49-57,67c-31,16-102,33-162,38c-16,1-43,5-60,9
		c-28,7-79,3-305-23c-98-11-110-5-110,51c0,22-6,65-14,97c-15,58-29,138-46,247c-5,33-13,76-18,95c-6,19-13,63-17,97l-6,62l33,15
		c120,55,265,166,369,282c14,16,38,40,55,54c53,46,189,227,210,280c3,8,10,22,15,30s12,22,15,30s10,22,15,30s12,22,15,30
		c22,58,34,92,47,140c9,30,23,81,32,113c16,58,25,333,11,356c-12,19-79,31-175,31h-95l-43-46c-24-26-43-53-43-60s-6-28-14-46
		c-33-77-39-148-45-476c-4-208-10-333-16-335c-15-3-19,639-4,678c6,16,14,55,19,85c6,47,16,80,37,135c22,56,60,90,126,110
		c56,17,85,17,190-1c35-6,37-5,37,19c0,30-54,75-113,96c-46,15-128,16-156,2c-11-6-28-11-39-11c-10,0-39-11-63-25
		c-24-13-53-29-64-35s-33-19-50-30c-16-11-37-22-45-26c-8-3-24-10-34-16c-11-6-49-19-85-29c-121-35-300-22-446,32
		c-64,24-170,74-210,100c-16,10-37,22-45,26c-26,13-145,95-181,127c-87,75-102,86-120,86C486,2570,478,2559,470,2530z M1951,2110
		c23-13,24-37,2-62c-29-32-73-16-73,27C1880,2115,1912,2130,1951,2110z M1921,1880c36-20,17-70-26-70c-25,0-45,18-45,40
		C1850,1885,1884,1899,1921,1880z M1894,1644c21-8,21-63,1-70c-29-11-65,5-65,29C1830,1641,1857,1658,1894,1644z M1563,1415
		c0-6-8-12-19-14c-10-2-23-9-27-17s-19-14-33-14s-35-7-48-15c-18-12-48-15-135-13c-150,4-146,22,5,26c82,2,123,7,138,17
		c11,8,31,15,44,15s30,7,39,15C1543,1432,1561,1431,1563,1415z M1890,1380c21-39-27-79-58-48c-13,13-16,50-5,61
		C1841,1407,1880,1399,1890,1380z M1106,1235c14-11,51-14,151-15c136,0,176-6,151-21c-7-5-72-9-144-9c-103,0-134,3-144,14
		c-6,8-25,16-42,18c-38,4-51,28-16,28C1075,1250,1095,1243,1106,1235z M956,1145c4-8,17-15,30-15c14,0,27-7,30-15c4-9,19-15,38-15
		c18,0,41-7,52-15c10-8,39-15,64-15s56-3,69-7c23-6,23-7,5-14c-32-13-107-9-134,6c-14,8-37,14-51,15c-15,0-32,7-39,15s-21,15-32,15
		c-10,0-21,7-24,15c-4,8-14,15-24,15s-20,7-24,15c-4,10,1,15,15,15C942,1160,953,1153,956,1145z M750,1048c0-13-23-5-28,10
		c-2,7,2,10,12,6C743,1061,750,1053,750,1048z M806,1025c4-8,16-15,29-15c12,0,28-7,35-15s23-15,37-15c13,0,34-6,46-12
		c12-7,49-15,82-18s60-9,60-15c0-17-91-17-124-1c-16,9-43,16-59,16s-35,7-42,15s-21,15-31,15s-21,5-24,11c-4,5-18,14-31,19
		s-24,14-24,20C760,1046,800,1042,806,1025z"/>
	<path class="st0" d="M960,2475c0-19,71-118,113-158c51-48,132-79,210-78c37,0,72,3,77,6c21,13-3,25-50,25c-69,0-131,38-264,162
		C1003,2472,960,2494,960,2475z"/>
	<path class="st0" d="M2300,2347c0-14,91-107,105-107c4,0,16-6,24-13c9-7,39-19,66-25c41-10,61-10,105,1c30,8,54,18,53,23
		c-2,5-33,11-70,14c-55,5-84,14-148,49c-44,23-87,49-96,57C2319,2364,2300,2364,2300,2347z"/>
	<path class="st0" d="M3620,2104c-25-7-97-19-160-28c-63-8-155-20-205-27c-49-7-121-14-160-16c-38-2-106-10-151-18
		c-44-8-103-15-130-16c-27,0-85-8-129-17l-80-17l2-38c2-31-1-39-21-46c-22-9-22-13-19-108l4-98l-33-19c-18-10-40-28-49-38
		c-14-19-18-19-52-4c-30,12-42,13-65,3c-51-22-72-49-72-89c0-42-6-46-36-23c-31,23-94,19-137-10c-33-23-37-30-37-69s6-50,45-90
		c24-26,55-51,67-56c13-6,39-20,58-31c53-33,133-49,173-35c49,17,73,37,97,84s46,54,59,19c5-12,9-89,10-171s4-153,7-157
		c7-12,109-11,164,2c25,6,77,14,115,19c39,4,101,14,138,21c78,15,97,9,111-37c15-48,48-118,65-137c9-10,31-25,49-33
		c40-16,82-3,121,39l24,26l34-26c32-24,36-25,76-13c24,7,53,25,69,44l26,31l31-18c29-17,33-17,67-1c38,18,64,62,64,109
		c0,28,21,33,40,10c18-21,79-19,115,5c55,36,62,116,14,163c-11,10-20,25-20,35c-1,9-3,31-5,47c-1,17-6,100-9,185
		c-4,85-11,196-16,245c-9,80-14,170-22,354l-2,56h-95C3708,2116,3645,2110,3620,2104z"/>
</g>
</svg>
