<svg id="Poule" xmlns="http://www.w3.org/2000/svg" width="89.781" height="127.75" viewBox="0 0 89.781 127.75">
  <defs>
    <style>
      .cls-1 {
        fill-opacity: 0;
      }

      .cls-1, .cls-2 {
        fill-rule: evenodd;
      }

      .cls-2 {
        fill: #ea5322;
      }
    </style>
  </defs>
  <g>
    <path id="Clip_2" data-name="Clip 2" class="cls-1" d="M504.243,212.273h36.65v42.636h-36.65V212.273Z" transform="translate(-462 -212.25)"/>
    <g id="Mask_by_Clip_2" data-name="Mask by Clip 2">
      <path id="Fill_1" data-name="Fill 1" class="cls-2" d="M521.1,218.447c1.848,2.741,2.676,11.133,3.055,17.7,0.4,7.116.376,13.671,0.376,13.734l0.1,0.009a101.532,101.532,0,0,0,.9-15.131A33.04,33.04,0,0,0,523.37,222.7a21.387,21.387,0,0,0-2.19-4.318Zm5.916,31.254,0.15-.482a80.328,80.328,0,0,0,2.389-14.838c0.628-7.528-.686-12.4-1.47-13.925l-0.205-.382,0.1,0.426c1.084,4.56-.9,28.456-0.93,28.7Zm4.332-28.366c1.3,4.369-.356,27.061-0.371,27.291l0.1,0.019c0.018-.056.952-5.248,1.6-14.166,0.522-7.152-.581-11.749-1.233-13.177l-0.1.033h0Zm-25.679-2.092c-3.348-.063-0.532-7.074,5.77-6.969s15.88-.035,24.316.285,4.866,7.229.769,8.719l-1.252,33.293s-3.7-2.34-11.424-2.187a41.763,41.763,0,0,0-13.53,2.525s-0.47-14.092-.439-20.133-0.861-15.475-4.21-15.533h0Z" transform="translate(-462 -212.25)"/>
    </g>
  </g>
  <g>
    <path id="Clip_5" data-name="Clip 5" class="cls-1" d="M462,258.938h67.794V340H462V258.938Z" transform="translate(-462 -212.25)"/>
    <g id="Mask_by_Clip_5" data-name="Mask by Clip 5">
      <path id="Fill_4" data-name="Fill 4" class="cls-2" d="M503.963,306.621l-0.344-.014a27.239,27.239,0,0,1-8.819-1.455,35.764,35.764,0,0,1-9.218-5.6l-0.39-.295,0.311,0.39a24.038,24.038,0,0,0,9.207,6.761,13.272,13.272,0,0,0,8.919.32Zm-5.119,3.59-0.34-.015a27.27,27.27,0,0,1-8.815-1.457,35.662,35.662,0,0,1-9.223-5.595l-0.384-.3,0.317,0.388A24.008,24.008,0,0,0,489.6,310a13.277,13.277,0,0,0,8.92.315Zm-9.622-12.036,0.381,0.309a23.53,23.53,0,0,0,6.123,3.414c3.317,1.242,8.247,2.122,12.967-.7l0.3-.176-0.336.066c-5.1.956-8.533,1.426-14.854-.942-1.273-.475-2.619-1.053-4.148-1.762Zm4.667-1.771,0.445,0.189a20.764,20.764,0,0,0,3.193,1c3.76,0.892,10.819,1.564,15.87-3.786l0.244-.259-0.311.154c-5.662,2.877-9.072,4.309-18.972,2.775Zm25.31,37.629c10.109-.071,10.6,3.708,10.6,3.708a84.621,84.621,0,0,0-9.26-1.41c6.024,1.55,5.149,3.039,5.149,3.039l-20.7-2.864-2.579-19.676-0.544-1.887a14.962,14.962,0,0,1-6.422.473,24.4,24.4,0,0,1-3.227-.742l0.338,0.2-1.721,3.872-3.66,15.91h0.074a0.771,0.771,0,0,0-.079.018l-0.152.69L470.191,340s-1.788-2.179,2.838-3.23c3.48-.785,2.283-0.573,3.921-0.938-6.981.766-14.879,1.836-14.879,1.836s-1.767-3.469,12.243-4.44a31.464,31.464,0,0,1,9.509.863l6.246-20.162a32.55,32.55,0,0,1-15.83-13.831C466,285.2,477.5,258.938,477.5,258.938s20.719,21.069,37.814,9.365c7.04-4.823,13.132-2.768,14.3,1.126a27.172,27.172,0,0,0-5.918-.507,9.943,9.943,0,0,0-1.727.235,4.669,4.669,0,0,0-1.7.726,6.708,6.708,0,0,0-2.152,2.9,29.81,29.81,0,0,0-1.677,6.5,63.125,63.125,0,0,0-.589,6.414c-0.177,4.164-.072,8.053.081,11.383,0.16,3.24.946,5.947,1.125,7.874-3.765,3.768-8.26,7.3-12.88,9.189l3.833,21.147a47.227,47.227,0,0,1,11.187-1.257h0Z" transform="translate(-462 -212.25)"/>
    </g>
  </g>
  <path id="Fill_7" data-name="Fill 7" class="cls-2" d="M523.643,275.579a1.591,1.591,0,0,0-1.263-1.826,1.532,1.532,0,0,0-1.722,1.336,1.593,1.593,0,0,0,1.262,1.822,1.517,1.517,0,0,0,1.723-1.332m-0.918,7.075a1.58,1.58,0,0,0-1.265-1.82,1.508,1.508,0,0,0-1.716,1.335,1.583,1.583,0,0,0,1.266,1.818,1.514,1.514,0,0,0,1.715-1.333m-0.683,7.516a1.56,1.56,0,0,0-1.238-1.787,1.5,1.5,0,0,0-1.689,1.311,1.558,1.558,0,0,0,1.241,1.789,1.492,1.492,0,0,0,1.686-1.313M520,299.148a1.456,1.456,0,0,0,1.561-1.368,1.5,1.5,0,0,0-1.3-1.648,1.463,1.463,0,0,0-1.553,1.371A1.489,1.489,0,0,0,520,299.148M524.179,271a21.163,21.163,0,0,1,5.53.945c1.4,9.761-2.423,21.018-8.087,28.286A62.851,62.851,0,0,1,517.514,305c-0.144-1.89-.308-4.466-0.42-7.527-0.106-3.309-.165-7.189.061-11.322a62.7,62.7,0,0,1,.621-6.326,18.408,18.408,0,0,1,1.833-6.146,5.341,5.341,0,0,1,1.907-2.119,5.605,5.605,0,0,1,2.663-.56" transform="translate(-462 -212.25)"/>
  <path id="Fill_9" data-name="Fill 9" class="cls-2" d="M503.813,269.419c4.822-.683-6.262,4.419-11.613-6.775-1.6-3.344,6.8,7.459,11.613,6.775" transform="translate(-462 -212.25)"/>
  <path id="Fill_11" data-name="Fill 11" class="cls-2" d="M498.4,265.454c-8.419-6.64,1.439-13.454,1.439-13.454,3.865,12.723,21.374.2,26.475,8.453,3.97-5.882,17.55,1.508,19-5.9,0,0,4.292,9.307-.816,12.674S534.369,262,526.351,260.5a0.473,0.473,0,0,1,.02.047c-12.16.222-19.547,11.547-27.969,4.905" transform="translate(-462 -212.25)"/>
  <path id="Fill_13" data-name="Fill 13" class="cls-2" d="M545.084,269.9c3.465-1.7-3.51,5.351-10.767-3.359-2.161-2.6,7.295,5.062,10.767,3.359" transform="translate(-462 -212.25)"/>
  <g>
    <path id="Clip_16" data-name="Clip 16" class="cls-1" d="M540.852,275.266h10.939v12.562H540.852V275.266Z" transform="translate(-462 -212.25)"/>
    <g id="Mask_by_Clip_16" data-name="Mask by Clip 16">
      <path id="Fill_15" data-name="Fill 15" class="cls-2" d="M540.852,287.213s7.506-.693,2.5-0.665c-2.715.017,3.742,1.28,3.742,1.28l1.556-3.692c4.188-6.919,2.973-8.283,2.973-8.283-10.869-3.494-10.166,9.742-10.166,9.742Z" transform="translate(-462 -212.25)"/>
    </g>
  </g>
  <path id="Fill_18" data-name="Fill 18" class="cls-2" d="M550.581,292.361c1.393,4.71-.818,13.963-4.746,14.738a12.874,12.874,0,0,1-3.811.773c-1.909.449-3.585-.267-3.9-2.431a3.008,3.008,0,0,1,.01-1.312c3.909,0.84,4.363-.56,4.363-0.56l-2.027.087a3.313,3.313,0,0,0,.895-0.233c-1.5,0-3.879.146-4.72-1.26-1.18-1.968-.639-2.165.725-2.554,6.533,0.805,6.762-1.244,6.762-1.244l-3.368.848L537.7,298.7c-0.595-.287-0.938-0.719-1.183-1.994-0.462-2.4,1.1-3.519,2.782-3.8,3.09,0.805,3.609-.355,3.609-0.355l-3.436-.184-1.077-.55a2.609,2.609,0,0,1-.6-1.593c-0.222-2.779,1.853-3.479,3.776-3.149,1.538,0.261,4.63.112,5.23,1.707a5.2,5.2,0,0,1,3.773,3.579" transform="translate(-462 -212.25)"/>
</svg>
