<svg id="Poule" xmlns="http://www.w3.org/2000/svg" width="303.28" height="221.72" viewBox="0 0 303.28 221.72">
  <metadata><?xpacket begin="﻿" id="W5M0MpCehiHzreSzNTczkc9d"?>
<x:xmpmeta xmlns:x="adobe:ns:meta/" x:xmptk="Adobe XMP Core 5.6-c142 79.160924, 2017/07/13-01:06:39        ">
   <rdf:RDF xmlns:rdf="http://www.w3.org/1999/02/22-rdf-syntax-ns#">
      <rdf:Description rdf:about=""/>
   </rdf:RDF>
</x:xmpmeta>
                                                                                                    
                                                                                                    
                                                                                                    
                                                                                                    
                                                                                                    
                                                                                                    
                                                                                                    
                                                                                                    
                                                                                                    
                                                                                                    
                                                                                                    
                                                                                                    
                                                                                                    
                                                                                                    
                                                                                                    
                                                                                                    
                                                                                                    
                                                                                                    
                                                                                                    
                                                                                                    
                           
<?xpacket end="w"?></metadata>
<defs>
    <style>
      .cls-1 {
        fill: #fff;
      }

      .cls-1, .cls-2, .cls-3, .cls-4 {
        fill-rule: evenodd;
      }

      .cls-2 {
        fill-opacity: 0;
      }

      .cls-3, .cls-5 {
        fill: #eb5322;
      }

      .cls-4 {
        fill: #070200;
      }

      .cls-5 {
        font-size: 76px;
        text-anchor: middle;
        font-family: GrandHotel;
      }
    </style>
  </defs>
  <path id="Fill_1" data-name="Fill 1" class="cls-1" d="M1442.67,1909.44c5.48-.11.88-11.61-9.45-11.44-10.31.18-25.99-.06-39.81,0.47-13.81.51-7.96,11.87-1.25,14.31l2.05,54.67s6.04-3.85,18.7-3.6a68.32,68.32,0,0,1,22.15,4.15s0.77-23.14.72-33.05c-0.05-9.93,1.42-25.41,6.89-25.51h0Zm-41.54.46c-2.08,7.02.51,43.19,0.62,44.73a0.206,0.206,0,0,1-.19.23l-0.16.03h-0.04a0.217,0.217,0,0,1-.22-0.17c-0.02-.07-1.57-8.71-2.62-23.29-0.86-11.78.96-19.37,2.04-21.75a0.231,0.231,0,0,1,.28-0.11l0.16,0.07a0.209,0.209,0,0,1,.13.26h0Zm7.98,46.49a0.218,0.218,0,0,1-.18.23,0.049,0.049,0,0,1-.03.01,0.229,0.229,0,0,1-.22-0.15l-0.24-.79c-0.03-.09-2.65-8.91-3.93-24.41-1.03-12.41,1.14-20.46,2.44-22.99l0.33-.62a0.243,0.243,0,0,1,.28-0.11,0.229,0.229,0,0,1,.13.26l-0.18.69c-1.76,7.43,1.49,46.69,1.53,47.06Zm10.48-51.47a0.211,0.211,0,0,1,.05.3c-2.99,4.45-4.35,18.2-4.96,28.94-0.64,11.11-.62,21.38-0.62,22.54a0.225,0.225,0,0,1-.19.22l-0.17.02h-0.02a0.265,0.265,0,0,1-.23-0.23c-0.24-1.46-1.41-9.49-1.47-24.83a54.672,54.672,0,0,1,3.55-19.88,36.066,36.066,0,0,1,3.6-7.12,0.207,0.207,0,0,1,.14-0.1,0.227,0.227,0,0,1,.18.03l0.14,0.11h0Z" transform="translate(-1210.72 -1887.28)"/>
  <g>
    <path id="Clip_4" data-name="Clip 4" class="cls-2" d="M1514,1977.59H1403.32V2109H1514V1977.59Z" transform="translate(-1210.72 -1887.28)"/>
    <g id="Mask_by_Clip_4" data-name="Mask by Clip 4">
      <path id="Fill_3" data-name="Fill 3" class="cls-1" d="M1421.68,2099.33c-16.32-.12-17.11,6.01-17.11,6.01s10.23-2.1,14.95-2.28c-9.72,2.51-8.32,4.93-8.32,4.93l33.42-4.65,4.15-31.9,0.89-3.06a23.8,23.8,0,0,0,10.36.77,40.146,40.146,0,0,0,5.21-1.2l-0.55.33,2.79,6.28,5.9,25.79h-0.12a0.5,0.5,0,0,1,.13.03l0.25,1.11,27.15,7.51s2.89-3.53-4.58-5.23c-5.63-1.28-3.69-.93-6.34-1.52,11.28,1.24,24.02,2.97,24.02,2.97s2.86-5.62-19.76-7.19a50.856,50.856,0,0,0-15.35,1.4l-10.08-32.69a52.558,52.558,0,0,0,25.55-22.42c13.3-24.15-5.25-66.73-5.25-66.73s-33.45,34.15-61.05,15.18c-11.35-7.82-22.73-4.25-24.62,2.06a58.187,58.187,0,0,1,11.09-1.05,14.963,14.963,0,0,1,2.79.38,7.531,7.531,0,0,1,2.74,1.18,10.826,10.826,0,0,1,3.48,4.69,48.564,48.564,0,0,1,2.7,10.55,102.056,102.056,0,0,1,.95,10.39c0.29,6.75.12,13.06-.13,18.46-0.26,5.25-1.52,9.64-1.82,12.76,6.08,6.11,13.34,11.83,20.8,14.9l-6.19,34.27a76.893,76.893,0,0,0-18.05-2.03m40.82-63.81a0.229,0.229,0,0,1,.24.15,0.225,0.225,0,0,1-.12.27l-0.77.33a37.266,37.266,0,0,1-13.32,2.6c-7.23,0-13.17-2.42-17.64-7.19l-0.4-.42a0.227,0.227,0,0,1-.02-0.28,0.236,0.236,0,0,1,.28-0.07l0.51,0.25c6.68,3.42,11.31,5.49,19.29,5.49a74.909,74.909,0,0,0,11.19-1.01l0.76-.12m7.75,2.97a0.217,0.217,0,0,1-.05.29l-0.58.47a38.537,38.537,0,0,1-9.98,5.61,28.339,28.339,0,0,1-9.93,1.91,21.38,21.38,0,0,1-11.19-3.07l-0.48-.29a0.214,0.214,0,0,1-.1-0.27,0.217,0.217,0,0,1,.25-0.14l0.54,0.11a55.888,55.888,0,0,0,10.4,1.27h0a37.343,37.343,0,0,0,13.46-2.78c2-.76,4.18-1.69,6.67-2.85l0.71-.34a0.221,0.221,0,0,1,.28.08m-15.78,19.84a0.208,0.208,0,0,1-.16-0.23,0.223,0.223,0,0,1,.21-0.19l0.55-.03c5.16-.25,9.48-0.58,14.16-2.35,4.32-1.62,8.89-4.4,14.83-9.04l0.62-.49a0.217,0.217,0,0,1,.29.03,0.2,0.2,0,0,1,.01.29l-0.5.63c-0.05.06-6.08,7.7-14.94,11.03a22.891,22.891,0,0,1-8.11,1.55,20.9,20.9,0,0,1-6.44-1.03l-0.52-.17m-8.27-5.82a0.229,0.229,0,0,1-.15-0.23,0.225,0.225,0,0,1,.22-0.19l0.55-.03c5.14-.24,9.45-0.56,14.16-2.34,4.33-1.63,8.9-4.42,14.83-9.04l0.62-.49a0.221,0.221,0,0,1,.31.31l-0.5.63c-0.06.08-6.08,7.71-14.96,11.04a23.193,23.193,0,0,1-8.12,1.54,20.717,20.717,0,0,1-6.42-1.02l-0.54-.18" transform="translate(-1210.72 -1887.28)"/>
    </g>
  </g>
  <path id="Fill_6" data-name="Fill 6" class="cls-1" d="M1410.84,1996a37.189,37.189,0,0,0-9.35,1.51c-2.37,15.73,4.11,33.86,13.68,45.57a87.86,87.86,0,0,0,6.35,6.92,68.707,68.707,0,0,0,1.32-11.36c0.18-5.34.28-11.58-.1-18.24a94.785,94.785,0,0,0-1.06-10.18c-0.59-3.42-1.32-6.97-3.1-9.91a8.9,8.9,0,0,0-3.22-3.42,9.882,9.882,0,0,0-4.52-.89m6.94,42.91a2.629,2.629,0,0,1-2.63-2.42,2.646,2.646,0,1,1,2.88,2.41,2.09,2.09,0,0,1-.25.01m-3.28-12.56a2.732,2.732,0,1,1,3.12,2.29,3.125,3.125,0,0,1-.43.04,2.771,2.771,0,0,1-2.69-2.33m-0.87-11.42a2.8,2.8,0,0,1,2.33-3.18,2.787,2.787,0,0,1,.84,5.51,3.125,3.125,0,0,1-.43.04,2.792,2.792,0,0,1-2.74-2.37m-1.69-10.84a2.806,2.806,0,0,1,2.32-3.19,2.792,2.792,0,0,1,.84,5.52,3.108,3.108,0,0,1-.43.03,2.782,2.782,0,0,1-2.73-2.36" transform="translate(-1210.72 -1887.28)"/>
  <path id="Fill_8" data-name="Fill 8" class="cls-1" d="M1449.49,1994c3.41,0,11.89-1.2,17.14-12.31,0.38-.81.45-1.16,0.28-1.44l-0.13-.21-0.33-.04c-0.48,0-1.18.63-3.32,2.62-4.05,3.76-10.93,10.21-15.65,9.55a9.03,9.03,0,0,0-1.3-.12,1.124,1.124,0,0,0-1.05.37l-0.13.22,0.14,0.32c0.37,0.65,2.5,1.04,4.35,1.04" transform="translate(-1210.72 -1887.28)"/>
  <path id="Fill_10" data-name="Fill 10" class="cls-1" d="M1378.72,1967.15s-6.93,15.13,1.33,20.59c8.24,5.46,16.35-8.49,29.31-10.92a0.435,0.435,0,0,1-.04.07c19.65,0.37,31.58,18.77,45.19,7.98,13.59-10.79-2.33-21.87-2.33-21.87-6.24,20.67-34.53.32-42.76,13.74-6.42-9.56-28.37,2.45-30.7-9.59" transform="translate(-1210.72 -1887.28)"/>
  <path id="Fill_12" data-name="Fill 12" class="cls-1" d="M1379.62,1993.57a0.584,0.584,0,0,0-.55.31,0.685,0.685,0,0,0,.04.68c0.47,0.88,2.97,2.44,6.27,2.44,3.18,0,8.02-1.43,13.02-8.24,0.5-.7.71-1.08,0.55-1.44l-0.13-.27-0.37-.05c-0.41,0-1.1.43-3.13,1.76-3.32,2.15-8.85,5.76-12.46,5.76a3.551,3.551,0,0,1-1.76-.4,3.342,3.342,0,0,0-1.48-.55" transform="translate(-1210.72 -1887.28)"/>
  <path id="Fill_14" data-name="Fill 14" class="cls-3" d="M1328.66,1903.08s-4.57,7.14-7.18,9.5c-2.21,2-7.93,5.34-12.71-2.71-0.66-1.12-3.33.57-4.76,0.44a13.546,13.546,0,0,1-4.87-1.61c-4.67-2.35-4.78,2.57-9.86,2.04-3.56-.36-2.89-6.47-3.22-9.4-0.38-3.35.97-6.88,5.61-6.24,2.98,0.41,3.53,2.22,4.15,4.65,0.07-3.46,2.01-7.51,6.82-6.28,3.23,0.8,3.16,1.83,3.87,4.24,1.74-3.98,3.35-6.33,8.01-3.4,2.53,1.58,2.05,5.68,1.92,8.27,1.74-3.35,2.72-7.45,8.05-6.46,3.99,0.75,5.18,3.72,4.17,6.96" transform="translate(-1210.72 -1887.28)"/>
  <g>
    <path id="Clip_17" data-name="Clip 17" class="cls-2" d="M1328.5,1887.28h-43.04v22.07h43.04v-22.07Z" transform="translate(-1210.72 -1887.28)"/>
    <g id="Mask_by_Clip_17" data-name="Mask by Clip 17">
      <path id="Fill_16" data-name="Fill 16" class="cls-1" d="M1328.17,1897.4s-4.58,7.15-7.19,9.52c-2.22,2.01-7.94,5.36-12.73-2.72-0.66-1.12-3.33.57-4.76,0.44a13.136,13.136,0,0,1-4.87-1.62c-4.68-2.34-4.78,2.58-9.88,2.06-3.55-.37-2.88-6.5-3.22-9.44-0.38-3.36.98-6.89,5.62-6.26,2.98,0.41,3.53,2.23,4.15,4.66,0.07-3.47,2.02-7.53,6.84-6.3,3.22,0.82,3.15,1.84,3.86,4.26,1.75-3.99,3.36-6.34,8.02-3.41,2.54,1.59,2.06,5.7,1.93,8.29,1.73-3.36,2.71-7.47,8.05-6.47,4,0.75,5.18,3.73,4.18,6.99" transform="translate(-1210.72 -1887.28)"/>
    </g>
  </g>
  <path id="Fill_19" data-name="Fill 19" class="cls-1" d="M1343.12,2054l18.88-20.04L1346.87,2020,1328,2040.04Z" transform="translate(-1210.72 -1887.28)"/>
  <path id="Fill_21" data-name="Fill 21" class="cls-4" d="M1361.31,2033.97l-18.23,19.35-14.39-13.28,18.23-19.36ZM1343.14,2055l19.86-21.09L1346.86,2019,1327,2040.1Z" transform="translate(-1210.72 -1887.28)"/>
  <path id="Fill_23" data-name="Fill 23" class="cls-1" d="M1345,2048l3.55,3.01-2.18,2.5,46.67,39.48a12.6,12.6,0,0,0,17.88-1.58,12.121,12.121,0,0,0-1.35-17.43l-46.66-39.48-2.18,2.5-3.55-3" transform="translate(-1210.72 -1887.28)"/>
  <path id="Fill_25" data-name="Fill 25" class="cls-1" d="M1343.63,2054.39l-1.33-1.27,17.55-19.13-12.39-11.76-16.32,17.79,13.73,13.02-1.24,1.35-1.33-1.27,1.33,1.27-1.24,1.35L1326,2040.2l21.28-23.2,17.72,16.8-21.28,23.2-1.33-1.26Z" transform="translate(-1210.72 -1887.28)"/>
  <path id="Fill_27" data-name="Fill 27" class="cls-1" d="M1358.12,2033.99l-15.63,17.03-11.62-11.01,15.63-17.03Zm5.19-.18-20.63,22.48-0.47-.45,2.5-2.72-1.34-1.27,16.44-17.92-13.37-12.66-17.25,18.8,12.49,11.84-1.25,1.36,1.34,1.27-0.43.48-15.66-14.83,20.64-22.48ZM1342.74,2058l22.26-24.25L1346.26,2016,1324,2040.25Z" transform="translate(-1210.72 -1887.28)"/>
  <path id="Fill_29" data-name="Fill 29" class="cls-3" d="M1237.17,2039.72a75.147,75.147,0,0,1-3.75-106.71,76.352,76.352,0,0,1,107.41-3.73,75.147,75.147,0,0,1,3.75,106.71,76.343,76.343,0,0,1-107.41,3.73" transform="translate(-1210.72 -1887.28)"/>
  <path id="Fill_33" data-name="Fill 33" class="cls-1" d="M1213.09,2003.72a79.058,79.058,0,1,0,117.39-87.33,78.814,78.814,0,0,0-108.45,27.19,79.584,79.584,0,0,0-8.94,60.14l3.41-.85,3.41-.86a72.411,72.411,0,0,1,52.45-87.76,71.981,71.981,0,0,1,87.29,52.73,72.419,72.419,0,0,1-52.45,87.76,71.961,71.961,0,0,1-87.29-52.73l-3.41.86Z" transform="translate(-1210.72 -1887.28)"/>
  <path id="Fill_36" data-name="Fill 36" class="cls-1" d="M1302.99,1917.81c-16.05-4.04,36.94,5.7,52.01,58.19,0,0-6.83-46.84-52.01-58.19" transform="translate(-1210.72 -1887.28)"/>
  <path id="Fill_38" data-name="Fill 38" class="cls-1" d="M1246.49,1968.94c-3.4,1.2-5.92-3.41-8.86-2.47-1.21-.92-1.92-1.46-2.63-2.01l0.09-.34c0.73,0.17,1.45.35,2.17,0.52l0.46-.41c-0.8-.88-1.6-1.76-2.33-2.56,0.67,0.06,1.48.13,2.3,0.2,0.08-.17.15-0.33,0.23-0.5-0.99-.79-1.99-1.58-2.76-2.2a11.523,11.523,0,0,1,8.33-.66c0.66-.79,1.39-1.58,2.14-1.6,0.64-.02,1.33.83,1.93,1.36,0.94,0.82,1.83,1.7,2.89,2.69,0.56-.95.91-1.56,1.26-2.16,1.25,0.5,2.42.97,3.91,1.57a2.256,2.256,0,0,1,.98-0.53c2.19-.19,4.63-0.16,1.46-2.96a0.352,0.352,0,0,1-.07-0.21c-0.32-2.78-.65-5.56-0.97-8.36,0.75-.31,1.59-0.66,2.65-1.1a15.083,15.083,0,0,0,.57,2.66,3.1,3.1,0,0,0,1.36,1.77,15.779,15.779,0,0,0,5.22.6c1.86-.19,3.65-1.01,6.05-1.74-1.39-1.07-2.1-1.62-3.14-2.42a30.644,30.644,0,0,1,4.5-1.21c3.02-.34,6.91-4.32,6.88-7.37-0.01-1.39-.76-3.16-0.15-4.07s2.51-.99,3.84-1.43h2.66c0.57,0.63,1.27,1.87,1.7,1.79,3.23-.68,3.57,3.27,6.16,3.66,0.95,0.14,1.76,1.21,2.63,1.86,0.83,0.78,1.38,2.3,2.35,2.64s2.38-.46,3.42-0.73c0.19,0.7.14,1.7,0.62,2.11a27.6,27.6,0,0,0,4.76,3.42c1.15,0.62,2.88,1.34,3.83.89,1.65-.77,2.31.02,3.45,0.77,1.74,1.16,4.07,3.14,5.5,2.69,2.76-.86,4.24,1.93,6.78.82-0.78,1.24-1.56,1.97-1.71,2.81-0.52,2.87-.85,5.79-1.18,8.69a13.306,13.306,0,0,0-.01,3.09,2.129,2.129,0,0,1-2.96,2.44c-0.39-.13-0.76-0.33-1.59-0.7,0.28,1.35.47,2.29,0.67,3.25-0.88.95-1.76,1.92-2.66,2.88-1.3,1.41-2.62,2.8-3.9,4.23a0.9,0.9,0,0,0-.06.8,2.964,2.964,0,0,1-.81,4.35,1.9,1.9,0,0,0-.1.88c1.21-.45,2.21-0.82,3.29-1.23-0.34-.74-0.63-1.36-1.16-2.52,1.81,0.35,3.62.16,4.43,0.97,1.74,1.74,1.59,3.86.29,6.61a3.728,3.728,0,0,1,1.43.95,15.459,15.459,0,0,1,1.45,3.98c0.04,0.2-1.6.72-2.44,1.12a1.753,1.753,0,0,0-.94.66,1.634,1.634,0,0,0,.4,1.25c1.08,1.06,2.25,2.03,3.39,3.04-0.27.05-.54,0.1-0.82,0.15-0.33,1.03-1.16,2.21-.9,3.06,1.25,4.04,2.36,4.54,6.35,3.44a4.294,4.294,0,0,1,.88-0.05v0.44c-0.74,1.54-1.41,3.12-2.25,4.61-1.37,2.41-4.36,3.11-5.68,5.91-1.21,2.56-8.9,2.64-11.06.42-1.67-1.71-3.39-2.51-5.83-1.55,0.18-.78.31-1.32,0.31-1.35-1.47,0-2.84-.06-4.2.02a11.906,11.906,0,0,0-1.86.55c-2.08.47-2.81,3.09-5.26,3.17-0.64.02-1.77,1.5-1.73,2.27a33.252,33.252,0,0,0,.92,5.44h-11.61c0.11-.52.21-1,0.35-1.66-3.03-.59-5.91-1.15-8.91-1.74-0.18.62-.35,1.21-0.52,1.8-2.82-.58-5.8.01-8.24-1.85a5.418,5.418,0,0,0-1.06-.19c-0.57-.23-1.09-0.58-1.64-0.85a33.091,33.091,0,0,0-3.12-1.5c-0.97-.36-2.02-0.53-3.45-0.89l2.75-2c-0.06-.17-0.12-0.33-0.18-0.49-0.99.15-1.98,0.29-2.56,0.37,0.76-2.29,1.64-4.58,2.25-6.94,0.67-2.53,1.08-5.12,1.64-7.89,0.21-.04.74-0.16,1.61-0.35-0.87-1.43-1.62-2.65-2.05-3.35,0.39-2.22.69-3.99,1.12-6.45,1.38,2.18,2.46,3.89,3.65,5.77,0.36-4.01.63-4.64-2.35-7.01-0.65-.52-1.46-1.88-1.23-2.28,1.06-1.79.83-3.03-1.07-3.96,0.43-.72.78-1.33,1.32-2.24a6.5,6.5,0,0,1-1.87-.16,6.672,6.672,0,0,1-2.67-1.53,28.965,28.965,0,0,1-2.29-4.39c0.94-.76,1.42-1.91-0.29-3.32,0.97,0.11,1.94.23,3.21,0.38-1.5-3.27-3.99-2.21-5.6-1.97-0.46-1.21-.59-2.31-1.21-2.97-0.6-.66-1.69-0.87-2.85-1.4" transform="translate(-1210.72 -1887.28)"/>
  <text id="_" data-name="?" class="cls-5" x="59.279" y="74.32">?</text>
</svg>
