<svg id="Page_1" data-name="Page 1" xmlns="http://www.w3.org/2000/svg" width="63.094" height="59.72" viewBox="0 0 63.094 59.72">
  <metadata><?xpacket begin="﻿" id="W5M0MpCehiHzreSzNTczkc9d"?>
<x:xmpmeta xmlns:x="adobe:ns:meta/" x:xmptk="Adobe XMP Core 5.6-c142 79.160924, 2017/07/13-01:06:39        ">
   <rdf:RDF xmlns:rdf="http://www.w3.org/1999/02/22-rdf-syntax-ns#">
      <rdf:Description rdf:about=""/>
   </rdf:RDF>
</x:xmpmeta>
                                                                                                    
                                                                                                    
                                                                                                    
                                                                                                    
                                                                                                    
                                                                                                    
                                                                                                    
                                                                                                    
                                                                                                    
                                                                                                    
                                                                                                    
                                                                                                    
                                                                                                    
                                                                                                    
                                                                                                    
                                                                                                    
                                                                                                    
                                                                                                    
                                                                                                    
                                                                                                    
                           
<?xpacket end="w"?></metadata>
<defs>
    <style>
      .cls-1 {
        fill: #fefefe;
      }

      .cls-1, .cls-2, .cls-3 {
        fill-rule: evenodd;
      }

      .cls-2 {
        fill-opacity: 0;
      }

      .cls-3 {
        fill: #fff;
      }
    </style>
  </defs>
  <path id="Fill_1" data-name="Fill 1" class="cls-1" d="M98.4,1778.12a0.158,0.158,0,0,1,.149.07,0.127,0.127,0,0,1-.011.15,2.467,2.467,0,0,1-1.677.52,4.724,4.724,0,0,1-3.487-1.77c-0.134-.15-0.193-0.23-0.149-0.31l0.036-.06,0.1-.01a2.763,2.763,0,0,1,.84.38,9.282,9.282,0,0,0,3.338,1.24,1.12,1.12,0,0,0,.472-0.09,1.068,1.068,0,0,1,.393-0.12" transform="translate(-60 -1751.28)"/>
  <path id="Fill_3" data-name="Fill 3" class="cls-1" d="M98.46,1776.35c-2.418,1.58-4.8-2.45-8.6-3.15a0.053,0.053,0,0,1,.012.02c-5.768.11-9.268,5.41-13.256,2.31-3.993-3.12.682-6.32,0.682-6.32,1.832,5.97,10.132.1,12.546,3.97,1.885-2.76,8.322.71,9-2.77,0,0,2.033,4.37-.384,5.94" transform="translate(-60 -1751.28)"/>
  <path id="Fill_5" data-name="Fill 5" class="cls-1" d="M68.433,1793.03a0.059,0.059,0,0,0-.006.08l0.147,0.18a11.259,11.259,0,0,0,4.34,3.15,6.833,6.833,0,0,0,2.354.44,6.332,6.332,0,0,0,1.873-.29l0.151-.05a0.06,0.06,0,0,0,.042-0.07,0.068,0.068,0,0,0-.063-0.05l-0.157-.01a12.783,12.783,0,0,1-4.114-.67,16.828,16.828,0,0,1-4.306-2.58l-0.18-.14a0.066,0.066,0,0,0-.083.01m2.4-1.66a0.059,0.059,0,0,0,0,.08l0.143,0.18a11.27,11.27,0,0,0,4.344,3.15,6.856,6.856,0,0,0,2.358.44,5.957,5.957,0,0,0,1.867-.29l0.151-.05a0.067,0.067,0,0,0,.046-0.07,0.062,0.062,0,0,0-.065-0.05l-0.155-.01a12.584,12.584,0,0,1-4.118-.67,16.726,16.726,0,0,1-4.306-2.58l-0.178-.14a0.086,0.086,0,0,0-.085.01m1.96-.52a0.072,0.072,0,0,0-.083.03,0.06,0.06,0,0,0,.012.08l0.169,0.13a11.265,11.265,0,0,0,2.9,1.61,8.4,8.4,0,0,0,2.885.54,6.332,6.332,0,0,0,3.252-.88l0.137-.08a0.059,0.059,0,0,0,.028-0.07,0.075,0.075,0,0,0-.073-0.05l-0.16.04a16.151,16.151,0,0,1-3.016.36,10.967,10.967,0,0,1-3.91-.8c-0.581-.21-1.215-0.48-1.938-0.81l-0.206-.1m2.168-.82a0.065,0.065,0,0,0-.069.04,0.063,0.063,0,0,0,.038.08l0.22,0.1a11.589,11.589,0,0,0,1.494.45,10.327,10.327,0,0,0,2.374.29,6.773,6.773,0,0,0,5.125-2.06l0.113-.11a0.064,0.064,0,0,0,.006-0.08,0.053,0.053,0,0,0-.079-0.02l-0.145.07a11.1,11.1,0,0,1-5.608,1.56,20.98,20.98,0,0,1-3.246-.29l-0.224-.03m-7.691-16.53s9.709,9.75,17.725,4.33c3.3-2.23,6.607-1.21,7.152.59a16.9,16.9,0,0,0-3.218-.3,3.822,3.822,0,0,0-.811.11,2.244,2.244,0,0,0-.8.33,3.13,3.13,0,0,0-1.011,1.34,13.884,13.884,0,0,0-.783,3.01c-0.151,1.01-.226,2-0.275,2.97-0.087,1.92-.034,3.73.036,5.27,0.077,1.49.444,2.75,0.527,3.64a19.641,19.641,0,0,1-6.038,4.25l1.8,9.78a22.464,22.464,0,0,1,5.242-.58c4.74-.04,4.968,1.71,4.968,1.71a39.564,39.564,0,0,0-4.34-.65c2.822,0.72,2.414,1.41,2.414,1.41l-9.7-1.33-1.207-9.1-0.256-.88a7.032,7.032,0,0,1-3.01.23,10.98,10.98,0,0,1-1.512-.35l0.159,0.09-0.809,1.8-1.716,7.36h0.038c-0.018,0-.03.01-0.042,0.01l-0.071.32L63.84,1811s-0.84-1.01,1.332-1.49c1.629-.37,1.068-0.27,1.837-0.44-3.268.35-6.976,0.85-6.976,0.85s-0.826-1.6,5.739-2.06a14.879,14.879,0,0,1,4.461.41l2.927-9.33a15.226,15.226,0,0,1-7.424-6.4c-3.859-6.89,1.53-19.04,1.53-19.04" transform="translate(-60 -1751.28)"/>
  <path id="Fill_7" data-name="Fill 7" class="cls-1" d="M79.631,1778.3a2.021,2.021,0,0,1,.384-0.04,0.319,0.319,0,0,1,.3.11l0.039,0.07-0.039.1a1.907,1.907,0,0,1-1.274.32c-0.995,0-3.473-.37-5.011-3.77a0.494,0.494,0,0,1-.078-0.44l0.037-.07,0.1-.01a2.621,2.621,0,0,1,.968.8c1.184,1.15,3.2,3.13,4.574,2.93" transform="translate(-60 -1751.28)"/>
  <g>
    <path id="Clip_10" data-name="Clip 10" class="cls-2" d="M79.9,1751.29H97.45v20.54H79.9v-20.54Z" transform="translate(-60 -1751.28)"/>
    <g id="Mask_by_Clip_10" data-name="Mask by Clip 10">
      <path id="Fill_9" data-name="Fill 9" class="cls-1" d="M93.494,1761.1a15.218,15.218,0,0,0-.6-6.38,0.074,0.074,0,0,0-.084-0.04l-0.047.02a0.07,0.07,0,0,0-.037.08c0.609,2.06-.149,12.67-0.183,13.13a0.077,0.077,0,0,0,.055.07h0.063a0.064,0.064,0,0,0,.061-0.04c0-.02.458-2.56,0.767-6.84m-1.753-.05a14.26,14.26,0,0,0-.713-6.74l-0.1-.18a0.057,0.057,0,0,0-.075-0.04,0.072,0.072,0,0,0-.039.08l0.049,0.2c0.513,2.18-.436,13.71-0.448,13.81l-0.018.25a0.074,0.074,0,0,0,.055.07h0a0.063,0.063,0,0,0,.063-0.05l0.071-.23a38.689,38.689,0,0,0,1.15-7.17m-2.614,7.47a49.815,49.815,0,0,0,.427-7.29,16.127,16.127,0,0,0-1.034-5.83,10.6,10.6,0,0,0-1.053-2.09,0.44,0.44,0,0,0-.045-0.04,0.055,0.055,0,0,0-.051.02l-0.041.03a0.07,0.07,0,0,0-.016.09c0.877,1.3,1.272,5.34,1.456,8.49,0.185,3.26.179,6.28,0.179,6.62a0.058,0.058,0,0,0,.055.06l0.051,0.01h0.008a0.082,0.082,0,0,0,.063-0.07m-5.781-17.23c3.019,0.05,7.6-.02,11.638.14,4.045,0.14,2.335,3.48.373,4.2l-0.6,16.04a10.4,10.4,0,0,0-5.47-1.05,19.812,19.812,0,0,0-6.482,1.21s-0.224-6.79-.206-9.7-0.417-7.46-2.019-7.48-0.253-3.41,2.766-3.36" transform="translate(-60 -1751.28)"/>
    </g>
  </g>
  <path id="Fill_12" data-name="Fill 12" class="cls-1" d="M88.145,1781.97a0.817,0.817,0,0,0,.8-0.7,0.837,0.837,0,0,0-.677-0.95,0.809,0.809,0,0,0-.927.69,0.832,0.832,0,0,0,.68.95,0.532,0.532,0,0,0,.123.01m-0.492,3.23a0.831,0.831,0,0,0,.117-1.65,0.806,0.806,0,0,0-.923.69,0.828,0.828,0,0,0,.675.95c0.043,0,.087.01,0.13,0.01m-0.241,3.38a0.809,0.809,0,1,0-.124-0.01,0.491,0.491,0,0,0,.124.01m-0.171,3.04a0.766,0.766,0,0,0,.766-0.71,0.783,0.783,0,0,0-.7-0.86,0.789,0.789,0,0,0-.144,1.57h0.078m0.706-12.5a2.964,2.964,0,0,1,1.32-.26,10.6,10.6,0,0,1,2.73.45c0.7,4.68-1.2,10.08-4,13.56-0.6.75-1.11,1.29-1.855,2.06a21.153,21.153,0,0,1-.385-3.38c-0.054-1.59-.08-3.45.029-5.43a29.89,29.89,0,0,1,.309-3.03,8.518,8.518,0,0,1,.906-2.95,2.711,2.711,0,0,1,.943-1.02" transform="translate(-60 -1751.28)"/>
  <path id="Fill_14" data-name="Fill 14" class="cls-3" d="M112.385,1791.56a12.1,12.1,0,0,0,7.872-5.5c-1.5,2.05-4.037,3-7.872,5.5M97.5,1784.59s17.128,0.93,24.643-.38c-1.238,5.7-6.942,8.5-11.887,8.57-10.1.16-12.756-8.19-12.756-8.19" transform="translate(-60 -1751.28)"/>
  <g>
    <path id="Clip_17" data-name="Clip 17" class="cls-2" d="M98.208,1782.81h24.88v8.37H98.208v-8.37Z" transform="translate(-60 -1751.28)"/>
    <g id="Mask_by_Clip_17" data-name="Mask by Clip 17">
      <path id="Fill_16" data-name="Fill 16" class="cls-1" d="M113.237,1789.98a12.177,12.177,0,0,0,7.947-5.37c-1.508,2-4.075,2.93-7.947,5.37m5.905-4.4c-1.56,1.22-3.911,1.63-7.589,2.95a11.8,11.8,0,0,0,7.589-2.95m-20.934-2.4s17.3,0.91,24.88-.37c-1.247,5.55-7.008,8.29-12,8.36-10.2.16-12.88-7.99-12.88-7.99" transform="translate(-60 -1751.28)"/>
    </g>
  </g>
  <path id="Fill_19" data-name="Fill 19" class="cls-1" d="M104.116,1782.07a13.792,13.792,0,0,0,2.33-.15,0.942,0.942,0,0,0,.643-1.32,0.905,0.905,0,0,0-1.272-.62c-0.963.23-2.406,1.19-1.7,2.09" transform="translate(-60 -1751.28)"/>
  <path id="Fill_21" data-name="Fill 21" class="cls-1" d="M113.571,1783.04a19.6,19.6,0,0,0-.78-2.97,1.846,1.846,0,0,0-1.788-1.21c-0.616-.02-0.847.41-0.446,1.4,0.522,1.28,2.077,3.38,3.014,2.78" transform="translate(-60 -1751.28)"/>
  <path id="Fill_23" data-name="Fill 23" class="cls-1" d="M110.2,1783.76a6.61,6.61,0,0,0,.094-2.02,3.127,3.127,0,0,0-2.6-1.8c-0.793.11-.563,1.64-0.362,2.43,0.258,1.03,2.113,1.41,3,1.84" transform="translate(-60 -1751.28)"/>
  <path id="Fill_25" data-name="Fill 25" class="cls-1" d="M113.713,1783.8c0.271-.67.716-1.29,0.443-1.89-0.361-.78-0.972-0.62-0.243-1.15,0.185-.14.392-0.11,0.605-0.25,0.689-.46.363-1.1,0.855-1.65,0.438,0.67.189,1.23,1.149,1.13,0.647-.07,1.137-0.57,1.758-0.68,0.479,0.56-.384,1.5-0.932,1.61,0.5-.15,3.239-1.25,2.538.44-0.361.86-1.725,0.59-2.41,0.71a4.525,4.525,0,0,0-3.091,2.14" transform="translate(-60 -1751.28)"/>
  <path id="Fill_27" data-name="Fill 27" class="cls-1" d="M118.863,1793.31a15.787,15.787,0,0,0-2.107-2.05,3.325,3.325,0,0,0-4.17.26c-0.238.2-1.066-.19-1.528-0.2a6.551,6.551,0,0,0-1.609.21c-1.565.36-1.488-.62-3.146-0.63-1.157,0-1.078,1.23-1.254,1.8-0.2.66,0.159,1.4,1.674,1.37a1.343,1.343,0,0,0,1.447-.83c-0.058.69,0.482,1.54,2.065,1.4a1.2,1.2,0,0,0,1.345-.76c0.474,0.83.94,1.34,2.514,0.86a1.4,1.4,0,0,0,.807-1.6c0.484,0.7.71,1.54,2.454,1.47,1.309-.06,1.756-0.63,1.508-1.3" transform="translate(-60 -1751.28)"/>
</svg>
