<?xml version="1.0" encoding="utf-8"?>
<!-- Generator: Adobe Illustrator 20.1.0, SVG Export Plug-In . SVG Version: 6.00 Build 0)  -->
<svg version="1.1" id="Слой_1" xmlns="http://www.w3.org/2000/svg" xmlns:xlink="http://www.w3.org/1999/xlink" x="0px" y="0px"
	 viewBox="0 0 27 27" style="enable-background:new 0 0 27 27;" xml:space="preserve">
<style type="text/css">
	.st0{fill:#696969;}
</style>
<path class="st0" d="M13.5,27C6,27,0,21,0,13.5C0,6,6,0,13.5,0C21,0,27,6,27,13.5C27,21,21,27,13.5,27z M13.5,2.2
	c-6.2,0-11.3,5-11.3,11.3s5,11.2,11.3,11.2s11.3-5,11.3-11.2S19.7,2.2,13.5,2.2z M10.9,7.3L12,6.7l2,3.8l-1.2,0.6
	c-1.2,0.7,1.3,5.7,2.6,5.1l1.2-0.6l2,3.8l-1.2,0.6C13.2,21.9,6.8,9.4,10.9,7.3z"/>
</svg>
