<?xml version="1.0" encoding="utf-8"?>
<!-- Generator: Adobe Illustrator 20.1.0, SVG Export Plug-In . SVG Version: 6.00 Build 0)  -->
<svg version="1.1" id="Слой_1" xmlns="http://www.w3.org/2000/svg" xmlns:xlink="http://www.w3.org/1999/xlink" x="0px" y="0px"
	 viewBox="0 0 589.9 1951.1" style="enable-background:new 0 0 589.9 1951.1;" xml:space="preserve">
<style type="text/css">
	.st0{fill:#E8530E;}
	.st1{fill:#FFFFFF;}
</style>
<g>
	<path class="st0" d="M526,20.1c2.1,1.9,8.6-11.7,9.3-12.3c-0.1,0.7-1.3,7.8-1.4,9.1c-0.2,4.5,1.3,4.5,1.7,4.4
		c0.8-0.3,1.3-2.6,4.2-13c1.3-4.8,1.8-7.3,1.1-8.1c-0.7-0.7-2.5,0-6.1,1.5c-5.9,2.5-10.3,7.7-10.8,9.8c-0.6,2,8.2-5.4,9.5-5.5
		C532.6,6.7,524.1,18.2,526,20.1z"/>
	<path class="st0" d="M557.4,47.7c0.1-2.1-2.5-8.5-7.6-12.9c-3.1-2.7-4.6-3.9-5.6-3.5c-1,0.4-1.3,3-1.5,8c-0.5,10.8-0.7,13.2,0,13.7
		c0.3,0.2,1.9,0.7,3.1-3.6c0.4-1.3,1.3-8.4,1.5-9.1c0.5,0.8,2.6,15.8,5.3,14.8c2.5-1.1-2.3-14.9-2.8-15.8
		C551,39.8,557.3,49.8,557.4,47.7z"/>
	<path class="st0" d="M523.9,88.7c2.2,1.7,7.6-12.4,8.2-13.1c0,0.7-0.7,7.9-0.6,9.2c0.2,4.5,1.7,4.4,2.1,4.3c0.8-0.3,1.1-2.7,3-13.3
		c0.9-4.9,1.2-7.5,0.4-8.1c-0.8-0.6-2.5,0.2-6,2.1c-5.7,3-9.5,8.6-9.9,10.7c-0.4,2.1,7.7-6.1,9-6.3C529.3,74.8,521.9,87,523.9,88.7z
		"/>
	<path class="st0" d="M547.4,124.2c0.8-1.9,0.5-8.8-2.7-14.7c-2-3.6-3-5.3-4-5.2c-1.1,0.1-2.2,2.4-4.1,7c-4.1,10-5.2,12.1-4.7,12.8
		c0.2,0.3,1.5,1.3,4.1-2.3c0.8-1.1,4.1-7.4,4.5-8c0.2,0.9-3,15.8-0.1,15.7c2.7-0.2,3-14.8,2.7-15.8
		C544,114.5,546.5,126.1,547.4,124.2z"/>
	<path class="st0" d="M506.1,147.1c2.1,1.9,8.6-11.7,9.3-12.3c-0.1,0.7-1.3,7.8-1.4,9.1c-0.2,4.5,1.3,4.5,1.7,4.4
		c0.8-0.3,1.3-2.6,4.2-13c1.3-4.8,1.9-7.3,1.1-8.1c-0.7-0.7-2.5,0-6.1,1.5c-5.9,2.5-10.3,7.7-10.8,9.8c-0.6,2,8.2-5.4,9.5-5.5
		C512.7,133.7,504.2,145.3,506.1,147.1z"/>
	<path class="st0" d="M530.4,181.2c0.8-1.9,0.5-8.8-2.7-14.7c-2-3.6-3-5.3-4-5.2c-1.1,0.1-2.2,2.4-4.1,7c-4.1,10-5.2,12.1-4.7,12.8
		c0.2,0.3,1.5,1.3,4.1-2.3c0.8-1.1,4.1-7.4,4.5-8c0.2,0.9-3,15.8-0.1,15.7c2.7-0.2,3-14.8,2.7-15.8
		C527,171.5,529.5,183.1,530.4,181.2z"/>
	<path class="st0" d="M488.1,205.1c2.1,1.9,8.6-11.7,9.3-12.3c-0.1,0.7-1.3,7.8-1.4,9.1c-0.2,4.5,1.3,4.5,1.7,4.4
		c0.8-0.3,1.3-2.6,4.2-13c1.3-4.8,1.9-7.3,1.1-8.1c-0.7-0.7-2.5,0-6.1,1.5c-5.9,2.5-10.3,7.7-10.8,9.8c-0.6,2,8.2-5.4,9.5-5.5
		C494.7,191.7,486.2,203.3,488.1,205.1z"/>
	<path class="st0" d="M512.4,239.2c0.8-1.9,0.5-8.8-2.7-14.7c-2-3.6-3-5.3-4-5.2c-1.1,0.1-2.2,2.4-4.1,7c-4.1,10-5.2,12.1-4.7,12.8
		c0.2,0.3,1.5,1.3,4.1-2.3c0.8-1.1,4.1-7.4,4.5-8c0.2,0.9-3,15.8-0.1,15.7c2.7-0.2,3-14.8,2.7-15.8
		C509,229.5,511.5,241.1,512.4,239.2z"/>
	<path class="st0" d="M474.3,272.5c1.9,2.1,9.6-10.9,10.3-11.4c-0.1,0.7-2,7.7-2.2,9c-0.6,4.5,0.9,4.6,1.3,4.6
		c0.8-0.2,1.5-2.5,5.3-12.6c1.7-4.6,2.5-7.1,1.8-7.9c-0.7-0.7-2.5-0.2-6.3,1c-6.1,2-10.9,6.8-11.6,8.8c-0.7,2,8.7-4.7,9.9-4.7
		C482.1,259.7,472.6,270.5,474.3,272.5z"/>
	<path class="st0" d="M498.7,307.7c1-1.8,1.3-8.7-1.4-14.9c-1.7-3.7-2.6-5.5-3.6-5.6c-1.1,0-2.4,2.2-4.7,6.6
		c-5,9.6-6.2,11.6-5.8,12.4c0.2,0.3,1.4,1.5,4.3-1.9c0.9-1,4.8-7,5.2-7.6c0.1,1-4.3,15.5-1.4,15.6c2.7,0.1,4.2-14.5,4.1-15.5
		C496.2,297.8,497.7,309.6,498.7,307.7z"/>
	<path class="st0" d="M458.7,332.3c2.2,1.7,7.6-12.4,8.2-13.1c0,0.7-0.7,7.9-0.6,9.2c0.2,4.5,1.7,4.4,2.1,4.3
		c0.8-0.3,1.1-2.7,3-13.3c0.9-4.9,1.2-7.5,0.4-8.1c-0.8-0.6-2.5,0.2-6,2.1c-5.7,3-9.5,8.6-9.9,10.7c-0.4,2.1,7.7-6.1,9-6.3
		C464.2,318.3,456.7,330.6,458.7,332.3z"/>
	<path class="st0" d="M489.4,361.9c0.3-2.1-1.8-8.7-6.4-13.5c-2.8-3-4.3-4.3-5.3-4c-1,0.3-1.5,2.9-2.2,7.8
		c-1.4,10.7-1.9,13-1.2,13.6c0.3,0.2,1.8,0.9,3.4-3.3c0.5-1.2,2.1-8.3,2.3-8.9c0.4,0.9,1.2,16,4,15.2c2.6-0.9-1-15.1-1.5-16
		C483.6,353.4,489.1,364,489.4,361.9z"/>
	<path class="st0" d="M458.5,403.2c2.5,1.3,5.3-13.5,5.8-14.3c0.1,0.7,0.7,7.9,1,9.2c1,4.4,2.5,4,2.8,3.8c0.7-0.5,0.6-2.9,0.6-13.6
		c0.1-5-0.1-7.6-1-8.1c-0.9-0.5-2.4,0.6-5.5,3.1c-5.1,4-7.9,10.1-7.9,12.2c0,2.1,6.6-7.3,7.7-7.8
		C461.4,388.5,456.2,401.9,458.5,403.2z"/>
	<path class="st0" d="M490.4,430.9c0.3-2.1-1.8-8.7-6.4-13.5c-2.8-3-4.3-4.3-5.3-4c-1,0.3-1.5,2.9-2.2,7.8
		c-1.4,10.7-1.9,13-1.2,13.6c0.3,0.2,1.8,0.9,3.4-3.3c0.5-1.2,2.1-8.3,2.3-8.9c0.4,0.9,1.2,16,4,15.2c2.6-0.9-1-15.1-1.5-16
		C484.6,422.4,490.1,433,490.4,430.9z"/>
	<path class="st0" d="M465.5,477.2c2.5,1.3,5.3-13.5,5.8-14.3c0.1,0.7,0.7,7.9,1,9.2c1,4.4,2.5,4,2.8,3.8c0.7-0.5,0.6-2.9,0.6-13.6
		c0.1-5-0.1-7.6-1-8.1c-0.9-0.5-2.4,0.6-5.5,3.1c-5.1,4-7.9,10.1-7.9,12.2c0,2.1,6.6-7.3,7.7-7.8
		C468.4,462.5,463.2,475.9,465.5,477.2z"/>
	<path class="st0" d="M497.8,504.2c0.1-2.1-2.5-8.5-7.6-12.9c-3.1-2.7-4.6-3.9-5.6-3.5c-1,0.4-1.3,3-1.5,8
		c-0.5,10.8-0.7,13.2,0,13.7c0.3,0.2,1.9,0.7,3.1-3.6c0.4-1.3,1.3-8.4,1.5-9.1c0.5,0.8,2.6,15.8,5.3,14.8c2.5-1.1-2.3-14.9-2.8-15.8
		C491.4,496.3,497.7,506.3,497.8,504.2z"/>
	<path class="st0" d="M469.5,546.2c2.5,1.3,5.3-13.5,5.8-14.3c0.1,0.7,0.7,7.9,1,9.2c1,4.4,2.5,4,2.8,3.8c0.7-0.5,0.6-2.9,0.6-13.6
		c0.1-5-0.1-7.6-1-8.1c-0.9-0.5-2.4,0.6-5.5,3.1c-5.1,4-7.9,10.1-7.9,12.2c0,2.1,6.6-7.3,7.7-7.8
		C472.4,531.5,467.2,544.9,469.5,546.2z"/>
	<path class="st0" d="M501.8,573.2c0.1-2.1-2.5-8.5-7.6-12.9c-3.1-2.7-4.6-3.9-5.6-3.5c-1,0.4-1.3,3-1.5,8
		c-0.5,10.8-0.7,13.2,0,13.7c0.3,0.2,1.9,0.7,3.1-3.6c0.4-1.3,1.3-8.4,1.5-9.1c0.5,0.8,2.6,15.8,5.3,14.8c2.5-1.1-2.3-14.9-2.8-15.8
		C495.4,565.3,501.7,575.3,501.8,573.2z"/>
	<path class="st0" d="M479.4,617.8c2.7,0.8,2.9-14.2,3.2-15.1c0.3,0.7,2.1,7.7,2.6,8.9c1.7,4.2,3.1,3.5,3.4,3.3
		c0.6-0.6,0.1-2.9-1.7-13.5c-0.8-4.9-1.4-7.4-2.4-7.8c-1-0.3-2.3,1.1-4.9,4c-4.3,4.8-6,11.4-5.7,13.4c0.4,2.1,5.2-8.4,6.3-9
		C479.7,602.8,476.9,616.9,479.4,617.8z"/>
	<path class="st0" d="M515.5,638.7c-0.3-2.1-3.9-7.9-9.7-11.4c-3.5-2.1-5.3-3.1-6.1-2.5c-0.9,0.6-0.7,3.2-0.1,8.1
		c1.4,10.7,1.6,13.1,2.3,13.5c0.4,0.2,2,0.4,2.4-4.1c0.1-1.3-0.1-8.5-0.1-9.2c0.6,0.7,5.3,15.1,7.8,13.6c2.3-1.5-4.8-14.3-5.5-15.1
		C507.8,632.1,515.7,640.8,515.5,638.7z"/>
	<path class="st0" d="M496.4,686.8c2.7,0.8,2.9-14.2,3.2-15.1c0.3,0.7,2.1,7.7,2.6,8.9c1.7,4.2,3.1,3.5,3.4,3.3
		c0.6-0.6,0.1-2.9-1.7-13.5c-0.8-4.9-1.4-7.4-2.4-7.8c-1-0.3-2.3,1.1-4.9,4c-4.3,4.8-6,11.4-5.7,13.4c0.4,2.1,5.2-8.4,6.3-9
		C496.7,671.8,493.9,685.9,496.4,686.8z"/>
	<path class="st0" d="M532.2,708.5c-0.1-2.1-3.2-8.2-8.7-12.2c-3.3-2.4-5-3.5-5.9-3c-0.9,0.5-1,3.1-0.8,8.1
		c0.5,10.8,0.4,13.2,1.2,13.6c0.4,0.2,1.9,0.6,2.8-3.8c0.2-1.3,0.6-8.5,0.7-9.2c0.5,0.8,4,15.6,6.6,14.3c2.4-1.3-3.6-14.7-4.2-15.5
		C525.1,701.2,532.3,710.6,532.2,708.5z"/>
	<path class="st0" d="M505.4,752.5c2.6,1.1,4.1-13.9,4.5-14.7c0.2,0.7,1.4,7.8,1.8,9.1c1.3,4.3,2.8,3.8,3.1,3.6
		c0.7-0.5,0.3-2.9-0.5-13.6c-0.4-4.9-0.8-7.5-1.7-8c-0.9-0.4-2.4,0.8-5.2,3.5c-4.7,4.4-7,10.8-6.8,12.9c0.2,2.1,5.9-7.9,7-8.5
		C507.1,737.6,503,751.4,505.4,752.5z"/>
	<path class="st0" d="M538.8,774.2c0.1-2.1-2.5-8.5-7.6-12.9c-3.1-2.7-4.6-3.9-5.6-3.5c-1,0.4-1.3,3-1.5,8
		c-0.5,10.8-0.7,13.2,0,13.7c0.3,0.2,1.9,0.7,3.1-3.6c0.4-1.3,1.3-8.4,1.5-9.1c0.5,0.8,2.6,15.8,5.3,14.8c2.5-1.1-2.3-14.9-2.8-15.8
		C532.4,766.3,538.7,776.3,538.8,774.2z"/>
	<path class="st0" d="M506.4,813.5c2.6,1.1,4.1-13.9,4.5-14.7c0.2,0.7,1.4,7.8,1.8,9.1c1.3,4.3,2.8,3.8,3.1,3.6
		c0.7-0.5,0.3-2.9-0.5-13.6c-0.4-4.9-0.8-7.5-1.7-8c-0.9-0.4-2.4,0.8-5.2,3.5c-4.7,4.4-7,10.8-6.8,12.9c0.2,2.1,5.9-7.9,7-8.5
		C508.1,798.6,504,812.4,506.4,813.5z"/>
	<path class="st0" d="M539.8,835.2c0.1-2.1-2.5-8.5-7.6-12.9c-3.1-2.7-4.6-3.9-5.6-3.5c-1,0.4-1.3,3-1.5,8
		c-0.5,10.8-0.7,13.2,0,13.7c0.3,0.2,1.9,0.7,3.1-3.6c0.4-1.3,1.3-8.4,1.5-9.1c0.5,0.8,2.6,15.8,5.3,14.8c2.5-1.1-2.3-14.9-2.8-15.8
		C533.4,827.3,539.7,837.3,539.8,835.2z"/>
	<path class="st0" d="M511.4,874.5c2.6,1.1,4.1-13.9,4.5-14.7c0.2,0.7,1.4,7.8,1.8,9.1c1.3,4.3,2.8,3.8,3.1,3.6
		c0.7-0.5,0.3-2.9-0.5-13.6c-0.4-4.9-0.8-7.5-1.7-8c-0.9-0.4-2.4,0.8-5.2,3.5c-4.7,4.4-7,10.8-6.8,12.9c0.2,2.1,5.9-7.9,7-8.5
		C513.1,859.6,509,873.4,511.4,874.5z"/>
	<path class="st0" d="M544.8,896.2c0.1-2.1-2.5-8.5-7.6-12.9c-3.1-2.7-4.6-3.9-5.6-3.5c-1,0.4-1.3,3-1.5,8
		c-0.5,10.8-0.7,13.2,0,13.7c0.3,0.2,1.9,0.7,3.1-3.6c0.4-1.3,1.3-8.4,1.5-9.1c0.5,0.8,2.6,15.8,5.3,14.8c2.5-1.1-2.3-14.9-2.8-15.8
		C538.4,888.3,544.7,898.3,544.8,896.2z"/>
	<path class="st0" d="M518.4,938.5c2.6,1.1,4.1-13.9,4.5-14.7c0.2,0.7,1.4,7.8,1.8,9.1c1.3,4.3,2.8,3.8,3.1,3.6
		c0.7-0.5,0.3-2.9-0.5-13.6c-0.4-4.9-0.8-7.5-1.7-8c-0.9-0.4-2.4,0.8-5.2,3.5c-4.7,4.4-7,10.8-6.8,12.9c0.2,2.1,5.9-7.9,7-8.5
		C520.1,923.6,516,937.4,518.4,938.5z"/>
	<path class="st0" d="M551.8,960.2c0.1-2.1-2.5-8.5-7.6-12.9c-3.1-2.7-4.6-3.9-5.6-3.5c-1,0.4-1.3,3-1.5,8
		c-0.5,10.8-0.7,13.2,0,13.7c0.3,0.2,1.9,0.7,3.1-3.6c0.4-1.3,1.3-8.4,1.5-9.1c0.5,0.8,2.6,15.8,5.3,14.8c2.5-1.1-2.3-14.9-2.8-15.8
		C545.4,952.3,551.7,962.3,551.8,960.2z"/>
	<path class="st0" d="M525.4,1002.5c2.6,1.1,4.1-13.9,4.5-14.7c0.2,0.7,1.4,7.8,1.8,9.1c1.3,4.3,2.8,3.8,3.1,3.6
		c0.7-0.5,0.3-2.9-0.5-13.6c-0.4-4.9-0.8-7.5-1.7-8c-0.9-0.4-2.4,0.8-5.2,3.5c-4.7,4.4-7,10.8-6.8,12.9c0.2,2.1,5.9-7.9,7-8.5
		C527.1,987.6,523,1001.4,525.4,1002.5z"/>
	<path class="st0" d="M558.8,1024.2c0.1-2.1-2.5-8.5-7.6-12.9c-3.1-2.7-4.6-3.9-5.6-3.5c-1,0.4-1.3,3-1.5,8
		c-0.5,10.8-0.7,13.2,0,13.7c0.3,0.2,1.9,0.7,3.1-3.6c0.4-1.3,1.3-8.4,1.5-9.1c0.5,0.8,2.6,15.8,5.3,14.8c2.5-1.1-2.3-14.9-2.8-15.8
		C552.4,1016.3,558.7,1026.3,558.8,1024.2z"/>
	<path class="st1" d="M534.4,1083.9c2.8,0.6,1.6-14.4,1.9-15.3c0.3,0.6,2.7,7.4,3.3,8.6c2.1,4,3.4,3.3,3.7,3
		c0.6-0.6-0.2-2.9-2.9-13.3c-1.2-4.8-2.1-7.3-3.1-7.5c-1-0.2-2.2,1.2-4.6,4.4c-3.9,5.2-5,11.8-4.5,13.8c0.5,2.1,4.4-8.8,5.5-9.5
		C533.4,1068.9,531.8,1083.2,534.4,1083.9z"/>
	<path class="st1" d="M573.1,1094.8c-0.9-1.9-6.4-6.1-13-7.4c-4-0.8-6-1.1-6.6-0.3c-0.6,0.9,0.4,3.3,2.7,7.7
		c5,9.6,5.9,11.8,6.8,11.9c0.4,0,2-0.3,0.9-4.7c-0.3-1.3-3-7.9-3.2-8.6c0.8,0.5,10.2,12.4,12,10.2c1.6-2.2-9.4-11.8-10.4-12.3
		C563.6,1091.2,574.1,1096.7,573.1,1094.8z"/>
	<path class="st1" d="M546.8,1142.5c2.6,1.1,4.1-13.9,4.5-14.7c0.2,0.7,1.4,7.8,1.8,9.1c1.3,4.3,2.8,3.8,3.1,3.6
		c0.7-0.5,0.3-2.9-0.5-13.6c-0.4-4.9-0.8-7.5-1.7-8c-0.9-0.4-2.4,0.8-5.2,3.5c-4.7,4.4-7,10.8-6.8,12.9c0.2,2.1,5.9-7.9,7-8.5
		C548.5,1127.6,544.4,1141.4,546.8,1142.5z"/>
	<path class="st1" d="M586.6,1153.4c-0.6-2-5.3-7.1-11.5-9.5c-3.8-1.5-5.7-2.1-6.5-1.4c-0.8,0.7-0.2,3.3,1.3,8
		c3.2,10.3,3.8,12.6,4.7,12.9c0.4,0.1,2,0,1.7-4.4c-0.1-1.3-1.6-8.4-1.7-9.1c0.7,0.6,7.9,14,10,12.1c2-1.9-7.2-13.2-8.1-13.9
		C577.9,1148.1,587.2,1155.4,586.6,1153.4z"/>
	<path class="st1" d="M554.3,1196.1c2.5,1.3,5.3-13.5,5.8-14.3c0.1,0.7,0.7,7.9,1,9.2c1,4.4,2.5,4,2.8,3.8c0.7-0.5,0.6-2.9,0.6-13.6
		c0-5-0.1-7.6-1-8.1c-0.9-0.5-2.5,0.6-5.5,3.1c-5.1,4-7.9,10.1-7.9,12.2c0,2.1,6.6-7.3,7.7-7.8
		C557.3,1181.5,552,1194.9,554.3,1196.1z"/>
	<path class="st1" d="M589.9,1215.8c-0.3-2.1-3.9-7.9-9.7-11.4c-3.5-2.1-5.3-3.1-6.1-2.5c-0.9,0.6-0.7,3.2-0.1,8.1
		c1.4,10.7,1.6,13.1,2.3,13.5c0.4,0.2,2,0.4,2.4-4.1c0.1-1.3-0.1-8.5-0.1-9.2c0.6,0.7,5.3,15.1,7.8,13.6c2.3-1.5-4.8-14.3-5.5-15.1
		C582.2,1209.1,590.2,1217.9,589.9,1215.8z"/>
	<path class="st1" d="M550.4,1249.3c2.2,1.7,7.6-12.4,8.2-13.1c0,0.7-0.7,7.9-0.6,9.2c0.2,4.5,1.7,4.4,2.1,4.3
		c0.8-0.3,1.1-2.7,3-13.3c0.9-4.9,1.2-7.5,0.4-8.1c-0.8-0.6-2.5,0.2-6,2.1c-5.7,3-9.5,8.6-9.9,10.7c-0.4,2.1,7.7-6.1,9-6.3
		C555.8,1235.3,548.4,1247.6,550.4,1249.3z"/>
	<path class="st1" d="M582.9,1274.1c0.1-2.1-2.5-8.5-7.6-12.9c-3.1-2.7-4.6-3.9-5.6-3.5c-1,0.4-1.3,3-1.5,8
		c-0.5,10.8-0.7,13.2,0,13.7c0.3,0.2,1.9,0.7,3.1-3.6c0.4-1.3,1.3-8.4,1.5-9.1c0.5,0.8,2.6,15.8,5.3,14.8c2.5-1.1-2.3-14.9-2.8-15.8
		C576.4,1266.2,582.8,1276.3,582.9,1274.1z"/>
	<path class="st1" d="M538.9,1302c1.9,2.1,9.6-10.9,10.3-11.4c-0.1,0.7-2,7.7-2.2,9c-0.6,4.5,0.9,4.6,1.3,4.6
		c0.8-0.2,1.5-2.5,5.3-12.6c1.7-4.6,2.5-7.1,1.8-7.9c-0.7-0.7-2.5-0.2-6.3,1c-6.1,2-10.9,6.8-11.6,8.8c-0.7,2,8.7-4.7,9.9-4.7
		C546.7,1289.2,537.2,1300,538.9,1302z"/>
	<path class="st1" d="M557.9,1340.8c0.6-2-0.2-8.8-4-14.4c-2.3-3.4-3.5-5-4.5-4.9c-1.1,0.2-2,2.6-3.5,7.3
		c-3.3,10.3-4.1,12.5-3.6,13.2c0.3,0.3,1.6,1.2,3.9-2.7c0.7-1.1,3.5-7.8,3.8-8.4c0.2,0.9-1.6,16,1.3,15.6c2.7-0.4,1.7-15,1.3-16
		C553.7,1331.5,557.2,1342.9,557.9,1340.8z"/>
	<path class="st1" d="M511.6,1366c1.5,2.4,11.3-9,12.2-9.5c-0.2,0.7-3.3,7.2-3.7,8.5c-1.4,4.3,0.1,4.7,0.5,4.7
		c0.8-0.1,1.9-2.2,7.4-11.5c2.5-4.3,3.7-6.6,3.1-7.5c-0.5-0.8-2.4-0.7-6.3-0.1c-6.4,0.9-11.9,4.8-13,6.6c-1.1,1.8,9.3-3.1,10.6-2.9
		C521.5,1354.8,510.2,1363.8,511.6,1366z"/>
	<path class="st1" d="M527.2,1403.1c1-1.8,1.3-8.7-1.4-14.9c-1.7-3.7-2.6-5.5-3.6-5.6c-1.1,0-2.4,2.2-4.7,6.6
		c-5,9.6-6.2,11.6-5.8,12.4c0.2,0.3,1.4,1.5,4.3-1.9c0.9-1,4.8-7,5.2-7.6c0.1,1-4.3,15.5-1.4,15.6c2.7,0.1,4.2-14.5,4.1-15.5
		C524.7,1393.2,526.2,1405,527.2,1403.1z"/>
	<path class="st1" d="M482.8,1420.4c1.7,2.2,10.5-10,11.3-10.5c-0.2,0.7-2.7,7.5-3,8.7c-1,4.4,0.5,4.7,0.9,4.7
		c0.8-0.1,1.7-2.3,6.4-12.1c2.1-4.5,3.1-6.9,2.5-7.8c-0.6-0.8-2.5-0.5-6.3,0.4c-6.3,1.5-11.4,5.8-12.3,7.7c-0.9,1.9,9-3.9,10.3-3.8
		C491.6,1408.4,481.2,1418.3,482.8,1420.4z"/>
	<path class="st1" d="M499,1457.7c0.8-1.9,0.5-8.8-2.7-14.7c-2-3.6-3-5.3-4-5.2c-1.1,0.1-2.2,2.4-4.1,7c-4.1,10-5.2,12.1-4.7,12.8
		c0.2,0.3,1.5,1.3,4.1-2.3c0.8-1.1,4.1-7.4,4.5-8c0.2,0.9-3,15.8-0.1,15.7c2.7-0.2,3-14.8,2.7-15.8
		C495.6,1448.1,498.1,1459.7,499,1457.7z"/>
	<path class="st1" d="M450.2,1473.7c1.3,2.5,12.1-8,12.9-8.4c-0.3,0.6-3.9,6.9-4.4,8.1c-1.7,4.2-0.3,4.7,0.1,4.7
		c0.8,0,2.1-2,8.4-10.8c2.9-4,4.2-6.3,3.8-7.2c-0.5-0.9-2.4-0.9-6.3-0.7c-6.4,0.3-12.3,3.8-13.5,5.5c-1.2,1.7,9.6-2.3,10.8-2
		C461,1463.3,449,1471.3,450.2,1473.7z"/>
	<path class="st1" d="M468.5,1509.7c1-1.8,1.3-8.7-1.4-14.9c-1.7-3.7-2.6-5.5-3.6-5.6c-1.1,0-2.4,2.2-4.7,6.6
		c-5,9.6-6.2,11.6-5.8,12.4c0.2,0.3,1.4,1.5,4.3-1.9c0.9-1,4.8-7,5.2-7.6c0.1,1-4.3,15.5-1.4,15.6c2.7,0.1,4.2-14.5,4.1-15.5
		C466.1,1499.8,467.6,1511.6,468.5,1509.7z"/>
	<path class="st1" d="M419.1,1515.7c1.3,2.5,12.1-8,12.9-8.4c-0.3,0.6-3.9,6.9-4.4,8.1c-1.7,4.2-0.3,4.7,0.1,4.7
		c0.8,0,2.1-2,8.4-10.8c2.9-4,4.2-6.3,3.8-7.2c-0.5-0.9-2.4-0.9-6.3-0.7c-6.4,0.3-12.3,3.8-13.5,5.5c-1.2,1.7,9.6-2.3,10.8-2
		C429.9,1505.4,417.9,1513.4,419.1,1515.7z"/>
	<path class="st1" d="M437.4,1551.8c1-1.8,1.3-8.7-1.4-14.9c-1.7-3.7-2.6-5.5-3.6-5.6c-1.1,0-2.4,2.2-4.7,6.6
		c-5,9.6-6.2,11.6-5.8,12.4c0.2,0.3,1.4,1.5,4.3-1.9c0.9-1,4.8-7,5.2-7.6c0.1,1-4.3,15.5-1.4,15.6c2.7,0.1,4.2-14.5,4.1-15.5
		C434.9,1541.9,436.4,1553.6,437.4,1551.8z"/>
	<path class="st1" d="M391.7,1552.3c1.3,2.5,12.1-8,12.9-8.4c-0.3,0.6-3.9,6.9-4.4,8.1c-1.7,4.2-0.3,4.7,0.1,4.7
		c0.9,0,2.1-2,8.4-10.8c2.9-4,4.2-6.3,3.8-7.2c-0.5-0.9-2.4-0.9-6.3-0.7c-6.4,0.4-12.3,3.8-13.5,5.5c-1.2,1.7,9.6-2.3,10.8-2
		C402.5,1541.9,390.5,1549.9,391.7,1552.3z"/>
	<path class="st1" d="M410,1588.3c1-1.8,1.3-8.7-1.4-14.9c-1.7-3.7-2.6-5.5-3.6-5.6c-1.1,0-2.4,2.2-4.7,6.6
		c-5,9.6-6.2,11.6-5.8,12.4c0.2,0.3,1.4,1.5,4.3-1.9c0.9-1,4.8-7,5.2-7.6c0.1,1-4.3,15.5-1.4,15.6c2.7,0.1,4.2-14.5,4.1-15.5
		C407.5,1578.4,409.1,1590.2,410,1588.3z"/>
	<path class="st1" d="M360.1,1597.3c1.3,2.5,12.1-8,12.9-8.4c-0.3,0.6-3.9,6.9-4.4,8.1c-1.7,4.2-0.3,4.7,0.1,4.7
		c0.8,0,2.1-2,8.4-10.8c2.9-4,4.2-6.3,3.8-7.2c-0.5-0.9-2.4-0.9-6.3-0.7c-6.4,0.3-12.3,3.8-13.5,5.5c-1.2,1.7,9.6-2.3,10.8-2
		C370.9,1587,359,1594.9,360.1,1597.3z"/>
	<path class="st1" d="M361.8,1637.1c1-1.8,1.3-8.7-1.4-14.9c-1.7-3.7-2.6-5.5-3.6-5.6c-1.1,0-2.4,2.2-4.7,6.6
		c-5,9.6-6.2,11.6-5.8,12.4c0.2,0.3,1.4,1.5,4.3-1.9c0.9-1,4.8-7,5.2-7.6c0.1,1-4.3,15.5-1.4,15.6c2.7,0.1,4.2-14.5,4.1-15.5
		C359.3,1627.2,360.8,1639,361.8,1637.1z"/>
	<path class="st1" d="M309,1647.9c1.1,2.6,12.7-6.9,13.6-7.2c-0.4,0.6-4.5,6.5-5.1,7.7c-2.1,4-0.7,4.7-0.3,4.7
		c0.8,0.1,2.3-1.8,9.3-10c3.2-3.8,4.8-5.9,4.4-6.9c-0.4-0.9-2.3-1.1-6.2-1.2c-6.4-0.2-12.6,2.7-13.9,4.3c-1.4,1.6,9.7-1.4,11-1
		C320.6,1638.6,308,1645.5,309,1647.9z"/>
	<path class="st1" d="M313.7,1693.9c1.3-1.6,2.8-8.4,1.2-14.9c-1-4-1.6-5.9-2.6-6.1c-1.1-0.2-2.8,1.7-5.8,5.7
		c-6.6,8.5-8.2,10.3-7.9,11.2c0.1,0.4,1.1,1.7,4.6-1.2c1-0.8,5.9-6.1,6.5-6.6c-0.1,1-6.9,14.5-4.1,15.1c2.6,0.5,6.7-13.5,6.7-14.6
		C313,1683.7,312.4,1695.6,313.7,1693.9z"/>
	<path class="st1" d="M263.1,1709.1c1.1,2.6,12.7-6.9,13.6-7.2c-0.3,0.6-4.5,6.5-5.1,7.7c-2.1,4-0.7,4.7-0.3,4.7
		c0.8,0.1,2.3-1.8,9.3-10c3.2-3.8,4.8-5.9,4.4-6.9c-0.4-0.9-2.3-1.1-6.2-1.2c-6.4-0.2-12.6,2.7-13.9,4.3c-1.4,1.6,9.7-1.4,11-1
		C274.8,1699.7,262.2,1706.6,263.1,1709.1z"/>
	<path class="st1" d="M271.8,1753.6c1.3-1.6,2.8-8.4,1.2-14.9c-1-4-1.6-5.9-2.6-6.1c-1.1-0.2-2.8,1.7-5.8,5.7
		c-6.6,8.5-8.2,10.3-7.9,11.2c0.1,0.4,1.1,1.7,4.6-1.2c1-0.8,5.9-6.1,6.5-6.6c-0.1,1-6.9,14.5-4.1,15.1c2.6,0.5,6.7-13.5,6.7-14.6
		C271.1,1743.4,270.5,1755.3,271.8,1753.6z"/>
	<path class="st1" d="M215.3,1763.9c0.1,2.8,14.3-2.2,15.3-2.1c-0.5,0.5-6.5,4.6-7.5,5.5c-3.3,3-2.3,4.1-1.9,4.3
		c0.8,0.4,2.8-0.9,12.1-6.3c4.3-2.4,6.5-3.9,6.5-4.9c0-1-1.8-1.8-5.4-3.3c-6-2.4-12.7-1.8-14.5-0.7c-1.8,1,9.6,2,10.6,2.8
		C229.5,1759.1,215.3,1761.2,215.3,1763.9z"/>
	<path class="st1" d="M215.7,1811.5c1.8-1.1,5.5-6.9,6.2-13.6c0.4-4.1,0.6-6.1-0.3-6.6c-0.9-0.6-3.2,0.7-7.4,3.3
		c-9.1,5.8-11.2,6.9-11.2,7.8c0,0.4,0.5,2,4.7,0.5c1.2-0.4,7.7-3.7,8.3-4c-0.4,0.9-11.5,11.2-9.1,12.8c2.3,1.4,10.9-10.4,11.3-11.4
		C218.5,1801.7,213.9,1812.6,215.7,1811.5z"/>
	<path class="st1" d="M161.8,1820.9c0.1,2.8,14.3-2.2,15.3-2.1c-0.5,0.5-6.5,4.6-7.5,5.5c-3.3,3-2.3,4.1-1.9,4.3
		c0.8,0.4,2.8-0.9,12.1-6.3c4.3-2.4,6.5-3.9,6.5-4.9c0-1-1.8-1.8-5.4-3.3c-6-2.4-12.7-1.8-14.5-0.7c-1.8,1,9.6,2,10.6,2.8
		C176,1816.1,161.8,1818.2,161.8,1820.9z"/>
	<path class="st1" d="M153.5,1869.8c1.8-1.1,5.5-6.9,6.2-13.6c0.4-4.1,0.6-6.1-0.3-6.6c-0.9-0.6-3.2,0.7-7.4,3.3
		c-9.1,5.8-11.2,6.9-11.2,7.8c0,0.4,0.5,2,4.7,0.5c1.2-0.4,7.7-3.7,8.3-4c-0.4,0.9-11.5,11.2-9.1,12.8c2.3,1.4,10.9-10.4,11.3-11.4
		C156.3,1860,151.7,1870.9,153.5,1869.8z"/>
	<path class="st1" d="M102.6,1872.2c0.1,2.8,14.3-2.2,15.3-2.1c-0.5,0.5-6.5,4.6-7.5,5.5c-3.3,3-2.3,4.1-1.9,4.3
		c0.8,0.4,2.8-0.9,12.1-6.3c4.3-2.4,6.5-3.9,6.5-4.9c0-1-1.8-1.8-5.4-3.3c-6-2.4-12.7-1.8-14.5-0.7c-1.8,1,9.6,2,10.6,2.8
		C116.8,1867.4,102.6,1869.5,102.6,1872.2z"/>
	<path class="st1" d="M104.7,1917.6c1.8-1.1,5.5-6.9,6.2-13.6c0.4-4.1,0.6-6.1-0.3-6.6c-0.9-0.6-3.2,0.7-7.4,3.3
		c-9.1,5.8-11.2,6.9-11.2,7.8c0,0.4,0.5,2,4.7,0.5c1.2-0.4,7.7-3.7,8.3-4c-0.4,0.9-11.5,11.2-9.1,12.8c2.3,1.4,10.9-10.4,11.3-11.4
		C107.5,1907.8,102.9,1918.7,104.7,1917.6z"/>
	<path class="st1" d="M53.9,1907.9c0.1,2.8,14.3-2.2,15.3-2.1c-0.5,0.5-6.5,4.6-7.5,5.5c-3.3,3-2.3,4.1-1.9,4.3
		c0.8,0.4,2.8-0.9,12.1-6.3c4.3-2.4,6.5-3.9,6.5-4.9c0-1-1.8-1.8-5.4-3.3c-6-2.4-12.7-1.8-14.5-0.7c-1.8,1,9.6,2,10.6,2.8
		C68,1903.1,53.8,1905.3,53.9,1907.9z"/>
	<path class="st1" d="M48.9,1950.7c1.8-1.1,5.5-6.9,6.2-13.6c0.4-4.1,0.6-6.1-0.3-6.6c-0.9-0.6-3.2,0.7-7.4,3.3
		c-9.1,5.8-11.2,6.9-11.2,7.8c0,0.4,0.5,2,4.7,0.5c1.2-0.4,7.7-3.7,8.3-4c-0.4,0.9-11.5,11.2-9.1,12.8c2.3,1.4,10.9-10.4,11.3-11.4
		C51.7,1940.9,47.1,1951.9,48.9,1950.7z"/>
	<path class="st1" d="M0,1940.1c0.1,2.8,14.3-2.2,15.3-2.1c-0.5,0.5-6.5,4.6-7.5,5.5c-3.3,3-2.3,4.1-1.9,4.3
		c0.8,0.4,2.8-0.9,12.1-6.3c4.3-2.4,6.5-3.9,6.5-4.9c0-1-1.8-1.8-5.4-3.3c-6-2.4-12.7-1.8-14.5-0.7c-1.8,1,9.6,2,10.6,2.8
		C14.2,1935.3,0,1937.4,0,1940.1z"/>
</g>
</svg>
